<svg xmlns="http://www.w3.org/2000/svg" xmlns:xlink="http://www.w3.org/1999/xlink" version="1.1" x="0px" y="0px" viewBox="0 0 100 100" enable-background="new 0 0 100 100" xml:space="preserve"><g><path fill="#000000" d="M53.955,0c0.73,0.153,1.283,0.72,1.709,1.301c0.508,0.736,0.896,1.625,0.781,2.539   c-0.051,0.621-0.562,1.171-1.174,1.277c-0.16,0.019-0.307-0.063-0.445-0.13c-0.644-0.329-1.135-0.951-1.279-1.663   C53.3,2.208,53.549,1.045,53.955,0z"/><path fill="#000000" d="M65.652,1.023c0.14-0.077,0.215,0.096,0.25,0.2c0.42,1.224,0.705,2.559,0.404,3.844   c-0.223,0.99-0.978,1.842-1.939,2.165c-0.8-0.017-1.491-0.732-1.586-1.515c-0.119-0.991,0.229-1.979,0.742-2.813   C64.031,2.094,64.731,1.349,65.652,1.023z"/><path fill="#000000" d="M48.951,1.683c0.499,0.052,0.918,0.359,1.304,0.656c0.853,0.704,1.478,1.659,1.858,2.692   c0.252,0.738,0.393,1.558,0.152,2.317c-0.213,0.718-0.888,1.261-1.621,1.363c-0.904-0.286-1.687-0.967-2.057-1.845   c-0.375-0.878-0.402-1.858-0.292-2.793C48.454,3.263,48.588,2.433,48.951,1.683z"/><path fill="#000000" d="M59.307,2.334c0.064-0.076,0.145-0.136,0.232-0.184c0.891,0.74,1.251,1.91,1.405,3.017   c0.087,1.085-0.001,2.3-0.726,3.172c-0.463,0.568-1.248,0.751-1.945,0.613c-0.494-0.428-0.836-1.025-1.005-1.653   c-0.198-0.856-0.007-1.757,0.346-2.547C58.016,3.847,58.633,3.055,59.307,2.334z"/><path fill="#000000" d="M43.873,4.211c1.124-0.062,2.168,0.534,2.962,1.283c0.539,0.536,1.039,1.209,1.065,1.999   c0.039,0.562-0.297,1.117-0.776,1.395c-0.62,0.068-1.252-0.143-1.752-0.507c-0.491-0.359-0.81-0.898-1.044-1.449   C43.974,6.073,43.862,5.134,43.873,4.211z"/><path fill="#000000" d="M67.174,5.75c0.37-0.396,0.821-0.775,1.378-0.85c0.359,1.019,0.627,2.124,0.421,3.204   c-0.159,0.842-0.769,1.596-1.584,1.879c-0.221,0.067-0.438-0.054-0.626-0.155c-0.454-0.246-0.728-0.756-0.735-1.265   C65.989,7.515,66.488,6.516,67.174,5.75z"/><path fill="#000000" d="M39.929,4.992c0.636-0.034,1.197,0.356,1.672,0.737c0.812,0.702,1.486,1.66,1.6,2.752   c0.084,0.645-0.266,1.325-0.851,1.616c-0.336,0.209-0.721-0.021-1.042-0.152C40.459,9.549,39.97,8.653,39.82,7.76   C39.649,6.842,39.752,5.9,39.929,4.992z"/><path fill="#000000" d="M53.262,6.263c0.217-0.118,0.465,0.012,0.686,0.062c0.891,0.325,1.615,0.993,2.191,1.729   c0.562,0.731,0.979,1.622,0.963,2.559c0.008,0.722-0.487,1.397-1.146,1.667c-0.267,0.097-0.538-0.043-0.786-0.128   c-0.867-0.318-1.535-1.071-1.821-1.941C52.9,8.939,53.028,7.564,53.262,6.263z"/><path fill="#000000" d="M62.283,8.263c0.203-0.159,0.389-0.364,0.65-0.425c0.549,1.649,0.882,3.409,0.666,5.149   c-0.129,0.746-0.354,1.548-0.963,2.048c-0.514,0.443-1.252,0.469-1.887,0.339c-0.569-0.129-1.185-0.375-1.469-0.922   c-0.322-0.62-0.244-1.369-0.041-2.014C59.809,10.781,60.955,9.38,62.283,8.263z"/><path fill="#000000" d="M37.172,8.83c0.75,0.111,1.307,0.715,1.731,1.299c0.513,0.734,0.888,1.63,0.766,2.541   c-0.062,0.583-0.519,1.091-1.082,1.241c-0.223,0.068-0.431-0.074-0.621-0.17c-0.666-0.363-1.125-1.053-1.238-1.798   C36.568,10.888,36.786,9.811,37.172,8.83z"/><path fill="#000000" d="M69.554,10.71c0.44-0.682,1.038-1.359,1.86-1.553c0.259,0.549,0.395,1.148,0.488,1.746   c0.062,0.744,0.09,1.547-0.301,2.214c-0.288,0.534-0.775,0.967-1.356,1.15c-0.616,0.003-1.149-0.524-1.274-1.112   C68.793,12.302,69.114,11.432,69.554,10.71z"/><path fill="#000000" d="M47.428,9.972c0.116,0.061,0.221,0.141,0.31,0.238c0.944,0.999,1.798,2.117,2.315,3.401   c0.273,0.707,0.477,1.509,0.214,2.25c-0.188,0.581-0.742,0.956-1.308,1.116c-0.574,0.179-1.262,0.229-1.769-0.15   c-0.581-0.457-0.797-1.224-0.857-1.932C46.208,13.194,46.624,11.471,47.428,9.972z"/><path fill="#000000" d="M42.712,10.967c0.227,0.072,0.356,0.291,0.508,0.459c0.571,0.708,0.802,1.613,0.946,2.493   c0.09,1.032,0.034,2.151-0.572,3.034c-0.431,0.687-1.351,1.001-2.116,0.778c-0.75-0.649-1.142-1.667-1.056-2.652   C40.604,13.468,41.59,12.081,42.712,10.967z"/><path fill="#000000" d="M65.816,11.339c0.031,0.004,0.096,0.014,0.129,0.018c1.02,1.017,1.89,2.258,2.197,3.686   c0.202,0.938-0.06,1.949-0.668,2.687c-0.147,0.157-0.281,0.383-0.52,0.392c-0.568,0.082-1.184-0.053-1.611-0.449   c-0.552-0.501-0.793-1.251-0.889-1.971c-0.129-1.228,0.066-2.519,0.7-3.591C65.332,11.822,65.549,11.552,65.816,11.339z"/><path fill="#000000" d="M51.145,14.455c0.062-1.066,0.423-2.113,1.004-3.007c0.73,0.271,1.215,0.944,1.564,1.609   c0.438,0.893,0.711,1.946,0.408,2.924c-0.17,0.596-0.743,1.016-1.348,1.082c-0.248,0.036-0.441-0.15-0.625-0.287   C51.445,16.24,51.088,15.328,51.145,14.455z"/><path fill="#000000" d="M32.144,16.287c-0.191-1.176,0.024-2.385,0.474-3.479c0.766,0.159,1.351,0.747,1.804,1.351   c0.548,0.785,0.977,1.727,0.874,2.707c-0.037,0.639-0.512,1.21-1.122,1.39c-0.256,0.115-0.508-0.06-0.729-0.172   C32.768,17.717,32.315,17.024,32.144,16.287z"/><path fill="#000000" d="M76.141,13.549c0.32-0.134,0.698-0.284,1.04-0.154c0.08,1.114,0.108,2.282-0.372,3.32   c-0.347,0.895-1.221,1.543-2.172,1.64c-0.254,0.01-0.446-0.191-0.623-0.344c-0.505-0.483-0.545-1.276-0.307-1.899   C74.128,14.977,75.054,14.058,76.141,13.549z"/><path fill="#000000" d="M55.835,14.218c0.104-0.04,0.2,0.06,0.294,0.093c1.292,0.686,2.537,1.578,3.302,2.852   c0.667,1.049,0.704,2.489,0.051,3.55c-0.62,0.376-1.45,0.457-2.099,0.103c-0.65-0.343-1.107-0.959-1.43-1.605   c-0.568-1.118-0.762-2.408-0.617-3.649C55.424,15.092,55.555,14.612,55.835,14.218z"/><path fill="#000000" d="M36.503,15.027c0.28-0.057,0.555,0.067,0.813,0.161c1.014,0.424,1.807,1.254,2.388,2.168   c0.419,0.672,0.693,1.468,0.609,2.27c-0.075,0.673-0.581,1.259-1.21,1.488c-0.439,0.01-0.854-0.204-1.228-0.416   c-0.738-0.452-1.221-1.232-1.417-2.063C36.139,17.453,36.29,16.212,36.503,15.027z"/><path fill="#000000" d="M70.851,15.756c0.386-0.217,0.808-0.41,1.26-0.406c0.247,1.338,0.391,2.763-0.093,4.067   c-0.348,1.069-1.334,1.919-2.453,2.053c-0.653-0.199-1.186-0.797-1.264-1.482c-0.1-0.754,0.165-1.5,0.53-2.148   C69.316,16.993,70.006,16.252,70.851,15.756z"/><path fill="#000000" d="M42.862,20.411c0.551-1.496,1.448-2.867,2.605-3.964c0.182,0.18,0.264,0.428,0.375,0.653   c0.689,1.542,1.206,3.221,1.092,4.929c-0.078,0.665-0.293,1.375-0.848,1.797c-0.599,0.474-1.423,0.471-2.138,0.334   c-0.581-0.116-1.128-0.522-1.296-1.106C42.368,22.184,42.571,21.25,42.862,20.411z"/><path fill="#000000" d="M62.11,18.164c0.108-0.396,0.178-0.811,0.383-1.172c1.21,0.77,2.176,1.882,2.94,3.085   c0.474,0.814,0.925,1.709,0.887,2.677c0.019,0.682-0.425,1.361-1.076,1.584c-0.684,0.268-1.492,0.397-2.174,0.06   c-0.688-0.346-1.032-1.098-1.201-1.812C61.553,21.121,61.771,19.604,62.11,18.164z"/><path fill="#000000" d="M28.687,17.209c1.112-0.054,2.159,0.509,2.942,1.262c0.538,0.522,1.015,1.184,1.074,1.954   c0.059,0.568-0.262,1.126-0.728,1.436c-0.614,0.105-1.253-0.116-1.757-0.466c-0.68-0.475-1.05-1.262-1.274-2.037   C28.729,18.664,28.67,17.932,28.687,17.209z"/><path fill="#000000" d="M78.738,17.399c0.216-0.081,0.454-0.181,0.686-0.093c0.162,1.157,0.319,2.391-0.131,3.506   c-0.26,0.716-0.853,1.294-1.565,1.557c-0.187,0.066-0.385,0.135-0.585,0.1c-0.544-0.208-0.971-0.733-1.012-1.321   c-0.055-0.716,0.222-1.413,0.606-2.003C77.233,18.402,77.9,17.738,78.738,17.399z"/><path fill="#000000" d="M50.2,17.566c0.333,0.06,0.609,0.271,0.894,0.44c0.908,0.583,1.783,1.343,2.145,2.392   c0.201,0.678,0.151,1.451-0.211,2.067c-0.165,0.172-0.414,0.207-0.635,0.261c-0.611,0.134-1.231-0.193-1.615-0.656   c-0.722-0.875-0.999-2.044-0.957-3.16C49.833,18.439,49.984,17.982,50.2,17.566z"/><path fill="#000000" d="M33.96,20.063c0.784,0.009,1.451,0.518,1.988,1.043c0.662,0.686,1.224,1.552,1.286,2.527   c0.07,0.715-0.422,1.495-1.142,1.64c-0.916-0.131-1.706-0.805-2.028-1.666C33.632,22.48,33.72,21.226,33.96,20.063z"/><path fill="#000000" d="M74.008,20.528c0.2-0.071,0.414-0.155,0.631-0.114c0.243,1.11,0.333,2.296-0.029,3.391   c-0.265,0.832-0.953,1.522-1.796,1.759c-0.131,0.026-0.27,0.084-0.401,0.039c-0.48-0.173-0.874-0.592-0.979-1.098   c-0.17-0.744,0.119-1.503,0.505-2.132C72.438,21.585,73.137,20.89,74.008,20.528z"/><path fill="#000000" d="M48.417,23.205c0.397-0.265,0.8-0.534,1.244-0.711c0.034,0.002,0.101,0.005,0.134,0.007   c0.553,1.01,0.527,2.228,0.267,3.32c-0.228,0.94-0.679,1.883-1.479,2.466c-0.569,0.426-1.379,0.433-2,0.118   c-0.174-0.073-0.226-0.27-0.298-0.425c-0.367-0.849-0.31-1.86,0.128-2.672C46.872,24.438,47.618,23.76,48.417,23.205z"/><path fill="#000000" d="M54.207,22.663c0.021-0.034,0.06-0.104,0.079-0.138c1.222,0.551,2.358,1.321,3.308,2.271   c0.619,0.661,1.254,1.459,1.24,2.413c0.002,0.669-0.467,1.231-1.012,1.566c-0.459,0.315-1.055,0.496-1.6,0.327   c-0.677-0.253-1.117-0.884-1.412-1.515C54.135,26.049,53.998,24.318,54.207,22.663z"/><path fill="#000000" d="M39.048,23.005c1.042,0.411,1.963,1.098,2.764,1.875c0.699,0.698,1.258,1.594,1.354,2.596   c0.062,0.691-0.092,1.404-0.425,2.012c-0.585,0.413-1.412,0.486-2.062,0.177c-0.667-0.348-1.158-0.962-1.492-1.625   c-0.535-1.104-0.771-2.356-0.635-3.578C38.621,23.95,38.783,23.451,39.048,23.005z"/><path fill="#000000" d="M81.236,23.292c0.803-0.246,1.65-0.211,2.478-0.154c0.029,0.76-0.414,1.447-0.899,1.996   c-0.562,0.592-1.277,1.128-2.116,1.201c-0.564,0.064-1.152-0.247-1.402-0.759c-0.07-0.224,0.02-0.458,0.08-0.674   C79.639,24.071,80.411,23.492,81.236,23.292z"/><path fill="#000000" d="M67.941,24.267c0.485-0.328,0.979-0.663,1.521-0.886c0.034,0.004,0.101,0.009,0.135,0.012   c0.511,0.913,0.585,2.002,0.43,3.021c-0.185,1.207-0.638,2.445-1.584,3.263c-0.677,0.612-1.777,0.695-2.535,0.188   c-0.538-0.848-0.605-1.963-0.266-2.9C66.073,25.833,66.977,24.96,67.941,24.267z"/><path fill="#000000" d="M30.503,23.469c0.275,0.074,0.517,0.23,0.769,0.356c1.064,0.581,2.056,1.312,2.871,2.214   c0.504,0.576,0.953,1.269,0.986,2.058c0.023,0.633-0.375,1.206-0.885,1.546c-0.488,0.354-1.119,0.625-1.723,0.42   c-0.731-0.262-1.18-0.964-1.477-1.644C30.382,26.864,30.302,25.128,30.503,23.469z"/><path fill="#000000" d="M77.321,24.187c0.251-0.121,0.481-0.309,0.763-0.35c0.211,1.268,0.145,2.584-0.146,3.836   c-0.223,0.833-0.532,1.689-1.161,2.308c-0.38,0.371-0.932,0.606-1.464,0.46c-0.784-0.214-1.557-0.76-1.788-1.575   c-0.17-0.766,0.199-1.517,0.649-2.113C75.009,25.67,76.133,24.844,77.321,24.187z"/><path fill="#000000" d="M60.006,24.617c0.881,0.002,1.672,0.51,2.302,1.088c0.722,0.683,1.347,1.558,1.452,2.571   c0.1,0.726-0.337,1.498-1.025,1.759c-0.217,0.042-0.432-0.034-0.636-0.094c-0.75-0.233-1.396-0.791-1.721-1.508   C59.82,27.247,59.818,25.889,60.006,24.617z"/><path fill="#000000" d="M51.645,26.257c0.27-0.178,0.512-0.442,0.847-0.488c0.566,0.865,0.628,1.96,0.434,2.95   c-0.166,0.751-0.454,1.532-1.073,2.027c-0.438,0.376-1.079,0.419-1.606,0.23c-0.127-0.035-0.204-0.149-0.268-0.256   c-0.387-0.666-0.458-1.501-0.185-2.222C50.145,27.571,50.867,26.846,51.645,26.257z"/><path fill="#000000" d="M24.874,26.886c1.078-0.304,2.226-0.017,3.186,0.508c0.59,0.333,1.157,0.782,1.443,1.415   c0.287,0.571,0.163,1.332-0.315,1.763c-0.463,0.181-0.984,0.165-1.466,0.072c-0.68-0.153-1.25-0.614-1.68-1.147   c-0.521-0.663-0.883-1.439-1.14-2.238C24.858,27.138,24.853,27.011,24.874,26.886z"/><path fill="#000000" d="M79.99,28.111c0.742-0.561,1.644-0.916,2.572-0.989c0.405-0.014,0.834-0.015,1.206,0.167   c-0.042,0.417-0.237,0.795-0.386,1.18c-0.345,0.783-0.819,1.538-1.512,2.057c-0.688,0.53-1.654,0.68-2.47,0.389   c-0.401-0.42-0.547-1.072-0.355-1.621C79.232,28.816,79.589,28.421,79.99,28.111z"/><path fill="#000000" d="M36.63,29.166c0.627-0.059,1.218,0.265,1.727,0.599c0.936,0.657,1.715,1.606,1.996,2.733   c0.132,0.577,0.039,1.26-0.412,1.681c-0.21,0.217-0.487,0.454-0.814,0.383c-0.908-0.132-1.724-0.757-2.107-1.589   C36.448,31.796,36.482,30.435,36.63,29.166z"/><path fill="#000000" d="M45.058,29.387c0.097-0.11,0.23-0.028,0.288,0.076c0.651,0.875,0.734,2.03,0.605,3.079   c-0.108,0.642-0.327,1.295-0.791,1.769c-0.41,0.451-1.099,0.601-1.665,0.391c-0.191-0.067-0.277-0.268-0.377-0.425   c-0.396-0.681-0.466-1.542-0.169-2.273C43.351,30.933,44.16,30.069,45.058,29.387z"/><path fill="#000000" d="M71.36,29.575c0.19-0.014,0.496-0.195,0.62,0.007c0.164,1.13,0.144,2.311-0.234,3.399   c-0.358,1.042-1.333,1.886-2.45,1.956c-0.509-0.164-0.903-0.632-1.049-1.14c-0.147-0.76,0.125-1.536,0.541-2.167   C69.403,30.704,70.282,29.902,71.36,29.575z"/><path fill="#000000" d="M57.887,30.708c0.671-0.097,1.38-0.1,2.016,0.165c0.527,0.209,0.896,0.754,0.898,1.322   c0.039,0.667-0.107,1.413-0.645,1.863c-0.588,0.481-1.402,0.467-2.115,0.369c-1.369-0.253-2.638-0.882-3.785-1.652   c-0.124-0.117-0.383-0.18-0.383-0.372C55.051,31.535,56.439,30.938,57.887,30.708z"/><path fill="#000000" d="M31.753,31.601c0.799-0.187,1.663-0.274,2.453-0.004c0.532,0.176,0.977,0.661,1.023,1.231   c0.041,0.546,0.004,1.13-0.288,1.609c-0.29,0.505-0.87,0.779-1.436,0.82c-0.861,0.082-1.7-0.182-2.5-0.469   c-0.938-0.364-1.83-0.861-2.628-1.475c-0.017-0.029-0.05-0.086-0.067-0.114C29.324,32.421,30.519,31.904,31.753,31.601z"/><path fill="#000000" d="M74.147,32.068c0.765-0.404,1.677-0.32,2.497-0.164c1.304,0.268,2.553,0.817,3.618,1.616   c0.019,0.023,0.053,0.069,0.071,0.093c-1.213,0.883-2.572,1.599-4.046,1.922c-0.734,0.12-1.569,0.168-2.203-0.289   c-0.583-0.427-0.753-1.202-0.72-1.886C73.367,32.831,73.664,32.302,74.147,32.068z"/><g><path fill="#000000" d="M47.43,32.013c0.99,0.191,1.95,0.517,2.936,0.735c0.176,0.045,0.499,0.079,0.39,0.346    c-0.572,2.354-1.094,4.73-1.326,7.146c-0.006,0.581-0.097,1.166,0.004,1.742c0.026,0.224,0.226,0.358,0.36,0.52    c1.258,1.38,2.448,2.838,3.383,4.46c0.06,0.083,0.101,0.201,0.212,0.228c0.209-2.073,0.325-4.164,0.179-6.246    c-0.036-1.091-0.241-2.167-0.416-3.243c-0.018-0.098-0.019-0.196-0.004-0.294c0.895-0.276,1.805-0.497,2.697-0.779    c0.182-0.045,0.363-0.117,0.553-0.11c0.16,0.107,0.155,0.332,0.197,0.502c0.623,3.189,0.701,6.474,0.352,9.701    c0.004,0.156-0.103,0.351,0.011,0.483c1.806-2.676,3.682-5.359,4.833-8.4c0.806-2.073,1.215-4.292,1.257-6.514    c1.157-0.029,2.317-0.028,3.476-0.013c0.064,1.876-0.267,3.74-0.715,5.555c-0.049,0.212-0.131,0.419-0.129,0.641    c0.111-0.019,0.221-0.048,0.328-0.088c0.729-0.306,1.489-0.538,2.265-0.689c0.306-0.056,0.618-0.113,0.93-0.077    c0.004,1.16,0.211,2.312,0.147,3.473c-0.558,0.01-1.094,0.186-1.611,0.378c-1.648,0.6-3.132,1.611-4.357,2.859    c-0.886,0.866-1.55,1.919-2.227,2.949c-0.945,1.44-1.975,2.834-2.75,4.379c-0.299,0.612-0.594,1.262-0.581,1.959    c0.001,11.626-0.005,23.251,0.003,34.877c-0.051,2.251,0.636,4.471,1.728,6.424c1.06,1.86,2.468,3.528,4.147,4.859    c0.071,0.056,0.121,0.129,0.148,0.22c-6.318,0.009-12.637,0.004-18.955,0.002c0.229-0.263,0.581-0.388,0.861-0.593    c2.987-1.869,4.979-5.117,5.54-8.571c0.282-1.448,0.184-2.928,0.193-4.392c0.003-5.739-0.006-11.479,0.008-17.217    c-0.008-0.486,0.069-1.021-0.217-1.448c-0.347-0.444-0.851-0.735-1.356-0.965c-1.271-0.564-2.649-0.826-4.015-1.039    c-3.461-0.462-6.968-0.439-10.449-0.259c-0.646,0.04-1.292,0.112-1.94,0.121c-0.103-1.152-0.292-2.302-0.3-3.46    c0.863-0.087,1.726-0.152,2.593-0.175c0.035-0.67,0.039-1.34-0.008-2.008c-0.088-0.001-0.178,0.004-0.263-0.021    c-1.187-0.354-2.253-1.132-2.903-2.191c-0.654-1.031-0.947-2.252-1.014-3.461c-0.872-0.007-1.731,0.219-2.603,0.213    c0.302-0.373,0.767-0.578,1.15-0.861c0.172-0.145,0.434-0.222,0.548-0.413c-0.504-0.886-1.137-1.694-1.675-2.559    c0.731,0.435,1.396,0.97,2.102,1.443c0.182,0.117,0.351,0.264,0.562,0.326c0.47-1.244,1.623-2.122,2.866-2.508    c0.889-0.261,1.844-0.358,2.757-0.179c0.808,0.188,1.416,0.846,1.712,1.599c0.443,0.993,0.546,2.092,0.68,3.159    c0.115,0.622,0.112,1.294,0.467,1.842c0.111,0.183,0.333,0.239,0.534,0.25c1.4,0.067,2.777-0.243,4.162-0.397    c0.482-0.08,0.971-0.137,1.46-0.103c-0.172,0.314-0.549,0.407-0.848,0.56c-1.413,0.642-2.465,1.823-3.737,2.678    c-0.911,0.611-1.994,0.961-3.09,0.997c-0.013,0.508-0.042,1.019,0.013,1.525c3.464-0.003,6.965,0.091,10.345,0.926    c0.611,0.168,1.22,0.346,1.809,0.582c0.219,0.082,0.434,0.187,0.668,0.207c-0.041-3.562-0.001-7.123-0.021-10.684    c-0.083-0.776-0.159-1.569-0.447-2.303c-0.59-1.619-1.575-3.057-2.658-4.383c-2.455-2.962-5.423-5.458-8.543-7.69    c-0.141-0.077-0.011-0.235,0.036-0.329c0.565-0.833,1.131-1.667,1.703-2.496c0.048-0.098,0.162-0.139,0.248-0.06    c1.458,0.973,2.794,2.116,4.173,3.192c0.149-0.185,0.098-0.45,0.151-0.67C46.446,36.103,46.864,34.036,47.43,32.013z     M33.145,52.379c0.214,0.486,0.578,0.92,1.044,1.183c0.454,0.261,1.048,0.191,1.459-0.122c0.316-0.238,0.644-0.511,0.795-0.887    c-0.589,0.223-1.116,0.688-1.782,0.65C34.067,53.133,33.623,52.695,33.145,52.379z M35.926,59.862l-0.003,0.082    c0.324,0.003,0.647,0.011,0.971,0.005v-0.093C36.571,59.848,36.248,59.855,35.926,59.862z M37.821,59.915    c0.177,0.06,0.396,0.079,0.57,0.003C38.294,59.787,37.934,59.814,37.821,59.915z M36.896,60.283    c0.015,0.561-0.02,1.123,0.021,1.684c0.22-0.025,0.442-0.031,0.664-0.008c-0.003-0.528,0.058-1.071-0.034-1.59    C37.354,60.262,37.11,60.292,36.896,60.283z"/></g><path fill="#000000" d="M79.389,35.637c0.675-0.145,1.379-0.038,2.039,0.13c0.908,0.263,1.798,0.664,2.545,1.249   c-0.341,0.323-0.751,0.561-1.16,0.786c-0.825,0.439-1.712,0.805-2.651,0.88c-0.532,0.025-1.148-0.083-1.485-0.538   c-0.334-0.411-0.387-0.975-0.322-1.482C78.394,36.123,78.893,35.744,79.389,35.637z"/><path fill="#000000" d="M28.988,35.905c0.425-0.097,0.896-0.127,1.302,0.06c0.407,0.192,0.621,0.633,0.696,1.057   c0.079,0.452,0.064,0.973-0.25,1.338c-0.358,0.427-0.931,0.595-1.464,0.66c-1.206,0.109-2.416-0.154-3.546-0.558   c-0.065-0.046-0.243-0.056-0.208-0.169C26.419,37.198,27.608,36.288,28.988,35.905z"/><path fill="#000000" d="M33.788,37.21c0.744-0.486,1.577-0.907,2.478-0.971c0.577-0.056,1.214,0.188,1.5,0.714   c0.322,0.644,0.447,1.453,0.104,2.114c-0.394,0.66-1.186,0.92-1.907,1.014c-0.791,0.08-1.595,0.063-2.375-0.093   c-0.722-0.124-1.442-0.281-2.118-0.572C32.087,38.539,32.899,37.807,33.788,37.21z"/><path fill="#000000" d="M71.253,36.855c0.569-0.398,1.332-0.298,1.959-0.104c1.451,0.5,2.689,1.494,3.671,2.655   c0.1,0.126,0.249,0.248,0.223,0.427c-0.982,0.286-1.978,0.553-3.002,0.628c-0.884,0.035-1.821,0.043-2.626-0.376   c-0.515-0.252-0.923-0.773-0.932-1.36C70.513,38.051,70.684,37.28,71.253,36.855z"/><path fill="#000000" d="M38.782,40.429c0.555-0.203,1.233-0.054,1.62,0.402c0.36,0.434,0.689,0.956,0.672,1.542   c0.026,0.625-0.411,1.155-0.893,1.501c-0.648,0.476-1.422,0.739-2.193,0.94c-0.915,0.219-1.855,0.357-2.797,0.315   c0.307-1.252,0.985-2.391,1.804-3.376C37.485,41.192,38.07,40.682,38.782,40.429z"/><path fill="#000000" d="M32.846,41.188c0.443-0.147,1.009-0.137,1.335,0.244c0.307,0.393,0.451,0.93,0.334,1.42   c-0.146,0.503-0.645,0.784-1.118,0.921c-1.103,0.29-2.257,0.134-3.358-0.089c0.077-0.311,0.304-0.556,0.495-0.803   C31.171,42.165,31.915,41.484,32.846,41.188z"/><path fill="#000000" d="M70.754,41.792c0.518-0.359,1.201-0.247,1.761-0.056c1.297,0.515,2.357,1.495,3.205,2.583   c0.223,0.319,0.488,0.62,0.623,0.989c-1.063,0.316-2.194,0.368-3.297,0.32c-0.907-0.093-1.893-0.227-2.599-0.857   c-0.481-0.414-0.622-1.105-0.464-1.703C70.12,42.589,70.317,42.076,70.754,41.792z"/><path fill="#000000" d="M77.388,42.727c0.225-0.315,0.616-0.455,0.989-0.479c1.028-0.086,2.023,0.3,2.919,0.767   c0.224,0.146,0.511,0.251,0.642,0.497c-0.723,0.485-1.484,0.938-2.329,1.173c-0.524,0.167-1.112,0.251-1.643,0.063   c-0.436-0.15-0.699-0.59-0.748-1.031C77.186,43.384,77.164,43.002,77.388,42.727z"/><path fill="#000000" d="M24.229,42.913c0.378-0.044,0.759-0.106,1.142-0.089c-0.026,2.524-0.005,5.05-0.009,7.574   c-0.004,0.409-0.221,0.798-0.547,1.04c-0.822,0.631-2.133,0.561-2.836-0.22c-0.455-0.489-0.376-1.351,0.147-1.76   c0.59-0.535,1.456-0.56,2.193-0.379c0.041-1.347,0.038-2.696-0.001-4.043c-1.744,0.165-3.481,0.408-5.222,0.594   c-0.048,1.887,0.017,3.78-0.025,5.669c-0.046,0.568-0.533,0.996-1.038,1.19c-0.769,0.271-1.725,0.149-2.301-0.462   c-0.394-0.41-0.467-1.119-0.099-1.568c0.452-0.603,1.278-0.807,1.994-0.686c0.145,0.01,0.299,0.086,0.441,0.023   c-0.02-2.06-0.009-4.121,0.016-6.181C20.132,43.372,22.18,43.139,24.229,42.913z"/><path fill="#000000" d="M42.142,44.406c0.346-0.51,0.819-1.03,1.466-1.107c0.601-0.08,1.115,0.363,1.461,0.805   c0.377,0.481,0.401,1.181,0.06,1.688c-0.577,0.897-1.544,1.444-2.488,1.883c-0.504,0.205-1.007,0.438-1.547,0.527l-0.08-0.027   C41.071,46.855,41.431,45.527,42.142,44.406z"/><path fill="#000000" d="M64.248,44.929c0.225-0.451,0.67-0.821,1.188-0.841c0.792-0.061,1.516,0.354,2.145,0.79   c0.956,0.703,1.743,1.623,2.362,2.632c0.112,0.202,0.245,0.398,0.302,0.625c-1.516,0.217-3.098,0.278-4.578-0.171   c-0.616-0.2-1.257-0.529-1.574-1.123C63.775,46.234,63.947,45.505,64.248,44.929z"/><path fill="#000000" d="M25.521,59.306c0.173-0.185,0.459-0.151,0.689-0.205c1.294-0.106,2.627-0.062,3.866,0.355   c0.651,0.228,1.317,0.547,1.722,1.128c0.357,0.512,0.283,1.218-0.034,1.731c-0.29,0.527-0.756,1.021-1.377,1.115   c-0.734,0.104-1.439-0.246-2.02-0.663C27.149,61.87,26.257,60.61,25.521,59.306z"/><path fill="#000000" d="M23.787,64.338c1.019-0.616,2.178-1.104,3.39-1.062c0.483,0.02,1.04,0.189,1.259,0.663   c0.172,0.416,0.086,0.893-0.078,1.297c-0.219,0.478-0.772,0.706-1.276,0.658c-1.021-0.057-1.953-0.557-2.797-1.099   C24.105,64.661,23.879,64.554,23.787,64.338z"/><path fill="#000000" d="M29.577,65.738c0.531-0.35,1.183-0.659,1.833-0.492c0.442,0.107,0.721,0.514,0.882,0.913   c0.22,0.489,0.23,1.119-0.125,1.55c-0.341,0.415-0.857,0.633-1.359,0.782c-1.181,0.32-2.425,0.271-3.625,0.105   C27.705,67.454,28.548,66.458,29.577,65.738z"/><path fill="#000000" d="M33.201,67.742c0.111-0.596,0.615-1.069,1.212-1.158c0.619-0.088,1.322-0.063,1.829,0.349   c0.557,0.466,0.689,1.244,0.67,1.933c-0.07,1.56-0.663,3.05-1.451,4.38c-0.673-0.626-1.177-1.424-1.596-2.239   C33.391,69.998,32.974,68.871,33.201,67.742z"/><path fill="#000000" d="M30.315,69.688c0.275-0.443,0.757-0.868,1.318-0.758c0.646,0.151,1.273,0.748,1.192,1.456   c-0.088,0.628-0.555,1.114-1.021,1.506c-0.665,0.537-1.422,0.959-2.23,1.239C29.475,71.946,29.698,70.713,30.315,69.688z"/></g></svg>