<svg xmlns="http://www.w3.org/2000/svg" xmlns:xlink="http://www.w3.org/1999/xlink" version="1.1" x="0px" y="0px" viewBox="0 0 400 400" enable-background="new 0 0 400 400" xml:space="preserve"><g><path d="M195.305,143.646c-33.312,0-60.316,27.004-60.316,60.316s27.005,60.316,60.316,60.316   c33.311,0,60.316-27.005,60.316-60.316C255.621,170.65,228.617,143.646,195.305,143.646z M195.305,244.278   c-22.23,0-40.316-18.086-40.316-40.316c0-22.23,18.086-40.316,40.316-40.316c22.23,0,40.316,18.086,40.316,40.316   C235.621,226.193,217.536,244.278,195.305,244.278z"/><path d="M304.047,81.273c-1.324,0-2.646,0.028-3.967,0.083C289.774,39.65,252.038,8.634,207.195,8.634   c-21.792,0-43.116,7.528-60.042,21.198c-10.56,8.529-19.165,19.23-25.259,31.216c-8.373-2.347-17.066-3.555-25.819-3.555   c-52.75,0-95.665,42.915-95.665,95.665c0,22.822,8.172,44.922,23.012,62.227c6.229,7.264,13.466,13.502,21.43,18.554   c-13.979,16.846-21.959,38.278-21.959,61.037c0,52.75,42.915,95.665,95.665,95.665c27.029,0,52.087-11.259,69.828-30.215   c17.742,18.957,42.8,30.215,69.828,30.215c52.75,0,95.666-42.915,95.666-95.665c0-11.428-2-22.584-5.878-33.083   c11.474-5.95,21.741-14.211,30.032-24.315c13.979-17.036,21.678-38.572,21.678-60.641   C399.713,124.188,356.797,81.273,304.047,81.273z M319.744,250.964c8.888,12.403,14.137,27.591,14.137,44.013   c0,41.789-33.877,75.665-75.666,75.665c-31.447,0-58.407-19.187-69.828-46.49c-11.421,27.303-38.382,46.49-69.828,46.49   c-41.789,0-75.665-33.877-75.665-75.665c0-29.228,16.583-54.568,40.844-67.171c-35.918-5.893-63.327-37.063-63.327-74.648   c0-41.789,33.876-75.665,75.665-75.665c13.599,0,26.349,3.606,37.378,9.886c7.688-33.638,37.843-58.745,73.812-58.745   C249.054,28.634,283,62.511,283,104.3c0,0.001,0,0.001,0,0.002c7-1.958,13.759-3.029,21.117-3.029   c41.789,0,75.631,33.877,75.631,75.666C379.747,213.344,353.998,243.735,319.744,250.964z"/></g></svg>