<svg xmlns="http://www.w3.org/2000/svg" xmlns:xlink="http://www.w3.org/1999/xlink" version="1.1" x="0px" y="0px" viewBox="0 0 100 100" enable-background="new 0 0 100 100" xml:space="preserve"><g><g><path d="M83.1,41.5c-2.8-0.4-6.4-0.5-9.9-0.7c-0.4,0-0.7,0-1.1,0c0.4-0.4,0.7-0.8,1-1.1c2.3-2.5,4.7-5.1,6.4-7.3    c4.2-5.4,4.6-9.8,1.3-13.1c-1.4-1.4-3.3-2.2-5.3-2.2c-4.2,0-7.6,3-15.1,9.8c-0.3,0.3-0.7,0.6-1.1,1c0-0.4,0-0.8,0-1.1    c-0.2-3.5-0.3-7.1-0.7-9.9C57.4,8.3,53.3,6.5,50,6.5c-6,0-7.9,5.6-8.5,10.3c-0.4,2.8-0.5,6.4-0.7,9.9c0,0.4,0,0.7,0,1.1    c-0.4-0.4-0.8-0.7-1.1-1c-7.4-6.8-10.9-9.8-15.1-9.8c-2,0-3.9,0.8-5.3,2.2c-3.4,3.4-2.9,7.8,1.3,13.1c1.7,2.2,4.1,4.8,6.4,7.3    c0.3,0.3,0.6,0.7,1,1.1c-0.4,0-0.8,0-1.1,0c-3.5,0.2-7.1,0.3-9.9,0.7C8.3,42.6,6.5,46.7,6.5,50c0,6,5.6,7.9,10.3,8.5    c2.8,0.4,6.4,0.5,9.9,0.7c0.4,0,0.7,0,1.1,0c-0.4,0.4-0.7,0.8-1,1.1c-2.3,2.5-4.7,5.1-6.4,7.3c-4.2,5.4-4.6,9.8-1.3,13.1    c1.4,1.4,3.3,2.2,5.3,2.2c4.2,0,7.6-3,15.1-9.8c0.3-0.3,0.7-0.6,1.1-1c0,0.4,0,0.8,0,1.1c0.2,3.5,0.3,7.1,0.7,9.9    c1.1,8.5,5.2,10.3,8.5,10.3c6,0,7.9-5.6,8.5-10.3c0.4-2.8,0.5-6.4,0.7-9.9c0-0.4,0-0.7,0-1.1c0.4,0.4,0.8,0.7,1.1,1    c7.4,6.8,10.9,9.8,15.1,9.8c0,0,0,0,0,0c2,0,3.9-0.8,5.3-2.2c3.4-3.4,2.9-7.8-1.3-13.1c-1.7-2.2-4.1-4.8-6.4-7.3    c-0.3-0.3-0.6-0.7-1-1.1c0.4,0,0.8,0,1.1,0c3.5-0.2,7.1-0.3,9.9-0.7c8.5-1.1,10.3-5.2,10.3-8.5C93.5,44,87.8,42.1,83.1,41.5z     M49.4,65c-8.3,0-15-6.7-15-15s6.7-15,15-15s15,6.7,15,15S57.7,65,49.4,65z"/></g></g></svg>