<svg xmlns="http://www.w3.org/2000/svg" xmlns:xlink="http://www.w3.org/1999/xlink" version="1.1" x="0px" y="0px" viewBox="0 0 100 100" enable-background="new 0 0 100 100" xml:space="preserve"><path fill="#000000" d="M30.441,13.998c-2.204-0.792-2.903-2.624-3.722-4.507c-0.912,1.531-0.492,2.83,0.546,3.702  c2.077,1.778,2.989,3.968,3.295,6.604c0.353,3.169,2.604,5.16,4.947,6.984c1.818,1.425,3.775,2.663,5.466,4.215  c1.231,1.125,2.124,2.609,3.169,3.955c-0.126,0.213-0.246,0.433-0.359,0.646c-4.268-0.293-8.509-0.566-12.776-0.906  c-0.586-0.046-1.192-0.399-1.765-0.659c-3.375-1.531-3.968-2.83-2.989-6.405c0.333-1.278,0.506-2.597,0.752-3.901  c-0.173-0.04-0.36-0.087-0.54-0.133c-0.806,1.771-1.624,3.548-2.596,5.746c-0.666-1.917-1.178-3.542-1.797-5.146  c-0.513-1.365-1.239-2.543-2.624-2.417c0.819,2.35,1.751,4.64,2.43,7.01c0.886,3.123,2.996,5.1,5.679,6.605  c1.192,0.672,2.464,1.225,3.908,1.937c-2.303,1.418-4.467,2.81-6.704,4.055c-2.836,1.578-6.418,1.285-8.375-1.118  c-0.506-0.619-1.511-0.832-2.676-1.438c1.984,3.842,6.172,5.506,10.898,4.761c-0.286,3.242-1.604,4.96-4.5,5.846  c1.431,0.925,3.508,0.272,4.767-1.531c0.419-0.606,0.812-1.299,0.992-2.004c0.879-3.502,3.335-5.473,6.538-6.518  c2.17-0.719,4.461-1.271,6.724-1.444c4.954-0.413,8.762,4.127,8.023,9.287c-0.54,3.749-1.112,7.511-1.651,11.266  c-0.866,6.092-0.806,12.15,0.519,18.195c1.166,5.366,0.08,6.978-5.226,8.196c-3.396,0.778-6.385,2.097-8.556,5.046  c-0.732,0.992-2.13,1.531-3.156,2.224c1.232,0.879,2.876,0.766,4.388-0.599c0.866-0.766,1.525-1.737,2.397-2.483  c0.686-0.626,1.538-1.052,2.323-1.559c0.16,0.094,0.333,0.193,0.5,0.28c-0.08,1.444-0.16,2.89-0.24,4.4  c1.338,0.073,1.584-1.145,1.571-2.177c-0.02-1.751,0.852-2.463,2.384-3.022c2.19-0.806,4.28-1.884,6.551-2.916  c-1.571,5.246,1.556,8.989,2.834,13.71c1.737-2.563,0.772-4.646-0.013-6.531c2.201,0.247,3.6,0.773,5.781,1.133  c-0.074-1.079-1.023-2.056-2.142-1.883c0,0-1.067-0.142-1.669-0.196c-1.971-0.179-2.721-1.752-1.876-4.535  c0.206-0.632,0.473-1.251,0.779-2.07c3.116,3.036,6.878,4.36,10.745,5.626c1.572,0.506,2.883,1.817,4.295,2.743  c0.699-1.245,0.612-1.731-1.045-3.003c-1.086-0.846-2.297-1.531-3.762-2.504c2.383-0.586,4.474-1.098,6.617-1.617  c-0.546-1.092-1.638-1.219-2.783-1.032c-1.025,0.16-2.03,0.466-3.035,0.732c-3.209,0.853-5.893-0.126-7.79-2.803  c-4.44-6.252-6.105-13.223-5.193-20.772c0.586-4.787,1.165-9.601,2.237-14.288c1.146-5.013,6.518-7.976,11.538-6.691  c2.67,0.679,4.288,2.537,5.393,5.113c0.593,1.365,1.871,2.53,3.062,3.496c0.739,0.599,1.878,0.586,2.437-0.646  c-2.709-0.752-3.322-1.365-3.628-3.562c1.665,0,3.355,0.026,5.033-0.007c0.573-0.013,1.151-0.166,1.678-0.373  c2.024-0.806,3.802-0.719,5.253,1.178c0.313,0.433,0.952,0.633,1.451,0.939c0.141-0.167,0.3-0.333,0.453-0.493  c-1.065-1.258-2.117-2.517-3.282-3.915c2.276-1.245,4.554-2.703,7.503-1.238c0.187-1.811-1.258-2.097-2.184-1.971  c-2.243,0.319-4.7,0.573-6.545,1.705c-3.521,2.137-6.811,2.164-10.286,0.346c-2.077-1.072-4.081-2.317-6.205-3.529  c0.966-1.238,1.784-2.556,2.89-3.608c0.779-0.746,1.885-1.492,2.916-1.598c2.271-0.246,4.521-1.312,6.932-0.413  c0.572,0.22,1.497-0.473,2.243-0.752c-0.054-0.173-0.1-0.353-0.146-0.52c-0.972,0-1.944,0-2.816,0  c1.345-1.438,2.649-2.816,3.955-4.201c-0.14-0.18-0.28-0.366-0.413-0.559c-0.686,0.379-1.604,0.586-2.037,1.151  c-2.257,2.97-5.459,3.27-9.194,3.536c0.612-1.858,1.032-3.489,1.697-5.027c0.52-1.271,1.751-1.271,2.95-1.238  c0.892,0.026,1.783-0.173,2.669-0.267c-0.013-0.159-0.026-0.339-0.033-0.506c-1.185-0.306-2.356-0.626-3.562-0.932  c2.416-3.849,6.797-1.891,10.273-3.409c-3.369-1.165-6.412-1.498-9.108,0.373c-1.558,1.078-2.956,2.55-3.995,4.128  c-1.064,1.598-1.711,3.502-2.35,5.346c-1.531,4.421-4.787,6.831-9.049,8.183c-1.844,0.593-3.642,1.318-5.625,2.024  c0.553-0.899,1.071-1.885,1.697-2.79c2.989-4.447,4.447-9.274,4.048-14.667c-0.106-1.292,0.214-2.644,0.553-3.901  c0.453-1.685,1.618-2.55,3.462-2.49c0.6,0.014,1.212-0.273,1.831-0.419c-0.046-0.173-0.08-0.353-0.12-0.54  c-0.665-0.06-1.338-0.126-2.257-0.206c1.445-1.944,3.383-2.077,5.427-1.931c0.06-0.16,0.126-0.313,0.186-0.479  c-0.578-0.326-1.125-0.825-1.717-0.912c-1.864-0.273-3.416,0.546-4.681,1.791c-1.345,1.332-2.544,2.803-3.849,4.281  c-0.726-1.578-1.504-3.163-2.21-4.801c-1.085-2.543-0.433-4.94,0.692-7.31c0.1-0.193,0.193-0.346,0.307-0.453  c-0.413-0.08-0.84-0.133-1.239-0.207c-0.632,1.891-1.371,3.628-1.651,5.446c-0.18,1.152,0.254,2.517,0.766,3.629  c2.151,4.714,2.757,9.321,1.745,14.554c-3.782-3.216-4.9-6.744-3.355-10.486c-1.332,0.359-2.044,1.192-2.317,2.849  c-0.286,1.711-0.12,3.336,0.992,4.768c0.34,0.459,0.68,0.932,1.032,1.371c2.929,3.615,2.836,4.728-0.253,8.296  c-1.079,1.258-1.805,2.816-2.87,4.541c-1.325-2.889-2.942-5.812-3.981-8.915c-0.406-1.259,0.479-2.93,0.759-4.381  c-1.292-0.054-1.717,0.386-2.823,3.289c-1.698-1.159-3.442-2.204-5.066-3.442c-1.558-1.191-1.958-2.876-0.659-4.395  c1.491-1.757,3.469-3.122,5.279-4.6c1.039-0.833,2.257-1.492,2.024-3.109c-0.04-0.333-0.24-0.632-0.586-1.511  c-0.273,3.003-2.543,3.389-4.182,4.434c-2.45,1.551-4.414,3.489-5.299,6.518c-2.53-2.437-3.042-5.267-2.57-8.349  c0.233-1.485,0.759-2.93,0.892-4.401c0.106-1.211-0.113-2.45-0.213-3.955c-0.326,0.107-0.639,0.213-0.938,0.313  C32.571,9.051,31.193,11.374,30.441,13.998z"/></svg>