<svg xmlns="http://www.w3.org/2000/svg" xmlns:xlink="http://www.w3.org/1999/xlink" version="1.1" x="0px" y="0px" viewBox="0 0 100 100" enable-background="new 0 0 100 100" xml:space="preserve"><path d="M100.02,75.49c0,1.3-0.039,7.51-0.039,9.84c0,8.09-6.551,14.64-14.631,14.64H81.41L78.58,100h-6.85l-2.811-0.03H64.98  c-8.091,0-14.641-6.55-14.641-14.64c0-2.33-0.03-8.54-0.03-9.84c0-1.32,1.05-1.721,1.94-0.73c0.43,0.49,7.2,7.38,12.11,12.391  l1.939,1.97l5.431,5.39V61.57c0-2.92-0.65-5.69-1.79-8.181c-3.101-6.77-9.931-11.47-17.86-11.47c-3.75,0-7.29,1.08-10.27,2.92  c-0.74,0.43-1.42,0.92-2.09,1.47l0.24,0.25c-0.3,0.31-0.36,0.68,0,1.05c0.5,0.55,0.96,1.13,1.33,1.75  c4.12,6.52,2.33,16.91-3.6,22.35c-0.52,0.46-1.02,0.93-1.54,1.33c-1.88,1.56-3.72,2.79-5.69,3.84c-2.49,1.32-5.22,2.37-8.45,3.29  c-0.86,0.25-1.23,0.49-1.97-0.34c-0.37-0.4-0.52-0.89-0.37-1.35c0.46-1.48,3.01-9.591,3.17-10.12c0.18-0.65-0.25-1.2-0.95-1.011  c-0.53,0.15-8.8,1.971-10.34,2.311c-0.46,0.12-0.95-0.101-1.32-0.5c-0.34-0.37-0.49-0.86-0.34-1.32c0.43-1.51,2.95-9.59,3.14-10.12  c0.28-0.67-0.28-1.17-0.92-1.01c-0.53,0.12-8.8,1.97-10.33,2.271C1.31,59.14,0.79,58.89,0.45,58.52c-0.73-0.8-0.46-1.13-0.15-2  c2.4-6.27,4.95-10.51,9.72-14.879c3.9-3.57,9.71-5.2,15-4.61c3.57,0.4,6.89,1.84,9.22,4.37c0.13,0.15,0.25,0.21,0.37,0.24  c0.1,0.03,0.19,0.06,0.28,0c0.19,0,0.37-0.09,0.52-0.24l2.19-2c4.15-2.74,9.13-4.34,14.48-4.34h0.37  c13.99,0.19,25.33,11.22,26.1,25.06c0.03,0.46,0.03,0.96,0.03,1.45v32.96l5.45-5.41l1.93-1.97c4.92-5.011,11.69-11.9,12.12-12.391  C98.97,73.77,100.02,74.17,100.02,75.49z"/></svg>