<svg xmlns="http://www.w3.org/2000/svg" xmlns:xlink="http://www.w3.org/1999/xlink" version="1.1" x="0px" y="0px" viewBox="0 0 100 100" enable-background="new 0 0 100 100" xml:space="preserve"><g><g><path fill="#000000" d="M14.493,62.394c-4.58,23.793,24.231,25.166,25.5,24.416C39.186,59.519,16.271,60.824,14.493,62.394z"/><path fill="#000000" d="M69.107,24.202c-1.269-0.991-10.837,8.559-11.482,8.551c-0.642-0.008-5.759-13.078-6.889-13.146    c-1.138-0.075-5.89,12.996-6.386,13.146c-0.495,0.135-10.597-9.79-11.482-9.316c-0.838,0.435-5.529,33.146,14.017,37.125v31.285    c0,3.318,1.647,6.006,3.679,6.006h0.612c2.03,0,3.682-2.688,3.682-6.006V60.374C61.341,58.64,73.249,51.74,69.107,24.202z"/><path fill="#000000" d="M62.621,78.686c1.577,1.403,21.942,2.561,22.662-21.697C84.154,56.327,58.549,57.552,62.621,78.686z"/></g><g><path fill="#000000" d="M44.389,16.221c0,1.847-1.523,3.334-3.4,3.334c-1.881,0-3.405-1.487-3.405-3.334    c0-1.839,1.524-3.333,3.405-3.333C42.865,12.888,44.389,14.382,44.389,16.221z"/><path fill="#000000" d="M63.732,16.221c0,1.847-1.524,3.334-3.405,3.334c-1.876,0-3.4-1.487-3.4-3.334    c0-1.839,1.524-3.333,3.4-3.333C62.208,12.888,63.732,14.382,63.732,16.221z"/><path fill="#000000" d="M54.273,6.333c0,1.848-1.524,3.334-3.405,3.334c-1.877,0-3.401-1.486-3.401-3.334    C47.467,4.494,48.991,3,50.868,3C52.749,3,54.273,4.494,54.273,6.333z"/></g></g></svg>