<?xml version="1.0" encoding="utf-8"?>
<!-- Generator: Adobe Illustrator 16.0.0, SVG Export Plug-In . SVG Version: 6.00 Build 0)  -->
<!DOCTYPE svg PUBLIC "-//W3C//DTD SVG 1.1//EN" "http://www.w3.org/Graphics/SVG/1.1/DTD/svg11.dtd">
<svg version="1.1" id="Layer_1" xmlns="http://www.w3.org/2000/svg" xmlns:xlink="http://www.w3.org/1999/xlink" x="0px" y="0px"
	 width="670.784px" height="102.355px" viewBox="-19.499 329.055 670.784 102.355"
	 enable-background="new -19.499 329.055 670.784 102.355" xml:space="preserve">
<g>
	<g>
		<g>
			<g>
				<g>
					<g>
						<g>
							<defs>
								<rect id="SVGID_1_" x="203.16" y="329.055" width="448.125" height="102.354"/>
							</defs>
							<clipPath id="SVGID_2_">
								<use xlink:href="#SVGID_1_"  overflow="visible"/>
							</clipPath>
							<path clip-path="url(#SVGID_2_)" fill="#fff" d="M334.517,364.133l1.919-4.265c2.133-4.905,3.198-7.89,3.625-10.875h-5.33
								v-19.085h-8.851l0.106,20.896l0.213,19.725l-9.702-40.621h-17.059v100.649h14.5l-0.214-29.215l-0.213-26.44l10.662,55.548
								h16.206v-64.718L334.517,364.133z"/>
						</g>
					</g>
				</g>
			</g>
		</g>
	</g>
	<g>
		<g>
			<g>
				<g>
					<g>
						<g>
							<defs>
								<rect id="SVGID_3_" x="203.16" y="329.055" width="448.125" height="102.354"/>
							</defs>
							<clipPath id="SVGID_4_">
								<use xlink:href="#SVGID_3_"  overflow="visible"/>
							</clipPath>
							<path clip-path="url(#SVGID_4_)" fill="#fff" d="M377.164,378.314L362.77,365.52c-2.024-1.705-2.879-3.306-2.879-6.504
								v-9.488c0-2.452,0.96-3.625,2.984-3.625h1.279c2.025,0,2.984,1.173,2.984,3.625v12.58h16.42v-14.394
								c0-12.476-5.117-18.659-15.565-18.659h-9.062c-4.053,0-7.251,0.959-9.811,2.879v10.982c0,8.316-0.746,10.662-5.438,17.699
								l-0.319,0.533v2.666c0,7.144,1.6,11.407,6.717,15.779l14.395,12.794c2.024,1.706,2.879,3.306,2.879,6.503v12.049
								c0,2.452-0.96,3.625-2.984,3.625h-1.601c-2.024,0-2.984-1.173-2.984-3.625v-15.567h-16.419v17.379
								c0,12.476,5.118,18.658,15.566,18.658h9.274c10.449,0,15.565-6.185,15.565-18.658V394.2
								C383.774,386.736,382.282,382.792,377.164,378.314"/>
						</g>
					</g>
				</g>
			</g>
		</g>
	</g>
	<g>
		<g>
			<g>
				<g>
					<g>
						<g>
							<defs>
								<rect id="SVGID_5_" x="203.16" y="329.055" width="448.125" height="102.354"/>
							</defs>
							<clipPath id="SVGID_6_">
								<use xlink:href="#SVGID_5_"  overflow="visible"/>
							</clipPath>
							<rect x="430.048" y="329.908" clip-path="url(#SVGID_6_)" fill="#fff" width="16.739" height="100.649"/>
						</g>
					</g>
				</g>
			</g>
		</g>
	</g>
	<g>
		<g>
			<g>
				<g>
					<g>
						<g>
							<defs>
								<rect id="SVGID_7_" x="203.16" y="329.055" width="448.125" height="102.354"/>
							</defs>
							<clipPath id="SVGID_8_">
								<use xlink:href="#SVGID_7_"  overflow="visible"/>
							</clipPath>
							<polygon clip-path="url(#SVGID_8_)" fill="#fff" points="281.845,386.843 295.6,386.843 295.6,368.825 281.845,368.825 
								281.845,347.927 296.133,347.927 296.133,329.908 265.106,329.908 265.106,430.558 296.452,430.558 296.452,412.538 
								281.845,412.538 							"/>
						</g>
					</g>
				</g>
			</g>
		</g>
	</g>
	<g>
		<g>
			<g>
				<g>
					<g>
						<g>
							<defs>
								<rect id="SVGID_9_" x="203.16" y="329.055" width="448.125" height="102.354"/>
							</defs>
							<clipPath id="SVGID_10_">
								<use xlink:href="#SVGID_9_"  overflow="visible"/>
							</clipPath>
							<polygon clip-path="url(#SVGID_10_)" fill="#fff" points="232.054,371.917 227.256,329.908 203.16,329.908 
								203.16,430.558 216.594,430.558 216.594,370.85 222.885,430.558 238.664,430.558 244.955,371.598 244.955,430.558 
								261.481,430.558 261.481,329.908 237.279,329.908 							"/>
						</g>
					</g>
				</g>
			</g>
		</g>
	</g>
	<g>
		<g>
			<g>
				<g>
					<g>
						<g>
							<defs>
								<rect id="SVGID_11_" x="203.16" y="329.055" width="448.125" height="102.354"/>
							</defs>
							<clipPath id="SVGID_12_">
								<use xlink:href="#SVGID_11_"  overflow="visible"/>
							</clipPath>
							<polygon clip-path="url(#SVGID_12_)" fill="#fff" points="397.209,430.558 413.948,430.558 413.948,387.803 
								427.062,387.803 427.062,369.891 413.948,369.891 413.948,347.927 427.702,347.927 427.702,329.908 397.209,329.908 							
								"/>
						</g>
					</g>
				</g>
			</g>
		</g>
	</g>
	<g>
		<g>
			<g>
				<g>
					<g>
						<g>
							<defs>
								<rect id="SVGID_13_" x="203.16" y="329.055" width="448.125" height="102.354"/>
							</defs>
							<clipPath id="SVGID_14_">
								<use xlink:href="#SVGID_13_"  overflow="visible"/>
							</clipPath>
							<path clip-path="url(#SVGID_14_)" fill="#fff" d="M644.567,378.314l-14.396-12.795c-2.023-1.705-2.879-3.306-2.879-6.504
								v-9.488c0-2.452,0.96-3.625,2.985-3.625h1.279c2.024,0,2.984,1.173,2.984,3.625v12.58h16.419v-14.394
								c0-12.476-5.116-18.659-15.46-18.659h-9.062c-10.449,0-15.566,6.184-15.566,18.659v15.993c0,7.145,1.601,11.409,6.717,15.779
								l14.396,12.795c2.024,1.705,2.879,3.306,2.879,6.503v12.048c0,2.453-0.959,3.625-2.985,3.625h-1.599
								c-2.026,0-2.986-1.172-2.986-3.625v-15.459h-16.419v17.379c0,12.476,5.117,18.658,15.566,18.658h9.274
								c10.448,0,15.566-6.185,15.566-18.658V394.2C651.285,386.736,649.686,382.792,644.567,378.314"/>
						</g>
					</g>
				</g>
			</g>
		</g>
	</g>
	<g>
		<g>
			<g>
				<g>
					<g>
						<g>
							<defs>
								<rect id="SVGID_15_" x="203.16" y="329.055" width="448.125" height="102.354"/>
							</defs>
							<clipPath id="SVGID_16_">
								<use xlink:href="#SVGID_15_"  overflow="visible"/>
							</clipPath>
							<path clip-path="url(#SVGID_16_)" fill="#fff" d="M600.854,378.314l-14.395-12.795c-2.025-1.705-2.879-3.306-2.879-6.504
								v-9.488c0-2.452,0.96-3.625,2.984-3.625h1.278c2.026,0,2.985,1.173,2.985,3.625v12.58h16.42v-14.394
								c0-12.476-5.118-18.659-15.565-18.659h-9.062c-10.448,0-15.565,6.184-15.565,18.659v15.993
								c0,7.145,1.601,11.409,6.717,15.779l14.396,12.795c2.025,1.705,2.879,3.306,2.879,6.503v12.048
								c0,2.453-0.96,3.625-2.985,3.625h-1.6c-2.025,0-2.984-1.172-2.984-3.625v-15.459h-16.42v17.379
								c0,12.476,5.117,18.658,15.565,18.658h9.276c10.448,0,15.564-6.185,15.564-18.658V394.2
								C607.464,386.736,605.972,382.792,600.854,378.314"/>
						</g>
					</g>
				</g>
			</g>
		</g>
	</g>
	<g>
		<g>
			<g>
				<g>
					<g>
						<g>
							<defs>
								<rect id="SVGID_17_" x="203.16" y="329.055" width="448.125" height="102.354"/>
							</defs>
							<clipPath id="SVGID_18_">
								<use xlink:href="#SVGID_17_"  overflow="visible"/>
							</clipPath>
							<polygon clip-path="url(#SVGID_18_)" fill="#fff" points="515.344,350.807 515.558,370.529 505.854,329.908 
								488.796,329.908 488.796,430.558 503.296,430.558 502.977,401.343 502.763,377.354 513.425,430.558 529.631,430.558 
								529.631,329.908 515.237,329.908 							"/>
						</g>
					</g>
				</g>
			</g>
		</g>
	</g>
	<g>
		<g>
			<g>
				<g>
					<g>
						<g>
							<defs>
								<rect id="SVGID_19_" x="203.16" y="329.055" width="448.125" height="102.354"/>
							</defs>
							<clipPath id="SVGID_20_">
								<use xlink:href="#SVGID_19_"  overflow="visible"/>
							</clipPath>
							<polygon clip-path="url(#SVGID_20_)" fill="#fff" points="549.996,386.843 563.75,386.843 563.75,368.825 
								549.996,368.825 549.996,347.927 564.39,347.927 564.39,329.908 533.256,329.908 533.256,430.558 564.604,430.558 
								564.604,412.538 549.996,412.538 							"/>
						</g>
					</g>
				</g>
			</g>
		</g>
	</g>
	<g>
		<g>
			<g>
				<g>
					<g>
						<g>
							<defs>
								<rect id="SVGID_21_" x="203.16" y="329.055" width="448.125" height="102.354"/>
							</defs>
							<clipPath id="SVGID_22_">
								<use xlink:href="#SVGID_21_"  overflow="visible"/>
							</clipPath>
							<polygon clip-path="url(#SVGID_22_)" fill="#fff" points="449.347,347.927 459.476,347.927 459.476,430.558 
								476.215,430.558 476.215,347.927 486.344,347.927 486.344,329.908 449.347,329.908 							"/>
						</g>
					</g>
				</g>
			</g>
		</g>
	</g>
</g>
<g>
	<path fill="#fff" d="M647.873,363.979c0.427,0,0.96,0.107,1.386,0.32c0.428,0.213,0.854,0.641,1.066,1.066
		s0.427,0.959,0.427,1.386c0,0.533-0.105,0.959-0.427,1.386c-0.213,0.428-0.641,0.854-1.066,1.066s-0.959,0.426-1.386,0.426
		c-0.533,0-0.96-0.105-1.386-0.426c-0.428-0.213-0.854-0.641-1.066-1.066c-0.214-0.426-0.427-0.959-0.427-1.386
		c0-0.533,0.105-0.96,0.427-1.386c0.214-0.426,0.642-0.854,1.066-1.066S647.446,363.979,647.873,363.979z M647.873,364.407
		c-0.427,0-0.746,0.105-1.173,0.32c-0.427,0.213-0.641,0.532-0.854,0.853c-0.215,0.426-0.319,0.746-0.319,1.173
		c0,0.426,0.104,0.854,0.319,1.173c0.213,0.427,0.532,0.64,0.854,0.853c0.427,0.214,0.746,0.32,1.173,0.32s0.854-0.105,1.173-0.32
		c0.319-0.213,0.641-0.532,0.854-0.853c0.214-0.427,0.318-0.747,0.318-1.173c0-0.427-0.104-0.854-0.318-1.173
		c-0.214-0.32-0.533-0.64-0.854-0.853C648.726,364.513,648.3,364.407,647.873,364.407z M646.7,368.351v-3.092h1.065
		c0.318,0,0.641,0,0.745,0.105c0.214,0.106,0.32,0.106,0.429,0.32c0.104,0.106,0.104,0.32,0.104,0.426
		c0,0.213-0.104,0.428-0.213,0.533c-0.106,0.107-0.427,0.213-0.64,0.32c0.104,0,0.213,0.107,0.213,0.213
		c0.105,0.105,0.318,0.32,0.427,0.641l0.426,0.64h-0.64l-0.319-0.533c-0.214-0.427-0.427-0.64-0.532-0.747s-0.214-0.105-0.428-0.105
		h-0.318v1.279C647.127,368.351,646.7,368.351,646.7,368.351z M647.127,366.646h0.641c0.318,0,0.533,0,0.641-0.106
		c0.105-0.106,0.105-0.213,0.105-0.32c0-0.106,0-0.213-0.105-0.213c0-0.106-0.106-0.106-0.213-0.213c-0.107,0-0.214,0-0.533,0
		h-0.533L647.127,366.646L647.127,366.646z"/>
</g>
<path fill="#fff" d="M185.688,376.482c0.377,0,0.849,0.094,1.225,0.283c0.377,0.188,0.755,0.564,0.942,0.94
	c0.188,0.377,0.378,0.849,0.378,1.226c0,0.471-0.094,0.85-0.378,1.227c-0.188,0.377-0.566,0.755-0.942,0.941
	c-0.376,0.188-0.848,0.377-1.225,0.377c-0.471,0-0.849-0.094-1.225-0.377c-0.378-0.188-0.755-0.565-0.942-0.941
	c-0.19-0.377-0.378-0.848-0.378-1.227c0-0.471,0.094-0.849,0.378-1.226c0.188-0.377,0.565-0.755,0.942-0.94
	C184.84,376.577,185.312,376.482,185.688,376.482z M185.688,376.859c-0.377,0-0.659,0.094-1.037,0.281
	c-0.377,0.189-0.566,0.473-0.754,0.756c-0.189,0.377-0.283,0.658-0.283,1.037c0,0.377,0.094,0.754,0.283,1.037
	c0.188,0.377,0.472,0.564,0.754,0.754c0.378,0.188,0.66,0.281,1.037,0.281s0.754-0.093,1.037-0.281
	c0.282-0.188,0.565-0.472,0.754-0.754c0.189-0.379,0.283-0.66,0.283-1.037c0-0.379-0.094-0.754-0.283-1.037
	c-0.189-0.282-0.472-0.565-0.754-0.756C186.441,376.953,186.066,376.859,185.688,376.859z M184.651,380.346v-2.732h0.942
	c0.282,0,0.566,0,0.66,0.094c0.188,0.094,0.283,0.094,0.377,0.282c0.094,0.094,0.094,0.28,0.094,0.378
	c0,0.188-0.094,0.376-0.188,0.471c-0.095,0.094-0.377,0.188-0.565,0.281c0.094,0,0.188,0.095,0.188,0.189
	c0.094,0.094,0.282,0.281,0.377,0.564l0.377,0.566h-0.566l-0.282-0.472c-0.189-0.378-0.377-0.567-0.471-0.659
	c-0.094-0.095-0.188-0.095-0.377-0.095h-0.282v1.132C185.03,380.346,184.651,380.346,184.651,380.346z M185.03,378.838h0.565
	c0.282,0,0.471,0,0.566-0.095c0.094-0.095,0.094-0.188,0.094-0.281c0-0.095,0-0.188-0.094-0.188c0-0.094-0.094-0.094-0.188-0.189
	c-0.094,0-0.189,0-0.471,0h-0.471L185.03,378.838L185.03,378.838z"/>
<path fill="#fff" d="M-16.948,385.333v-8.06h-2.551v-1.431h6.938v1.431h-2.55v8.06H-16.948z"/>
<path fill="#fff" d="M-10.623,375.843h1.632v3.775c0.204-0.408,0.613-1.531,2.041-1.531c1.53,0,2.142,0.815,2.142,2.756v4.488
	H-6.44v-4.285c0-0.61,0-1.633-1.02-1.633c-0.51,0-1.123,0.308-1.326,0.815c-0.204,0.512-0.306,1.021-0.306,1.838v3.265h-1.53
	L-10.623,375.843L-10.623,375.843z"/>
<path fill="#fff" d="M4.069,383.292c-0.51,1.531-1.734,2.144-3.162,2.144c-2.347,0-3.265-1.836-3.265-3.674
	c0-2.039,1.224-3.673,3.265-3.673c2.245,0,3.265,1.837,3.162,3.877h-4.795c0,0.511,0,1.021,0.408,1.634
	c0.306,0.407,0.715,0.612,1.326,0.612c1.123,0,1.429-0.715,1.633-1.123L4.069,383.292z M2.539,380.945c0-0.307,0-0.715-0.307-1.122
	c-0.306-0.407-0.715-0.612-1.224-0.612c-0.51,0-1.02,0.203-1.225,0.715c-0.204,0.407-0.306,0.612-0.306,1.02H2.539L2.539,380.945z"
	/>
<path fill="#fff" d="M19.169,385.333h-1.53l-3.775-6.121c-0.103-0.204-0.409-0.918-0.51-1.021v7.142h-1.429v-9.489h1.939
	l3.367,5.612c0,0.101,0.306,0.51,0.612,1.122v-6.734h1.327L19.169,385.333L19.169,385.333z"/>
<path fill="#fff" d="M28.045,383.292c-0.51,1.531-1.734,2.144-3.163,2.144c-2.347,0-3.265-1.836-3.265-3.674
	c0-2.039,1.224-3.673,3.265-3.673c2.244,0,3.265,1.837,3.163,3.877H23.25c0,0.511,0,1.021,0.408,1.634
	c0.306,0.407,0.715,0.612,1.327,0.612c1.122,0,1.428-0.715,1.632-1.123L28.045,383.292z M26.515,380.945
	c0-0.307,0-0.715-0.306-1.122s-0.714-0.612-1.224-0.612c-0.51,0-1.021,0.203-1.225,0.715c-0.204,0.407-0.306,0.612-0.306,1.02
	H26.515L26.515,380.945z"/>
<path fill="#fff" d="M37.229,385.333H35.8l-1.224-4.897l-1.225,4.897h-1.427l-2.143-7.04h1.53l1.429,4.795l1.224-4.795h1.429
	l1.225,4.795l1.327-4.795h1.326L37.229,385.333z"/>
<path fill="#fff" d="M54.267,385.333v-8.366l-2.653,8.366h-0.917l-2.653-8.366v8.366h-1.428v-9.489h2.653l1.938,6.122
	l1.938-6.122h2.653v9.489H54.267z"/>
<path fill="#fff" d="M64.98,383.292c-0.51,1.531-1.734,2.144-3.163,2.144c-2.347,0-3.265-1.836-3.265-3.674
	c0-2.039,1.224-3.673,3.265-3.673c2.245,0,3.265,1.837,3.163,3.877h-4.795c0,0.511,0,1.021,0.409,1.634
	c0.306,0.407,0.714,0.612,1.326,0.612c1.122,0,1.429-0.715,1.633-1.123L64.98,383.292z M63.45,380.945c0-0.307,0-0.715-0.306-1.122
	c-0.306-0.306-0.715-0.612-1.224-0.612c-0.51,0-1.02,0.203-1.225,0.715c-0.204,0.407-0.307,0.612-0.307,1.02H63.45L63.45,380.945z"
	/>
<path fill="#fff" d="M73.346,383.906c0,0.713,0.102,1.223,0.204,1.428h-1.429c-0.204-0.611-0.204-0.816-0.306-1.428
	c-0.204,0.51-0.714,1.529-2.347,1.529c-1.53,0-2.347-1.021-2.347-2.144c0-2.347,3.163-2.449,4.693-2.449v-0.51
	c0-0.918-0.816-1.122-1.53-1.122c-1.429,0-1.53,0.814-1.633,1.122l-1.326-0.203c0.306-1.633,1.734-2.041,3.163-2.041
	c0.816,0,1.633,0.103,2.143,0.511c0.714,0.612,0.714,1.225,0.714,2.041L73.346,383.906L73.346,383.906z M71.815,381.761
	c-1.021,0-1.633,0.103-1.939,0.204s-1.122,0.307-1.122,1.225c0,0.307,0.102,1.021,1.224,1.021c1.53,0,1.836-1.327,1.836-1.837
	L71.815,381.761L71.815,381.761z"/>
<path fill="#fff" d="M76.917,383.395c0.103,0.307,0.409,0.815,1.531,0.815c0.307,0,1.53,0,1.53-0.919
	c0-0.407-0.51-0.611-0.816-0.714l-1.326-0.308c-0.714-0.101-2.143-0.406-2.143-2.039c0-0.715,0.408-2.246,2.653-2.246
	c0.816,0,2.245,0.205,2.755,1.634l-1.429,0.307c-0.102-0.204-0.306-0.815-1.224-0.815c-0.918,0-1.225,0.307-1.225,0.815
	c0,0.407,0.409,0.612,1.02,0.714l1.53,0.307c1.123,0.205,1.734,0.919,1.734,2.041c0,1.938-2.143,2.347-3.061,2.347
	c-1.632,0-2.755-0.715-2.958-1.733L76.917,383.395z"/>
<path fill="#fff" d="M89.568,385.333h-1.531v-1.531c-0.101,0.409-0.306,0.716-0.713,1.123c-0.204,0.204-0.715,0.511-1.429,0.511
	c-0.613,0-1.327-0.205-1.734-0.816c-0.306-0.407-0.409-0.715-0.409-1.43v-4.896h1.633v4.489c0,0.714,0.204,1.325,1.02,1.325
	c0.51,0,1.123-0.407,1.429-1.021c0.204-0.407,0.204-0.815,0.204-1.429v-3.367h1.633C89.568,378.292,89.568,385.333,89.568,385.333z"
	/>
<path fill="#fff" d="M92.527,378.292h1.428v1.733c0.204-0.51,0.613-1.938,2.143-1.836v1.733c-0.409,0-0.918,0-1.429,0.612
	c-0.306,0.307-0.51,1.02-0.51,2.143v2.652h-1.632V378.292L92.527,378.292z"/>
<path fill="#fff" d="M104.158,383.292c-0.51,1.531-1.734,2.144-3.163,2.144c-2.347,0-3.265-1.836-3.265-3.674
	c0-2.039,1.225-3.673,3.265-3.673c2.245,0,3.265,1.837,3.163,3.877h-4.795c0,0.511,0,1.021,0.408,1.634
	c0.306,0.407,0.715,0.612,1.326,0.612c1.123,0,1.429-0.715,1.633-1.123L104.158,383.292z M102.627,380.945
	c0-0.307,0-0.715-0.306-1.122c-0.307-0.407-0.714-0.612-1.224-0.612c-0.51,0-1.02,0.203-1.224,0.715
	c-0.204,0.407-0.306,0.612-0.306,1.02H102.627L102.627,380.945z"/>
<path fill="#fff" d="M114.742,379.314c0.409,0.713,0.612,1.326,0.612,2.244c0,2.246-1.429,3.773-3.469,3.773
	c-1.122,0-2.041-0.407-2.551-1.326c-0.51-0.714-0.714-1.529-0.714-2.447c0-2.246,1.429-3.775,3.367-3.775
	C113.212,377.885,114.028,378.293,114.742,379.314z M110.253,381.661c0,1.53,0.612,2.448,1.632,2.448
	c1.02,0,1.633-0.918,1.633-2.448c0-1.531-0.613-2.347-1.633-2.347C110.866,379.211,110.253,380.027,110.253,381.661z"/>
<path fill="#fff" d="M117.599,385.23v-6.02h-1.122v-1.327h1.122c0-1.122,0.103-1.632,0.51-2.04
	c0.408-0.511,1.02-0.611,2.04-0.611c0.204,0,0.307,0,0.613,0v1.326c-0.204,0-0.306,0-0.408,0c-0.51,0-0.816,0.102-1.021,0.307
	c-0.101,0.203-0.204,0.305-0.204,1.121h1.734v1.326h-1.632v5.918H117.599L117.599,385.23z"/>
<path fill="#fff" d="M127.7,382.477c0.102,0.508,0.306,0.713,0.51,0.918c0.408,0.307,1.123,0.51,1.836,0.51
	c1.224,0,1.938-0.51,1.938-1.43c0-0.611-0.408-1.019-1.225-1.224l-1.837-0.51c-1.02-0.306-1.53-0.511-1.836-1.021
	c-0.409-0.51-0.612-1.02-0.612-1.732c0-1.734,1.428-2.961,3.469-2.961c1.02,0,2.04,0.307,2.754,0.818
	c0.409,0.305,0.612,0.611,0.816,1.223l-1.632,0.408c-0.307-0.715-0.816-1.121-1.836-1.121s-1.633,0.511-1.633,1.225
	c0,0.611,0.409,0.917,1.326,1.223l1.633,0.409c1.02,0.306,1.734,0.612,2.041,1.224c0.306,0.41,0.51,1.021,0.51,1.633
	c0,1.836-1.531,3.062-3.877,3.062c-1.224,0-2.245-0.306-3.062-0.918c-0.51-0.407-0.714-0.815-1.02-1.633L127.7,382.477z"/>
<path fill="#fff" d="M140.352,385.23v-1.529c-0.204,0.611-0.408,0.917-0.816,1.224c-0.408,0.306-0.917,0.511-1.53,0.511
	c-0.816,0-1.327-0.307-1.734-0.918c-0.306-0.41-0.408-0.816-0.408-1.43v-5.102h1.632v4.693c0,0.407,0,0.611,0.102,0.815
	c0.204,0.307,0.51,0.51,0.918,0.51c0.612,0,1.224-0.407,1.428-1.021c0.204-0.407,0.204-0.815,0.204-1.529v-3.469h1.632v7.242
	L140.352,385.23L140.352,385.23z"/>
<path fill="#fff" d="M149.942,382.682c-0.204,0.814-0.306,1.121-0.715,1.631c-0.51,0.715-1.326,1.02-2.245,1.02
	c-1.836,0-3.06-1.529-3.06-3.773s1.326-3.774,3.265-3.774c0.918,0,1.632,0.307,2.143,0.919c0.408,0.408,0.51,0.814,0.612,1.633
	l-1.429,0.203c-0.102-0.918-0.612-1.326-1.326-1.326c-1.021,0-1.632,0.918-1.632,2.551c0,1.43,0.51,2.244,1.531,2.244
	c0.713,0,1.224-0.51,1.428-1.428L149.942,382.682z"/>
<path fill="#fff" d="M157.491,382.682c-0.204,0.814-0.306,1.121-0.713,1.631c-0.51,0.715-1.327,1.02-2.245,1.02
	c-1.836,0-3.062-1.529-3.062-3.773s1.327-3.774,3.265-3.774c0.918,0,1.633,0.307,2.143,0.919c0.408,0.408,0.51,0.814,0.612,1.633
	l-1.428,0.203c-0.102-0.918-0.612-1.326-1.327-1.326c-1.02,0-1.632,0.918-1.632,2.551c0,1.43,0.51,2.244,1.53,2.244
	c0.715,0,1.224-0.51,1.429-1.428L157.491,382.682z"/>
<path fill="#fff" d="M165.451,383.088c-0.51,1.43-1.633,2.244-3.265,2.244c-2.04,0-3.368-1.428-3.368-3.773
	c0-2.244,1.327-3.774,3.368-3.774s3.265,1.429,3.265,3.979h-4.795v0.203c0,1.326,0.612,2.04,1.734,2.04
	c0.816,0,1.327-0.306,1.632-1.224L165.451,383.088z M163.92,380.742c0-0.51-0.103-0.815-0.409-1.122
	c-0.306-0.408-0.713-0.612-1.224-0.612c-0.917,0-1.53,0.612-1.632,1.733L163.92,380.742L163.92,380.742z"/>
<path fill="#fff" d="M168.409,383.292c0.306,0.612,0.714,0.919,1.632,0.919c0.919,0,1.429-0.307,1.429-0.919
	c0-0.308-0.307-0.61-0.816-0.714l-1.327-0.307c-1.531-0.306-2.142-0.918-2.142-2.143c0-0.613,0.204-1.122,0.612-1.529
	c0.51-0.511,1.225-0.817,2.245-0.817c1.531,0,2.449,0.612,2.755,1.633l-1.428,0.306c-0.204-0.611-0.613-0.816-1.327-0.816
	c-0.816,0-1.327,0.308-1.327,0.816c0,0.408,0.307,0.715,1.021,0.816l1.531,0.307c1.224,0.204,1.837,0.918,1.837,2.141
	c0,1.431-1.224,2.348-3.163,2.348c-0.918,0-1.734-0.203-2.347-0.714c-0.408-0.306-0.612-0.612-0.715-1.122L168.409,383.292z"/>
<path fill="#fff" d="M175.959,383.292c0.306,0.612,0.715,0.919,1.632,0.919c0.918,0,1.428-0.307,1.428-0.919
	c0-0.308-0.306-0.61-0.816-0.714l-1.326-0.307c-1.53-0.306-2.143-0.918-2.143-2.143c0-0.613,0.204-1.122,0.612-1.529
	c0.51-0.511,1.224-0.817,2.245-0.817c1.53,0,2.449,0.612,2.754,1.633l-1.429,0.306c-0.204-0.611-0.612-0.816-1.326-0.816
	c-0.816,0-1.327,0.308-1.327,0.816c0,0.408,0.307,0.715,1.02,0.816l1.53,0.307c1.224,0.204,1.836,0.918,1.836,2.141
	c0,1.431-1.225,2.348-3.163,2.348c-0.918,0-1.734-0.203-2.347-0.714c-0.408-0.306-0.613-0.612-0.714-1.122L175.959,383.292z"/>
</svg>
