<?xml version="1.0" encoding="utf-8"?>
<!-- Generator: Adobe Illustrator 19.2.1, SVG Export Plug-In . SVG Version: 6.00 Build 0)  -->
<svg version="1.1" id="Layer_1" xmlns="http://www.w3.org/2000/svg" xmlns:xlink="http://www.w3.org/1999/xlink" x="0px" y="0px"
	 viewBox="0 0 12 12" style="enable-background:new 0 0 12 12;" xml:space="preserve">
<style type="text/css">
	.st0{fill:#010101;}
</style>
<g>
	<path class="st0" d="M0.8,6L0,4.2h0.9l0.9,1.3l4.7-0.1L4.2,0h1.2l3.4,5.2l0.8,0c0.5,0,0.9,0.1,1.3,0.2l0.5,0.2
		C11.8,5.7,12,5.9,12,6c0,0.2-0.2,0.3-0.6,0.4l-0.5,0.2c-0.4,0.1-0.8,0.2-1.3,0.2l-0.8,0L5.4,12H4.2l2.2-5.4L1.8,6.5L0.9,7.8H0
		L0.8,6z"/>
</g>
</svg>
