<?xml version="1.0" encoding="utf-8"?>
<!-- Generator: Adobe Illustrator 19.2.1, SVG Export Plug-In . SVG Version: 6.00 Build 0)  -->
<svg version="1.1" id="Layer_1" xmlns="http://www.w3.org/2000/svg" xmlns:xlink="http://www.w3.org/1999/xlink" x="0px" y="0px"
	 viewBox="0 0 12 12" style="enable-background:new 0 0 12 12;" xml:space="preserve">
<style type="text/css">
	.st0{fill:#010101;}
</style>
<g>
	<path class="st0" d="M0,6c0-1.7,0.6-3.1,1.8-4.2C2.9,0.6,4.3,0,6,0c1.7,0,3.1,0.6,4.2,1.8C11.4,2.9,12,4.3,12,6
		c0,1.7-0.6,3.1-1.8,4.2C9.1,11.4,7.7,12,6,12c-1.7,0-3.1-0.6-4.2-1.8C0.6,9.1,0,7.7,0,6z M3.6,6c0,0.7,0.2,1.2,0.7,1.7
		c0.5,0.5,1,0.7,1.7,0.7s1.2-0.2,1.7-0.7c0.5-0.5,0.7-1,0.7-1.7S8.2,4.8,7.7,4.3C7.2,3.8,6.7,3.6,6,3.6S4.8,3.8,4.3,4.3
		C3.8,4.8,3.6,5.3,3.6,6z"/>
</g>
</svg>
