<?xml version="1.0" encoding="utf-8"?>
<!-- Generator: Adobe Illustrator 19.2.1, SVG Export Plug-In . SVG Version: 6.00 Build 0)  -->
<svg version="1.1" id="Layer_1" xmlns="http://www.w3.org/2000/svg" xmlns:xlink="http://www.w3.org/1999/xlink" x="0px" y="0px"
	 viewBox="0 0 12 12" style="enable-background:new 0 0 12 12;" xml:space="preserve">
<style type="text/css">
	.st0{fill:#010101;}
</style>
<g>
	<path class="st0" d="M0,6c0-1.7,0.6-3.1,1.8-4.2C2.9,0.6,4.3,0,6,0c1.7,0,3.1,0.6,4.2,1.8C11.4,2.9,12,4.3,12,6
		c0,1.7-0.6,3.1-1.8,4.2C9.1,11.4,7.7,12,6,12c-1.7,0-3.1-0.6-4.2-1.8C0.6,9.1,0,7.7,0,6z M1.2,6c0,1.3,0.5,2.5,1.4,3.4
		c0.9,0.9,2.1,1.4,3.4,1.4c1.3,0,2.5-0.5,3.4-1.4c0.9-0.9,1.4-2.1,1.4-3.4s-0.5-2.5-1.4-3.4C8.5,1.7,7.3,1.2,6,1.2
		c-1.3,0-2.5,0.5-3.4,1.4C1.7,3.5,1.2,4.7,1.2,6z M2.4,6c0-1,0.4-1.8,1.1-2.5C4.2,2.8,5,2.4,6,2.4c1,0,1.8,0.4,2.5,1.1
		C9.2,4.2,9.6,5,9.6,6c0,1-0.4,1.8-1.1,2.5C7.8,9.2,7,9.6,6,9.6c-1,0-1.8-0.4-2.5-1.1C2.8,7.8,2.4,7,2.4,6z M3.6,6
		c0,0.7,0.2,1.2,0.7,1.7c0.5,0.5,1,0.7,1.7,0.7c0.7,0,1.2-0.2,1.7-0.7c0.5-0.5,0.7-1,0.7-1.7c0-0.7-0.2-1.2-0.7-1.7
		C7.2,3.8,6.7,3.6,6,3.6c-0.7,0-1.2,0.2-1.7,0.7C3.8,4.8,3.6,5.3,3.6,6z M4.8,6c0-0.3,0.1-0.6,0.4-0.8C5.4,4.9,5.7,4.8,6,4.8
		c0.3,0,0.6,0.1,0.8,0.3C7.1,5.4,7.2,5.7,7.2,6c0,0.3-0.1,0.6-0.4,0.8C6.6,7.1,6.3,7.2,6,7.2c-0.3,0-0.6-0.1-0.8-0.3
		C4.9,6.6,4.8,6.3,4.8,6z"/>
</g>
</svg>
