<?xml version="1.0" encoding="utf-8"?>
<!-- Generator: Adobe Illustrator 19.2.1, SVG Export Plug-In . SVG Version: 6.00 Build 0)  -->
<svg version="1.1" id="Layer_1" xmlns="http://www.w3.org/2000/svg" xmlns:xlink="http://www.w3.org/1999/xlink" x="0px" y="0px"
	 viewBox="0 0 12 12" style="enable-background:new 0 0 12 12;" xml:space="preserve">
<style type="text/css">
	.st0{fill:#010101;}
</style>
<g>
	<g>
		<path class="st0" d="M8.7,1c0.5,0.6,0.8,1.5,0.8,2.8c0,0.9-0.3,1.8-0.8,2.6C8.2,7.1,7.6,7.9,7.1,8.6C6.9,8.9,6.8,9.2,6.6,9.7
			c-0.2,0.6-0.4,1-0.4,1.1c-0.4,0.8-1,1.2-2,1.2c-1,0-1.5-0.7-1.5-2c0-0.4,0-0.9,0.1-1.3h0.5c-0.1,0.6-0.1,1-0.1,1.2
			c0,1.2,0.3,1.7,1,1.7c0.6,0,1.1-0.2,1.4-0.7c0.1-0.2,0.3-0.7,0.6-1.5c0.2-0.5,0.3-0.8,0.5-1.1c0.5-0.7,1-1.4,1.5-2
			C8.8,5.5,9,4.7,9,3.9c0-1.1-0.2-1.9-0.7-2.5C7.8,0.8,7,0.5,5.9,0.5C4.7,0.4,4,0.9,3.5,1.8C3.1,2.4,3,3.2,3,4.1c0,0.4,0,0.7,0.1,1
			H2.5C2.5,4.8,2.5,4.4,2.5,4.1c0-1,0.2-1.9,0.6-2.6C3.6,0.5,4.5,0,5.8,0C7.2,0,8.1,0.3,8.7,1L8.7,1z M7.8,2c0.4,0.5,0.6,1.2,0.6,2
			c0,0.5-0.2,1.1-0.6,2L7.3,5.8C7.7,5,7.9,4.4,7.9,4c0-0.6-0.2-1.2-0.5-1.7C7,1.8,6.5,1.6,5.8,1.6c-0.5,0-0.9,0.2-1.2,0.5
			C4.3,2.4,4.1,2.9,4.1,3.3c1.6,0.9,2.4,1.9,2.4,2.8c0,0.4-0.1,0.8-0.3,1.2C6,7.6,5.8,8,5.6,8.3C5.5,8.5,5.4,8.8,5.2,9.1
			C5,9.4,4.8,9.5,4.5,9.5C4,9.5,3.8,9.3,3.8,8.8c0-0.1,0-0.3,0.1-0.5C4.1,8,4.1,7.8,4.1,7.7c0-0.1,0-0.3-0.1-0.5
			C3.9,7,3.9,6.8,3.9,6.7C3.9,6.2,4.1,6,4.6,6C5,6,5.2,6.3,5.2,6.8c0,0.3-0.2,0.5-0.5,0.7c0,0.3,0,0.5-0.2,0.7
			C4.4,8.4,4.3,8.6,4.3,8.7c0,0.3,0,0.4,0.2,0.4c0.2,0,0.3-0.1,0.4-0.3c0-0.2,0.1-0.4,0.3-0.7c0.2-0.3,0.4-0.6,0.6-0.9
			C6,6.8,6.1,6.5,6,6.1c0-0.7-0.6-1.4-1.8-2.2c0.2,0.6,0.5,1.1,1.1,1.6L5.1,5.9C4.1,5.3,3.6,4.4,3.6,3.4c0-0.7,0.2-1.2,0.6-1.7
			c0.4-0.4,0.9-0.6,1.6-0.6C6.7,1.1,7.3,1.4,7.8,2L7.8,2z"/>
	</g>
</g>
</svg>
