<?xml version="1.0" encoding="utf-8"?>
<!-- Generator: Adobe Illustrator 19.2.1, SVG Export Plug-In . SVG Version: 6.00 Build 0)  -->
<svg version="1.1" id="Layer_1" xmlns="http://www.w3.org/2000/svg" xmlns:xlink="http://www.w3.org/1999/xlink" x="0px" y="0px"
	 viewBox="0 0 12 12" style="enable-background:new 0 0 12 12;" xml:space="preserve">
<style type="text/css">
	.st0{fill:#010101;}
</style>
<g>
	<path class="st0" d="M8.3,5c1,0.8,1.6,1.8,1.6,3.1c0,1.1-0.4,2-1.1,2.8C8,11.6,7.1,12,6,12c-1.1,0-2-0.4-2.8-1.1S2.1,9.2,2.1,8.1
		C2.1,7,2.5,6,3.4,5.2V2.5c0-0.8,0.2-1.4,0.7-1.9C4.5,0.2,5.1,0,5.9,0c0.8,0,1.3,0.2,1.8,0.7c0.4,0.5,0.6,1.1,0.6,1.8V5L8.3,5z
		 M6,4.2c0.5,0,1.1,0.1,1.5,0.3V2.6c0-1.2-0.5-1.9-1.6-1.9c-1.2,0-1.7,0.6-1.7,1.9v2C4.7,4.3,5.3,4.2,6,4.2L6,4.2z"/>
</g>
</svg>
