<?xml version="1.0" encoding="utf-8"?>
<!-- Generator: Adobe Illustrator 19.2.1, SVG Export Plug-In . SVG Version: 6.00 Build 0)  -->
<svg version="1.1" id="Layer_1" xmlns="http://www.w3.org/2000/svg" xmlns:xlink="http://www.w3.org/1999/xlink" x="0px" y="0px"
	 viewBox="0 0 13 12" style="enable-background:new 0 0 13 12;" xml:space="preserve">
<style type="text/css">
	.st0{fill:#010101;}
</style>
<g>
	<path class="st0" d="M12.8,4.7L12.1,5c-0.5,0.9-0.9,1.9-1.3,2.9c-0.3,0.9-0.6,2-0.8,3.3l0.5,0.7L10.2,12l-0.4-0.5
		c-1.1-0.2-2.2-0.3-3.3-0.3c-1.1,0-2.2,0.1-3.3,0.3L2.8,12l-0.3-0.2L3,11.1C2.8,9.9,2.5,8.8,2.2,7.9c-0.3-1-0.8-2-1.3-2.9L0.2,4.7
		l0.1-0.3L1,4.6C2.1,4,3.1,3.4,3.9,2.8c0.9-0.6,1.7-1.4,2.4-2.2V0h0.3v0.7c0.7,0.8,1.6,1.5,2.4,2.2C9.9,3.4,10.9,4,12,4.6l0.7-0.2
		L12.8,4.7z M4.1,9.7C4,9.1,3.8,8.4,3.5,7.5C3.2,6.6,3,6,2.7,5.5L1.4,5.1C1.9,6,2.3,6.9,2.5,7.7c0.3,0.9,0.6,1.9,0.8,3L4.1,9.7z
		 M4.6,4C5.4,3.4,6,2.9,6.3,2.5V1.2C5.6,1.9,4.9,2.6,4.1,3.1C3.3,3.7,2.4,4.2,1.5,4.8l1.3,0.4C3.3,4.9,3.9,4.5,4.6,4L4.6,4z
		 M6.3,4.1V3C6,3.4,5.5,3.8,4.9,4.2C4.2,4.7,3.6,5.1,3.2,5.3l1.2,0.4C4.7,5.5,5.1,5.3,5.4,5C5.7,4.8,6,4.5,6.3,4.1z M5.1,8.3
		C5,7.9,4.9,7.5,4.8,7.1C4.6,6.7,4.5,6.4,4.3,6L3.2,5.7c0.2,0.5,0.5,1,0.7,1.7c0.2,0.8,0.4,1.4,0.5,1.9L5.1,8.3z M6.5,10.8
		c1,0,2,0.1,3,0.3L8.7,10C8.2,9.9,7.4,9.8,6.5,9.8c-0.9,0-1.7,0.1-2.2,0.2l-0.8,1.1C4.5,10.9,5.5,10.8,6.5,10.8L6.5,10.8z M6.5,9.5
		c0.8,0,1.4,0,2,0.1L7.8,8.7C7.3,8.6,6.9,8.5,6.5,8.5c-0.4,0-0.8,0-1.3,0.1L4.6,9.6C5.1,9.5,5.7,9.5,6.5,9.5L6.5,9.5z M6.3,6.7
		L4.7,6.2C4.9,6.5,5,6.7,5.1,7c0.1,0.3,0.2,0.6,0.2,1L6.3,6.7z M6.3,6.3V4.6C6.1,4.9,5.8,5.1,5.6,5.3C5.4,5.5,5.1,5.6,4.8,5.8
		L6.3,6.3z M6.5,8.2c0.3,0,0.6,0,1,0.1l-1-1.3l-1,1.3C5.9,8.2,6.2,8.2,6.5,8.2L6.5,8.2z M11.5,4.8c-1-0.5-1.9-1.1-2.7-1.7
		C8.1,2.6,7.4,1.9,6.7,1.2v1.4C7,2.9,7.6,3.4,8.4,4c0.7,0.5,1.4,0.9,1.9,1.2L11.5,4.8z M9.8,5.3c-0.5-0.2-1-0.6-1.7-1.1
		C7.5,3.8,7,3.4,6.7,3v1.1C7,4.5,7.3,4.8,7.6,5c0.3,0.3,0.7,0.5,1.1,0.7L9.8,5.3z M8.2,5.8C7.9,5.6,7.6,5.5,7.4,5.3
		C7.2,5.1,6.9,4.9,6.7,4.6v1.7L8.2,5.8z M7.9,7C8,6.7,8.1,6.5,8.3,6.2L6.7,6.7l0.9,1.3C7.7,7.6,7.8,7.3,7.9,7L7.9,7z M9.2,7.4
		c0.2-0.7,0.5-1.3,0.7-1.7L8.7,6C8.4,6.7,8.1,7.4,7.9,8.3l0.7,1C8.7,8.8,8.9,8.2,9.2,7.4L9.2,7.4z M10.5,7.7
		c0.3-0.8,0.6-1.7,1.1-2.6l-1.3,0.4C10,6,9.8,6.6,9.5,7.5C9.2,8.4,9,9.1,8.9,9.7l0.8,1.1C9.9,9.7,10.2,8.7,10.5,7.7L10.5,7.7z"/>
</g>
</svg>
