<?xml version="1.0" encoding="utf-8"?>
<!-- Generator: Adobe Illustrator 19.0.0, SVG Export Plug-In . SVG Version: 6.00 Build 0)  -->
<svg version="1.1" id="Layer_1" xmlns="http://www.w3.org/2000/svg" xmlns:xlink="http://www.w3.org/1999/xlink" x="0px" y="0px"
	 viewBox="0 0 337.1 124.3" style="enable-background:new 0 0 337.1 124.3;" xml:space="preserve">
<style type="text/css">
	.st0{fill:#FF8400;}
	.st1{fill:#FFFFFF;}
	.st2{fill:#603813;}
</style>
<g id="XMLID_93_">
	<path id="XMLID_1027_" class="st0" d="M135,16.1c-1.8,0-4.7,0.3-6.1,0.6c-0.3,0-0.5,0.1-0.8,0.3c-1.6,1.9-3,5.2-3.5,7.2
		c-0.1,0.3,0.1,0.7,0.7,0.7c3.3-0.1,7-0.4,10.1-0.2c4.1,0.3,6.7,0.8,8.7,4.2c0.5,1.1,2,1.1,2.1-0.1c0-0.4,0-0.8,0-1.2
		C145.2,22,141.3,16.1,135,16.1z M103.5,66.4c1.1,0.8,2.2,1.6,3.3,2.1c2.8-0.3,5.3-1,7.4-2.1c-0.9-0.4-1.8-0.8-2.7-1.4
		c0.8,0.4,1.9,0.8,3.1,1.1c1.7-1,3.2-2.2,4.2-3.5c-1.4-0.2-2.9-0.5-4.5-0.9c1.4,0.2,3.1,0.3,5,0.3c0.7-1.1,1.2-1.8,1.3-3
		c-5-0.2-10.3-1.2-14.8-3.3C105.6,59.6,104.9,63.3,103.5,66.4z M94.9,22.3c-2.1-6.4,0.8-13.5,5.3-15.2c0,0,0,0-0.1,0
		c-4-0.9-7.5,0.3-8.2,0.6c0.1,0.9,1.4,1.5,2.5,1.8c-0.2,0-0.5,0-0.9,0c-1.4,0.3-5.7,1.6-7.1,3.9c1.2,0.5,3.4,0.4,4.5,0.1
		c-1.3,0.5-7.2,3.7-6.6,6.4c0.1,1,4,0.2,6-1.8c-2,9.3,7.8,26.1-8,28.9l2.2,3.9l-3.3-3.4c-7.4-8.7-17.9-11.2-22.5-12.1c0,0,0,0,0.1,0
		c0,0,0.1,0,0.1,0c6.6,1.7,13.1,5.6,16.5,12.3l12.1,6.8l2.2,6.3L76.4,82.4c4.6-1.8,9.3-6.1,12.4-11.6c-0.1,0.5-2.1,6.9-6.4,11
		c3.9-2.4,7.6-6.9,10.1-11.7c0,0-0.6,3.2-2.5,6.7c2.5-2.3,4.2-5,4.8-8.1c-1.4,0-3.3-0.3-4.1-0.4c4.4-1.5,10.6-9.5,9.9-20.7
		c0.9,5.5,1.1,12.2-1.3,17c4.2-5.7,4.6-15.2,1.8-24.4C99.1,34.4,96,28.6,94.9,22.3z M90.3,68.2c-1.2,0-3.3-0.7-4.1-1
		c5-2.1,9.1-5.2,10.6-13.3C96.5,58.5,96.2,64.5,90.3,68.2z"/>
	<path id="XMLID_1010_" class="st1" d="M125.7,34.2c0.3-0.8-2.7-4.5-10.4-6.1c-5.6-1.2-12.7-4-14.7-7.8c-0.2,0.7-0.1,1.6,0.2,2.4
		c-3.8-4.8,2.1-6.5,4.8-4.2c-1.2-0.4-2.1-0.4-2.9,0c-0.4,0.1-0.6,0.7-0.3,1.3c3.6,6.8,10.2,5.8,19.2,5.2c0.3,0,1.2-0.5,1.3-0.9
		c0.4-1.7,2.4-6.3,5.4-8.2c-2.1,0.4-4,0.4-5.6,0.5c-5.3,0.3-8.4-0.4-8.4-1.3c0-0.3,1.6,0.4,1.8,0.1c0.1-0.2-0.2-0.4-0.5-0.6
		c-0.9-0.8-4.8-4.9-4.8-4.8c-1.1-3.9-6.9-3-8.8,1.4c-0.1-0.7,1-3.2,1.6-3.7c-5.2,0.5-7.3,4.2-8.2,7.9c-3.4,15.3,22.8,12.5,29.5,18.7
		C125.1,34,125.5,34.5,125.7,34.2z M107.6,11.2c-0.3-0.5-0.9-1.1-1.4-0.9c0.2-0.4,0.4-0.7,0.8-0.8c1.1-0.4,2.7,0.7,3.6,2.4
		c0.9,1.7,0.6,3.4-0.5,3.8c-1.1,0.4-2.7-0.7-3.5-2.4c-0.2-0.4-0.3-0.8-0.4-1.2c0.4,0.7,1,0.9,1.4,0.7
		C108,12.5,107.9,11.8,107.6,11.2z M63.7,90.2l9.8-15.5l-26.9-0.3l27.5-0.8l1-1.7l-41.9-0.4L63.7,90.2z M63.6,61.9
		c-2.3-0.6-4.7-2.5-5.5-6c-4.5-3.8-6.8-10.2-7.7-17L35.2,64.2L0,66.7l64.5-2.5C64.1,63.4,63.8,62.6,63.6,61.9z M119.4,62
		c7,0,16.4-1.3,19.7-7.1c-3.9,1.7-12,4.1-19.6,3.6c-5.1-0.4-9.9-2-13.7-3.8c0,0.4-0.1,0.7-0.1,1.1c0,0,0,0,0,0
		c4.5,2.1,9.8,3.1,14.8,3.3C120.5,60.2,120.1,60.9,119.4,62z M85.5,12.2c-0.1,0.5,0.3,0.9,0.9,1.1c1.4-2.4,5.8-3.6,7.2-3.9
		C90.8,9.5,85.7,10.5,85.5,12.2z M66.8,66.2l-33,0.3l-1,1.7l45.5-1l6.9-10.9l-14.7-8.7C71.5,53,69.8,61.9,66.8,66.2z M31.8,69.7
		l-0.5,0.8l1.8,1.1l43-1.2l1-1.5l-66.3-0.3L31.8,69.7z M101.5,6.5l1.3-0.3c-0.2-0.2-2-3.3-3.4-2.2C98.1,5,101.5,6.5,101.5,6.5z
		 M106,5.7c-0.1-0.6-0.9-2.8-2.2-2.4C102.1,3.7,105.4,5.5,106,5.7z M128.9,16.6c1.3-0.2,4.3-0.6,6.1-0.6c6.3,0.1,10.2,5.9,11.2,11.4
		c-0.2-5.5-3.9-12.5-10.4-12.5c-1.6,0-4.3,0.3-5.5,0.5c-0.7,0.1-1.5,0.7-2.1,1.5C128.4,16.8,128.7,16.7,128.9,16.6z M58.4,40.3
		c2.7,4,3.4,9.9,2.9,14.3c0.5,1.9,2.2,3.4,3.3,3.4c0.9-5.2,0.1-12.6-2.6-18.1c3.8,4.9,5,12.1,4.9,20.1h0c1.4-2,2.5-6.8,1.6-12
		c-0.7-3.2-2-6.4-3-8.2c1.1,1.1,2,2.5,2.7,3.9l7.1,4c-3.4-6.8-9.8-10.6-16.5-12.3c-2.1-0.4-4-0.7-5.3-0.7
		c-0.6,4.8,1.8,13.3,5.8,17.5C59.9,50.4,59.9,44.9,58.4,40.3z M100.1,7.1c-0.7-0.3-6.3-2.7-8-0.2c-0.2,0.3-0.3,0.6-0.2,0.8
		C92.6,7.4,96.1,6.2,100.1,7.1z M119,62.6L119,62.6c-1.1,1.4-2.5,2.6-4.2,3.5c6.5,1.7,17.1,1.4,19.2-5.1
		C130.4,62.8,125.7,63.7,119,62.6z M114.3,66.4L114.3,66.4c-2.2,1.1-4.7,1.9-7.4,2.1c6.4,3.3,13.6,2.7,19.5-0.4
		C122.6,68.5,118.4,68.2,114.3,66.4z"/>
	<path id="XMLID_996_" class="st2" d="M106.2,12.1c0.1,0.4,0.2,0.8,0.4,1.2c0.9,1.7,2.4,2.8,3.5,2.4c1.1-0.4,1.3-2.1,0.5-3.8
		c-0.9-1.7-2.4-2.8-3.6-2.4c-0.4,0.1-0.7,0.4-0.8,0.8c0.5-0.2,1.1,0.4,1.4,0.9c0.3,0.6,0.4,1.3,0,1.5
		C107.2,13,106.5,12.7,106.2,12.1z M96.8,53.9c-1.6,8-5.7,11.2-10.6,13.3c0.8,0.3,2.9,1,4.1,1C96.2,64.5,96.5,58.5,96.8,53.9z
		 M51.6,119.1c-23.2,0-42,1.2-42,2.6c0,1.5,18.8,2.6,42,2.6c23.2,0,42-1.2,42-2.6C93.6,120.3,74.8,119.1,51.6,119.1z M99.1,72.3
		c0.1-0.1,0.3-0.2,0.4-0.3c8.9,5.1,24.2,4.9,31.3-3.2c4.4-1.5,7.9-6,8.5-9.4c3-1.7,4.6-5.6,4.4-8.2c-0.1-0.6-0.6-0.7-1.5-0.3
		c-12.8,5.3-24.4,4.3-36.4-1.3c-0.1-3.2-0.5-6.2-1-8.8c-0.9-6.6,0-10.4,11-6.8c9.5,2.5,11.3,7.7,14.8,7.3c1.5-0.3-0.3-9.4-2.2-11.9
		c3.9-0.2,7-0.2,8.7,0c3.6,0.6,3.9,2.5,4.4,3.4c1.1,3,7,2.3,7.5-0.4c0.7-4.7,1.1-11.8-4.2-16.6c-2.8-2.5-6.5-3.7-9.7-3.7
		c-4.6,0-8.4,1.2-14,1.3c-3.8,0.2-7.4-8.2-12-9.2c-2-4.5-6.6-5-9.4-2.7c-2.5-1.5-6.5-0.7-6.7,2.1c-2.9-0.9-6.6,0.8-5.2,4.8
		c-7,0-8.6,6.4-3.5,6.9c-6.2,3.5-3.4,9.6,1.8,8.3c0.7,6.9,4.9,19.5-5.3,19.4C71.7,34,60.3,31.4,52.2,30.9c-1.3-0.1-2.4,0.9-2.5,2
		c0,0.7,0.1,1.4,0.2,2.2l-7.4,12.4c-7.6,0.5-15.9,2.4-21.4,6.3c2.8,1.9,4.9,2.2,6.2,2.4c-2.7,1.2-3.9,2-5.2,3
		c1.6,1.9,5.1,2.2,6.8,2.6c-2.5,0.9-3.6,2-4.2,3.2l10.5-0.8l15.3-25.3c0.9,6.8,3.2,13.2,7.7,17c0.8,3.5,3.1,5.4,5.5,6
		c0.2,0.7,0.5,1.5,0.9,2.2L0,66.7l26-0.2c1.5,0.8,2.8,1.3,4.2,1.5L30,68.2l-19.2,0.4l18.9,0.1l47.4,0.2l-1,1.5l-43,1.2l-1.8-1.1
		l0.5-0.8l-2.6-0.1l-0.8,1.3l0.4,4.3l13.2,8.3c-2.8,2.1-10.4,4.3-14.1,2.4c-0.3-0.8,0.9-2.5,1.4-4.2c1.2-1.8-4-3.3-6.9-1.1
		C20.9,82,6,95.5,5.7,113.7c-0.9,2.5,6.5,3.3,8-0.4c1.2,2.7,5.6-0.1,5.4-2.7c0-6.4,2.7-15,4.7-15.7c10.9,3.1,21.2-3.8,25.2-7.2
		l17.5,10.9l4.7-7.6c0.2,0,0.5,0,0.7-0.1c6.3,1.1,13.4,9.7,11.8,14c-1.3,1.4-4.6,3.9-5.5,4.7c-2,2,3.2,4.4,5.9,3.3
		c14.8-3.9,27.2-16.3,29.9-26.7c1.4-5.3-5-5.3-5.8-3.2c-1.1-4-4.7-1.9-5.2,0c-3,7-6.8,12.9-10.7,14.7c-0.7-1.7-4.6-7.2-10.5-9.4
		C89.5,85.4,96,79.8,99.1,72.3z M74.1,73.7l-27.5,0.8l26.9,0.3l-9.8,15.5L33.3,71.6L75.2,72L74.1,73.7z M105.9,54.6
		c3.7,1.8,8.6,3.4,13.7,3.8c7.6,0.5,15.7-1.8,19.6-3.6c-4.3,7.4-18.3,7.5-24.7,6.8c9.3,2.3,15.2,1.5,19.6-0.6
		c-2.5,7.7-17.1,6.7-22.3,4c4.9,2.9,10.1,3.6,14.8,3.1c-7,3.7-15.8,3.9-22.9-1.8C105,63,105.7,58.9,105.9,54.6z M130.3,15.4
		c1.2-0.2,3.9-0.5,5.5-0.5c7,0.1,10.8,8.1,10.4,13.7c-0.1,1.2-1.6,1.2-2.1,0.1c-1.9-3.4-4.5-3.9-8.7-4.2c-3-0.2-6.7,0.1-10.1,0.2
		c-0.6,0-0.8-0.4-0.7-0.7C125.4,21.3,127.8,15.8,130.3,15.4z M110.8,9.7c0,0,4,4,4.8,4.8c0.2,0.2,0.6,0.4,0.5,0.6
		c-0.2,0.3-1.8-0.4-1.8-0.1c0,0.8,3,1.6,8.4,1.3c1.6-0.1,3.6-0.1,5.6-0.5c-3,1.9-5.1,6.4-5.4,8.2c-0.1,0.5-1,0.9-1.3,0.9
		c-9,0.7-15.6,1.6-19.2-5.2c-0.3-0.5-0.1-1.2,0.3-1.3c0.8-0.4,1.8-0.4,2.9,0c-2.7-2.2-8.6-0.6-4.8,4.2c-0.3-0.7-0.4-1.6-0.2-2.4
		c2,3.7,9.1,6.6,14.7,7.8c7.7,1.7,10.6,5.3,10.4,6.1c-0.2,0.3-0.6-0.2-0.7-0.3c-6.8-6.2-32.9-3.4-29.5-18.7c0.8-3.7,3-7.3,8.2-7.9
		c-0.6,0.5-1.7,3-1.6,3.7C103.9,6.7,109.7,5.8,110.8,9.7z M103.8,3.3c1.4-0.4,2.1,1.8,2.2,2.4C105.4,5.5,102.1,3.7,103.8,3.3z
		 M99.5,3.9c1.4-1.1,3.1,2,3.4,2.2l-1.3,0.3C101.5,6.5,98.1,5,99.5,3.9z M32.8,68.1l1-1.7l33-0.3c3-4.2,4.7-13.1,3.6-18.6l14.7,8.7
		l-6.9,10.9L32.8,68.1z M82.4,81.8c4.3-4.1,6.3-10.5,6.4-11c-3,5.5-7.8,9.8-12.4,11.6L89.5,61l-2.2-6.3L68.2,43.8
		c-0.7-1.4-1.6-2.8-2.7-3.9c1,1.8,2.3,5.1,3,8.2c0.8,5.2-0.3,10-1.6,12h0c0.1-8-1.1-15.2-4.9-20.1c2.7,5.5,3.5,12.9,2.6,18.1
		c-1.1,0-2.8-1.5-3.3-3.4c0.5-4.4-0.1-10.3-2.9-14.3c1.5,4.6,1.6,10.1,1,12c-4-4.2-6.5-12.7-5.8-17.5c1.3,0.1,3.1,0.3,5.2,0.7
		c0,0,0,0-0.1,0c4.6,0.9,15.1,3.3,22.5,12.1l3.3,3.4L82.3,47c15.8-2.8,6-19.5,8-28.9c-1.9,1.9-5.8,2.7-6,1.8c-0.6-2.7,5.3-6,6.6-6.4
		c-1.6,0.5-5.6,0.4-5.4-1.2c0.2-1.9,6.7-3,8.9-2.8C93,9.1,91.2,8,92.1,6.8c1.8-2.6,8,0.2,8.1,0.3c-4.5,1.6-7.4,8.8-5.3,15.2
		c1.1,6.3,4.2,12.1,6,18.1c2.8,9.2,2.4,18.6-1.8,24.4c2.5-4.8,2.3-11.5,1.3-17c0.7,11.2-5.5,19.2-9.9,20.7c0.8,0.1,2.7,0.4,4.1,0.4
		c-0.6,3.1-2.4,5.8-4.8,8.1c1.9-3.5,2.5-6.7,2.5-6.7C90,75,86.3,79.4,82.4,81.8z"/>
	<path id="XMLID_906_" class="st0" d="M281.8,35.3c1.8,1.1,3,2.5,3.1,2.6c0.7,0.9,1.8,1.3,2.8,1.3c0.7,0,1.4-0.2,1.9-0.7
		c1.4-1.1,1.5-3.2,0.2-4.7c-0.2-0.2-2-2.3-4.8-4.1c-1.6-1-3.7-0.6-4.5,0.9C279.5,32.2,280.1,34.3,281.8,35.3z M326.7,36.5h-13.6
		c0.3-0.9,0.5-1.8,0.7-2.6c0.1-0.5,0.2-0.9,0.4-1.3c0.5-1.7-0.6-3.6-2.4-4.3c-1.8-0.6-3.6,0.3-4.1,2c-0.1,0.4-0.2,0.9-0.4,1.4
		c-0.4,1.5-0.8,3.1-1.4,4.9h-11.1c-1.6,0-2.9,1.3-2.7,3c0.1,1.6,1.6,3,3.2,3h7.7c-2.8,4.3-7.4,8.6-15.6,11.7
		c-1.7,0.6-2.4,2.6-1.6,4.3c0.6,1.4,2,2.2,3.3,2.2c0.4,0,0.8-0.1,1.1-0.2c8-3,13.1-7.1,16.5-11.2c2.8,0.9,6.5,3.2,8.2,8.8
		c0.5,1.6,2,2.7,3.5,2.7c0.2,0,0.4,0,0.7-0.1c1.8-0.4,2.8-2.1,2.3-3.9c-1.8-6-5.7-10.6-11-13c0.2-0.4,0.4-0.8,0.6-1.2h16.3
		c1.6,0,2.9-1.3,2.7-3C329.8,37.8,328.4,36.5,326.7,36.5z M218.5,45.6c-0.1-1.6-1.6-3-3.2-3h-10.6l0.9-3.4h9.2c1.6,0,2.9-1.3,2.7-3
		c-0.1-1.6-1.6-3-3.2-3h-7l0.2-0.8c0.5-1.7-0.6-3.6-2.4-4.3c-1.8-0.6-3.6,0.3-4.1,2l-0.8,3.1h-9.2c-1.6,0-2.9,1.3-2.7,3
		c0.1,1.6,1.6,3,3.2,3h7l-0.9,3.4h-10.4c-1.6,0-2.9,1.3-2.7,3c0.1,1.6,1.6,3,3.2,3h4.9c-2.8,2.4-6.8,5.2-11.9,7.8l5.1-18.8
		c0.5-1.8,0.1-3.6-1-5c-1.1-1.4-2.7-2.1-4.5-2.1H175c-2.8,0-5.6,2.1-6.3,4.8l-5.7,20.6c-0.5,1.8-0.1,3.6,1,5
		c1.1,1.4,2.7,2.1,4.5,2.1h5.3c1.3,0,2.7-0.5,3.8-1.3c0.7,1.2,1.9,1.9,3.2,1.9c0.5,0,0.9-0.1,1.3-0.3c4.4-2.1,8.3-4.4,11.5-6.8
		l-1.8,6.6c-0.5,1.7,0.6,3.6,2.4,4.3c0.4,0.1,0.8,0.2,1.2,0.2c1.4,0,2.6-0.8,2.9-2.2l2.9-10.5c2.1,2.7,5.1,5.6,9.1,8.1
		c0.6,0.4,1.3,0.6,1.9,0.6c1.1,0,2.1-0.5,2.6-1.5c0.9-1.5,0.3-3.6-1.3-4.6c-4.9-3.1-7.5-6.5-8.8-8.9h11
		C217.4,48.6,218.6,47.2,218.5,45.6z M173.5,56.7c0,0.2-0.2,0.3-0.4,0.3h-2.8c-0.2,0-0.3-0.1-0.2-0.3l5.5-20c0-0.2,0.2-0.3,0.4-0.3
		h2.8c0.2,0,0.3,0.1,0.2,0.3L173.5,56.7z M319.7,61.8h-32.9c-1.5,0-2.4-0.4-2.6-0.7c-0.3-0.4-0.4-1.3,0-2.7l3.2-11.6
		c0.4-1.5,0.1-3.1-0.9-4.4c-1.1-1.4-2.8-2.2-4.7-2.2h-3.2c-1.9,0-3.3,1.6-3,3.5c0.3,1.8,2,3.2,3.8,3.2h0.7c0.1,0,0.2,0.1,0.2,0.3
		l-2.4,8.9c-0.1,0.2-0.1,0.5-0.2,0.7c-0.6,2.1-1.1,3.7-5.9,5.5c-1.7,0.6-2.4,2.5-1.7,4.3c0.6,1.4,2,2.2,3.4,2.2
		c0.4,0,0.7-0.1,1.1-0.2c2.3-0.9,4.1-1.8,5.4-2.8c1.4,1.4,3.8,2.7,7.6,2.7h32.7c1.8,0,3.3-1.4,3.2-3.2
		C323.2,63.4,321.6,61.8,319.7,61.8z M265.7,53h-17.1l0.3-1h19.1c1.5,0,2.6-1.2,2.5-2.7c-0.1-1.5-1.5-2.7-3-2.7h-17.1l0.3-1h18.7
		c1.5,0,2.6-1.2,2.5-2.7c-0.1-1.5-1.5-2.7-3-2.7h-16.7l0.3-1h19.1c1.5,0,2.6-1.2,2.5-2.7c-0.1-1.5-1.5-2.7-3-2.7h-6.3l0.2-0.2
		c1.3-1.2,1.3-3.3-0.1-4.7c-1.3-1.4-3.5-1.6-4.7-0.3l-5.6,5.2h-9.1l-2.1-4c-0.9-1.7-2.9-2.5-4.5-1.7c-1.6,0.7-2.2,2.7-1.4,4.4
		l0.7,1.4h-9.8c-1.5,0-2.6,1.2-2.5,2.7c0.1,1.5,1.5,2.7,3,2.7h17.1l-0.3,1h-16.3c-1.5,0-2.6,1.2-2.5,2.7c0.1,1.5,1.5,2.7,3,2.7h14.3
		l-0.3,1h-19.1c-1.5,0-2.6,1.2-2.5,2.7c0.1,1.5,1.5,2.7,3,2.7h17.1l-0.3,1H223c-1.5,0-2.6,1.2-2.5,2.7c0.1,1.5,1.5,2.7,3,2.7h11.9
		c-3.6,1.8-8.7,3.3-15.3,3.7c-1.8,0.1-3.1,1.7-2.8,3.5c0.3,1.8,1.9,3.2,3.6,3.2c0.1,0,0.1,0,0.2,0c11.2-0.6,18.7-4.2,22.9-7.4
		c0.9,1,2,2,3.3,2.9c4,2.7,9.5,4.2,16.2,4.6c0.1,0,0.1,0,0.2,0c1.8,0,3.1-1.4,3-3.2c-0.1-1.8-1.6-3.4-3.5-3.5
		c-6.9-0.4-10.9-2.1-13-3.7h16c1.5,0,2.6-1.2,2.5-2.7C268.5,54.2,267.2,53,265.7,53z"/>
	<path id="XMLID_893_" class="st1" d="M208.6,90.7c-0.1-1.3-0.7-2.4-1.2-3.2l2.2-3.4c0.8-1.2,0.4-2.8-0.9-3.7
		c-0.4-0.3-0.9-0.5-1.4-0.5c0,0,0,0,0,0h-8.7c0,0-0.1,0-0.1,0c-1.1,0-2,0.7-2.3,1.7L191.4,99c-0.4,1.4,0.5,2.9,1.9,3.4
		c0.3,0.1,0.6,0.2,0.9,0.2c1.1,0,2-0.7,2.3-1.7l1.3-4.7c0.9,0.9,2.3,1.6,3.8,1.8c0.2,0,0.4,0,0.6,0c1.3,0,2.9-0.4,4.4-1.9
		C208.5,94,208.8,92.1,208.6,90.7z M203.2,92.5c-0.6,0.5-1.6,0.2-1.8,0.1c-0.7-0.6-1.6-0.9-2.4-0.8l1.9-6.9c0-0.1,0.1-0.2,0.2-0.2
		h1.9c0.1,0,0.2,0.2,0.1,0.3c-0.2,0.2-0.5,0.6-1.1,1.2c-0.9,1-0.7,2.6,0.4,3.5c0.2,0.2,0.8,0.8,0.9,1.3
		C203.7,91.3,203.8,91.9,203.2,92.5z M159.6,89l3.8-1.7c1.1-0.5,1.5-1.9,0.9-3.1c-0.6-1.1-1.9-1.6-3-1.3l0.4-1.5h2
		c1.3,0,2.3-1.1,2.1-2.4c-0.1-1.3-1.3-2.4-2.6-2.4H163l0.9-3.1c0.4-1.4-0.5-2.9-1.9-3.4c-1.4-0.5-2.9,0.2-3.2,1.6l-1.4,4.9h-2.5
		c-1.3,0-2.3,1.1-2.1,2.4c0.1,1.3,1.3,2.4,2.6,2.4h0.8l-1.2,4.5l-4.8,2.2c-1.1,0.5-1.5,1.9-0.9,3.1c0.5,0.9,1.4,1.4,2.3,1.4
		c0.3,0,0.6-0.1,0.9-0.2l0.8-0.4l-1,3.7c-0.2,0.7-0.5,1.1-0.6,1.1c-0.1,0-0.6,0-1.5-0.4c-1.3-0.7-2.9-0.2-3.5,1
		c-0.6,1.3,0,2.9,1.4,3.6c1.4,0.7,2.7,1.1,4,1.1c0.7,0,1.3-0.1,2-0.4c1.2-0.4,2.7-1.5,3.4-4.2L159.6,89z M232.3,80.8h-5.4l-1.9-1.6
		c-1.1-0.9-2.6-0.9-3.4,0.1c-0.4,0.4-0.6,1-0.5,1.6h-5.3c-1.3,0-2.3,1.1-2.1,2.4c0.1,1.3,1.3,2.4,2.6,2.4h16.6
		c1.3,0,2.3-1.1,2.1-2.4C234.7,81.8,233.6,80.8,232.3,80.8z M238.4,72.5h-7.4c-0.1-0.9-0.8-1.8-1.8-2.1c-0.3-0.1-0.7-0.2-1-0.1
		c-1,0-1.8,0.6-2.1,1.6l-0.2,0.7h-15.4c-0.1-0.9-0.8-1.8-1.8-2.1c-0.3-0.1-0.7-0.2-1-0.1c-1,0-1.8,0.6-2.1,1.6l-0.2,0.7h-3.9
		c-1.3,0-2.3,1.1-2.2,2.4c0.1,1.3,1.3,2.4,2.7,2.4h2.3c0.1,0.9,0.8,1.8,1.8,2.1c0.3,0.1,0.6,0.1,0.8,0.1c0,0,0,0,0,0c0,0,0,0,0,0
		c1,0,1.9-0.6,2.1-1.6l0.2-0.7h15.4c0.1,0.9,0.8,1.8,1.8,2.1c0.3,0.1,0.6,0.1,0.8,0.1c0,0,0,0,0,0c0,0,0,0,0,0c1,0,1.9-0.6,2.1-1.6
		l0.2-0.7h8.9c1.3,0,2.3-1.1,2.2-2.4C240.9,73.6,239.8,72.5,238.4,72.5z M231.9,88.1h-1.7c-0.1-0.6-0.3-1.1-0.8-1.6
		c-1-1-2.6-1-3.4-0.1l-1.6,1.6h-2.3l-1.9-1.6c-1.1-0.9-2.6-0.9-3.4,0.1c-0.4,0.4-0.6,1-0.5,1.6h-2.6c0,0-0.1,0-0.1,0
		c-1.1,0-2,0.7-2.3,1.7c-1.2,4.4-1.8,5.9-4.7,7.8c-1.1,0.7-1.4,2.3-0.7,3.5c0.6,0.9,1.5,1.4,2.5,1.4c0.5,0,1-0.1,1.4-0.4
		c3.8-2.5,5.1-5.2,6.2-9c0.1-0.2,0.2-0.3,0.4-0.3l16.1,0c1.3,0,2.3-1.1,2.1-2.5C234.4,89,233.2,88.1,231.9,88.1z M193.6,76.2
		c-0.4-0.8-1.3-2.1-3.8-2.1h-4.7l0.2-0.6c0.4-1.4-0.5-2.9-1.9-3.4c-1.4-0.5-2.9,0.2-3.2,1.6l-0.7,2.4h-6.6c-2,0-3.8,1.4-4.4,3.3
		c-0.7,2.3-2,6.4-3.1,9.7c-1.9,5.6-5.7,9.1-7.2,10.4c-0.2,0.1-0.3,0.3-0.4,0.4c-1,1-1,2.6,0.1,3.7c0.6,0.6,1.3,0.9,2.1,0.9
		c0.6,0,1.2-0.2,1.7-0.6c0.1-0.1,0.2-0.2,0.3-0.3c0.3-0.2,0.6-0.6,1-0.9c0.5,1.1,1.6,1.9,2.7,1.9c0.3,0,0.6,0,0.8-0.1
		c3.7-1.3,7.2-3,10.3-5c2.1,1.9,4.6,3.7,7.5,4.9c0.4,0.2,0.7,0.2,1.1,0.2c1,0,1.9-0.6,2.3-1.6c0.5-1.3-0.3-2.9-1.7-3.5
		c-1.9-0.8-3.5-1.9-4.9-3c2.1-1.6,3.9-3.2,5.3-4.6c0.9-0.9,2.7-2.8,1.6-5c-0.3-0.7-1.2-1.8-3-2c-0.2,0-0.3-0.1-0.5-0.1h-1.6l1.1-3.9
		h3.2c0.2,0,0.3,0.2,0.3,0.4c-0.4,0.9-0.3,2,0.5,2.8c0.5,0.5,1.2,0.8,1.8,0.8c0.6,0,1.1-0.2,1.5-0.6
		C192.9,80.5,194.7,78.4,193.6,76.2z M173.5,79.2c0.1-0.2,0.2-0.3,0.5-0.3h4.2l-1.1,3.9h-4.7C172.9,81.4,173.2,80.2,173.5,79.2z
		 M166.6,96.5c1.4-1.9,2.8-4.4,3.8-7.3c0,0,0-0.1,0-0.1c0.6,1.3,1.5,2.7,2.5,4.1C171,94.5,168.8,95.6,166.6,96.5z M180.5,87.7
		c-1,0.9-2.1,1.8-3.3,2.7c-0.8-1.1-1.4-2.1-1.8-3h5C180.5,87.4,180.6,87.6,180.5,87.7z"/>
	<path id="XMLID_853_" class="st2" d="M170.4,89.2c-1,2.9-2.4,5.4-3.8,7.3c2.2-0.9,4.4-2.1,6.4-3.3c-1-1.4-1.9-2.8-2.5-4.1
		C170.5,89.2,170.4,89.2,170.4,89.2z M178.2,78.8H174c-0.2,0-0.4,0.1-0.5,0.3c-0.3,1-0.7,2.2-1,3.6h4.7L178.2,78.8z M170.2,57.1h2.8
		c0.2,0,0.4-0.1,0.4-0.3l5.5-20c0-0.2-0.1-0.3-0.2-0.3h-2.8c-0.2,0-0.4,0.1-0.4,0.3l-5.5,20C169.9,56.9,170,57.1,170.2,57.1z
		 M175.4,87.4c0.4,0.9,1,1.9,1.8,3c1.2-0.9,2.3-1.8,3.3-2.7c0.1-0.1,0-0.3-0.1-0.3H175.4z M335,47.6c1.5-1.7,2.3-4,2.1-6.3
		c-0.4-4.5-4.2-7.9-8.7-7.9h-7c-0.3-3.5-2.6-6.7-6.1-7.9c-2.3-0.8-4.8-0.6-7,0.5c-2.1,1.1-3.6,3-4.2,5.2c-0.1,0.4-0.2,0.9-0.4,1.4
		c-0.1,0.3-0.1,0.5-0.2,0.8h-7c-0.1,0-0.3,0-0.4,0c-0.2-0.2-0.3-0.4-0.5-0.6c-0.4-0.5-2.6-3.1-6.1-5.3c-2.1-1.3-4.6-1.7-6.9-1.1
		c-2.2,0.6-4.1,2-5.3,4c-0.2,0.4-0.4,0.8-0.6,1.3c-1.2-0.7-2.6-1.1-4.1-1.1h-0.3c-0.4-1.2-1.1-2.3-2-3.2c-3.4-3.5-8.9-3.8-12.4-0.6
		l-4,3.8h-3.7l-0.6-1.1c-2.2-4.3-7.3-6.1-11.6-4.2c-2.1,1-3.7,2.7-4.5,4.9c0,0.1-0.1,0.3-0.1,0.4h-3.6c-2.2,0-4.4,0.9-5.9,2.6
		c-0.3,0.4-0.6,0.8-0.9,1.2c-1.6-2.4-4.3-4.1-7.4-4.1h-2.1c-1-2.1-2.9-3.9-5.3-4.8c-2.3-0.8-4.8-0.6-7,0.5c-1.8,0.9-3.1,2.5-3.9,4.3
		h-5.1c-0.9,0-1.8,0.1-2.6,0.4c-2.1-2.1-4.9-3.3-7.9-3.3h-5.3c-5.3,0-10.2,3.7-11.6,8.8l-5.6,20.6c-0.8,3-0.4,6,1.1,8.6
		c-0.4,0.1-0.9,0.3-1.3,0.5c-2.1,1.1-3.6,3-4.2,5.3l-0.9,3.3c-1.1,0.3-2.1,0.9-2.8,1.8c-1.2,1.3-1.8,3.1-1.6,5
		c0.1,1.4,0.7,2.7,1.6,3.8l-0.1,0.4l-1.7,0.8c-1.7,0.8-3,2.3-3.7,4.1c-0.4,1.3-0.5,2.7-0.1,4c-1.5,0.9-2.7,2.2-3.4,3.8
		c-2,4.3-0.2,9.4,4.1,11.6c2.4,1.3,4.8,1.9,7.1,1.9c1.5,0,2.9-0.3,4.3-0.8c0.6-0.2,1.4-0.6,2.1-1.1c0.5,0.1,1,0.1,1.5,0.1
		c1,0,1.9-0.2,2.8-0.5c0.9,0.3,1.8,0.5,2.8,0.5c0.9,0,1.8-0.1,2.6-0.4c2.8-1,5.5-2.2,8-3.5c1.8,1.3,3.8,2.4,5.9,3.3
		c1,0.4,2.1,0.7,3.2,0.7c1.6,0,3.1-0.5,4.4-1.3c0.5,0.3,1.1,0.6,1.8,0.9c0.9,0.3,1.8,0.5,2.7,0.5c3,0,5.6-1.6,6.9-4.2
		c0,0.1,0.1,0.1,0.1,0.2c1.5,2.4,4.2,3.9,7.1,3.9c1.6,0,3.1-0.5,4.4-1.3c3.1-2.1,3.9-3.2,5-4.3h11.2c6.4,0,12.5-2.2,11.8-10.9
		c-0.1-1.7-0.9-3.5-1.5-4.2c0.8-1.4,1.1-2.9,1-4.5c0-0.3-0.1-0.6-0.1-0.9c0.7-0.4,1.3-0.9,1.8-1.4c1.4-1.6,2.2-3.7,2-5.9
		c-0.2-1.8-0.9-3.4-2.1-4.7c0.7-0.3,1.3-0.7,2-1.1c0.3,0.2,0.5,0.4,0.8,0.6c4.8,3.2,11.2,5.1,18.9,5.5c0.2,0,0.3,0,0.5,0
		c1.8,0,3.4-0.5,4.8-1.5c1.4,1,3.2,1.5,5,1.5c1,0,2-0.2,3-0.5c1.3-0.5,2.4-0.9,3.4-1.5c2,1,4.5,1.7,7.7,1.7h32.7
		c2.4,0,4.7-1,6.3-2.7c1.6-1.7,2.4-3.8,2.3-6.1c-0.1-2-0.8-3.9-2.1-5.4c0.4-1.5,0.4-3.1-0.1-4.7c-0.8-2.6-1.9-5-3.3-7.2h3.9
		C331.2,50.2,333.4,49.3,335,47.6z M280.4,30.7c0.9-1.5,2.9-2,4.5-0.9c2.8,1.8,4.7,3.9,4.8,4.1c1.2,1.5,1.1,3.6-0.2,4.7
		c-0.6,0.5-1.2,0.7-1.9,0.7c-1,0-2.1-0.5-2.8-1.3c0-0.1-1.3-1.4-3.1-2.6C280.1,34.3,279.5,32.2,280.4,30.7z M163.1,55.9l5.7-20.6
		c0.8-2.8,3.5-4.8,6.3-4.8h5.3c1.8,0,3.4,0.8,4.5,2.1c1.1,1.4,1.5,3.2,1,5l-5.1,18.8c5.2-2.6,9.1-5.4,11.9-7.8h-4.9
		c-1.6,0-3.1-1.3-3.2-3c-0.1-1.6,1.1-3,2.7-3h10.4l0.9-3.4h-7c-1.6,0-3.1-1.3-3.2-3c-0.1-1.6,1.1-3,2.7-3h9.2l0.8-3.1
		c0.5-1.7,2.3-2.6,4.1-2c1.8,0.6,2.9,2.5,2.4,4.3l-0.2,0.8h7c1.6,0,3.1,1.3,3.2,3c0.1,1.6-1.1,3-2.7,3h-9.2l-0.9,3.4h10.6
		c1.6,0,3.1,1.3,3.2,3c0.1,1.6-1.1,3-2.7,3h-11c1.3,2.5,4,5.8,8.8,8.9c1.6,1,2.2,3.1,1.3,4.6c-0.6,1-1.6,1.5-2.6,1.5
		c-0.6,0-1.3-0.2-1.9-0.6c-4-2.5-7-5.4-9.1-8.1l-2.9,10.5c-0.4,1.4-1.6,2.2-2.9,2.2c-0.4,0-0.8-0.1-1.2-0.2
		c-1.8-0.6-2.9-2.5-2.4-4.3l1.8-6.6c-3.2,2.3-7.1,4.7-11.5,6.8c-0.4,0.2-0.9,0.3-1.3,0.3c-1.2,0-2.5-0.7-3.2-1.9
		c-1.1,0.8-2.4,1.3-3.8,1.3h-5.3c-1.8,0-3.4-0.8-4.5-2.1C163,59.5,162.6,57.7,163.1,55.9z M153.9,101.7c-0.6,0.2-1.3,0.4-2,0.4
		c-1.2,0-2.5-0.4-4-1.1c-1.3-0.7-1.9-2.3-1.4-3.6c0.6-1.3,2.2-1.7,3.5-1c0.9,0.5,1.4,0.5,1.5,0.4c0.1-0.1,0.4-0.4,0.6-1.1l1-3.7
		l-0.8,0.4c-0.3,0.1-0.6,0.2-0.9,0.2c-0.9,0-1.8-0.5-2.3-1.4c-0.6-1.2-0.2-2.6,0.9-3.1l4.8-2.2l1.2-4.5h-0.8c-1.3,0-2.4-1.1-2.6-2.4
		c-0.1-1.3,0.8-2.4,2.1-2.4h2.5l1.4-4.9c0.4-1.4,1.8-2.1,3.2-1.6c1.4,0.5,2.3,2,1.9,3.4l-0.9,3.1h0.3c1.3,0,2.4,1.1,2.6,2.4
		c0.1,1.3-0.8,2.4-2.1,2.4h-2l-0.4,1.5c1.1-0.4,2.4,0.2,3,1.3c0.6,1.2,0.2,2.6-0.9,3.1l-3.8,1.7l-2.3,8.4
		C156.6,100.1,155.1,101.2,153.9,101.7z M189.6,82.8c-0.6,0-1.3-0.3-1.8-0.8c-0.8-0.8-0.9-1.9-0.5-2.8c0.1-0.2,0-0.4-0.3-0.4h-3.2
		l-1.1,3.9h1.6c0.2,0,0.3,0,0.5,0.1c1.9,0.2,2.7,1.3,3,2c1.1,2.3-0.7,4.1-1.6,5c-1.4,1.4-3.2,3-5.3,4.6c1.4,1.2,3.1,2.2,4.9,3
		c1.4,0.6,2.1,2.1,1.7,3.5c-0.3,1-1.3,1.6-2.3,1.6c-0.4,0-0.7-0.1-1.1-0.2c-2.9-1.2-5.4-2.9-7.5-4.9c-3.1,1.9-6.6,3.7-10.3,5
		c-0.3,0.1-0.5,0.1-0.8,0.1c-1.1,0-2.2-0.7-2.7-1.9c-0.4,0.4-0.7,0.7-1,0.9c-0.1,0.1-0.2,0.2-0.3,0.3c-0.5,0.4-1.1,0.6-1.7,0.6
		c-0.7,0-1.5-0.3-2.1-0.9c-1.1-1.1-1.1-2.8-0.1-3.7c0.1-0.1,0.2-0.2,0.4-0.4c1.4-1.3,5.3-4.8,7.2-10.4c1.1-3.3,2.4-7.4,3.1-9.7
		c0.6-1.9,2.4-3.3,4.4-3.3h6.6l0.7-2.4c0.4-1.4,1.8-2.1,3.2-1.6c1.4,0.5,2.3,2,1.9,3.4l-0.2,0.6h4.7c2.5,0,3.4,1.3,3.8,2.1
		c1,2.2-0.7,4.3-2.5,6C190.7,82.6,190.2,82.8,189.6,82.8z M202.2,97.9c-0.2,0-0.4,0-0.6,0c-1.5-0.1-2.9-0.8-3.8-1.8l-1.3,4.7
		c-0.3,1.1-1.2,1.7-2.3,1.7c-0.3,0-0.6-0.1-0.9-0.2c-1.4-0.5-2.3-2-1.9-3.4l4.8-17.3c0.3-1.1,1.2-1.7,2.3-1.7c0,0,0.1,0,0.1,0h8.7
		c0,0,0,0,0,0c0.5,0,1,0.2,1.4,0.5c1.3,0.9,1.7,2.5,0.9,3.7l-2.2,3.4c0.6,0.9,1.1,1.9,1.2,3.2c0.1,1.3-0.1,3.3-2,5.2
		C205.1,97.5,203.4,97.9,202.2,97.9z M232.5,92.8l-16.1,0c-0.2,0-0.4,0.1-0.4,0.3c-1.1,3.8-2.5,6.5-6.2,9c-0.4,0.3-0.9,0.4-1.4,0.4
		c-0.9,0-1.9-0.5-2.5-1.4c-0.8-1.2-0.4-2.8,0.7-3.5c2.9-2,3.5-3.4,4.7-7.8c0.3-1.1,1.2-1.7,2.3-1.7c0,0,0.1,0,0.1,0h2.6
		c0-0.6,0.1-1.1,0.5-1.6c0.8-1,2.4-1,3.4-0.1l1.9,1.6h2.3l1.6-1.6c0.9-0.9,2.4-0.9,3.4,0.1c0.5,0.4,0.7,1,0.8,1.6h1.7
		c1.3,0,2.5,1,2.7,2.2C234.8,91.6,233.8,92.8,232.5,92.8z M232.7,85.5h-16.6c-1.3,0-2.4-1.1-2.6-2.4c-0.1-1.3,0.8-2.4,2.1-2.4h5.3
		c0-0.6,0.1-1.1,0.5-1.6c0.8-1,2.4-1,3.4-0.1l1.9,1.6h5.4c1.3,0,2.4,1.1,2.6,2.4C235,84.4,234,85.5,232.7,85.5z M238.9,77.3h-8.9
		l-0.2,0.7c-0.3,1-1.1,1.6-2.1,1.6c0,0,0,0,0,0c0,0,0,0,0,0c-0.3,0-0.6,0-0.8-0.1c-1-0.3-1.6-1.2-1.8-2.1h-15.4l-0.2,0.7
		c-0.3,1-1.1,1.6-2.1,1.6c0,0,0,0,0,0c0,0,0,0,0,0c-0.3,0-0.6,0-0.8-0.1c-1-0.3-1.6-1.2-1.8-2.1h-2.3c-1.3,0-2.5-1.1-2.7-2.4
		c-0.1-1.3,0.9-2.4,2.2-2.4h3.9l0.2-0.7c0.3-1,1.1-1.6,2.1-1.6c0.3,0,0.7,0,1,0.1c1,0.3,1.6,1.2,1.8,2.1H226l0.2-0.7
		c0.3-1,1.1-1.6,2.1-1.6c0.3,0,0.7,0,1,0.1c1,0.3,1.6,1.2,1.8,2.1h7.4c1.3,0,2.5,1.1,2.7,2.4C241.2,76.2,240.2,77.3,238.9,77.3z
		 M266.2,58.4h-16c2.1,1.6,6.1,3.3,13,3.7c1.9,0.1,3.4,1.7,3.5,3.5c0.1,1.8-1.3,3.2-3,3.2c-0.1,0-0.1,0-0.2,0
		c-6.7-0.4-12.2-1.9-16.2-4.6c-1.3-0.9-2.4-1.8-3.3-2.9c-4.2,3.3-11.6,6.8-22.9,7.4c-0.1,0-0.1,0-0.2,0c-1.8,0-3.4-1.4-3.6-3.2
		c-0.3-1.8,1-3.4,2.8-3.5c6.6-0.4,11.7-1.9,15.3-3.7h-11.9c-1.5,0-2.8-1.2-3-2.7c-0.1-1.5,1-2.7,2.5-2.7H242l0.3-1h-17.1
		c-1.5,0-2.8-1.2-3-2.7c-0.1-1.5,1-2.7,2.5-2.7h19.1l0.3-1h-14.3c-1.5,0-2.8-1.2-3-2.7c-0.1-1.5,1-2.7,2.5-2.7h16.3l0.3-1h-17.1
		c-1.5,0-2.8-1.2-3-2.7c-0.1-1.5,1-2.7,2.5-2.7h9.8l-0.7-1.4c-0.9-1.7-0.3-3.7,1.4-4.4c1.6-0.7,3.7,0.1,4.5,1.7l2.1,4h9.1l5.6-5.2
		c1.3-1.2,3.4-1,4.7,0.3c1.3,1.4,1.4,3.5,0.1,4.7l-0.2,0.2h6.3c1.5,0,2.8,1.2,3,2.7c0.1,1.5-1,2.7-2.5,2.7h-19.1l-0.3,1h16.7
		c1.5,0,2.8,1.2,3,2.7c0.1,1.5-1,2.7-2.5,2.7h-18.7l-0.3,1h17.1c1.5,0,2.8,1.2,3,2.7c0.1,1.5-1,2.7-2.5,2.7h-19.1l-0.3,1h17.1
		c1.5,0,2.8,1.2,3,2.7C268.8,57.2,267.7,58.4,266.2,58.4z M320.1,68.4h-32.7c-3.8,0-6.1-1.3-7.6-2.7c-1.3,1-3,2-5.4,2.8
		c-0.4,0.1-0.7,0.2-1.1,0.2c-1.4,0-2.7-0.9-3.4-2.2c-0.8-1.7,0-3.6,1.7-4.3c4.8-1.7,5.3-3.4,5.9-5.5c0.1-0.2,0.1-0.5,0.2-0.7
		l2.4-8.9c0-0.1-0.1-0.3-0.2-0.3h-0.7c-1.8,0-3.6-1.4-3.8-3.2c-0.3-1.9,1.1-3.5,3-3.5h3.2c1.9,0,3.6,0.8,4.7,2.2
		c1,1.3,1.3,2.9,0.9,4.4l-3.2,11.6c-0.4,1.4-0.3,2.3,0,2.7c0.2,0.3,1.1,0.7,2.6,0.7h32.9c1.9,0,3.6,1.6,3.7,3.5
		C323.4,67.1,321.9,68.4,320.1,68.4z M311,42.4c-0.2,0.4-0.4,0.8-0.6,1.2c5.3,2.4,9.2,7,11,13c0.5,1.8-0.5,3.6-2.3,3.9
		c-0.2,0-0.4,0.1-0.7,0.1c-1.6,0-3-1.1-3.5-2.7c-1.6-5.6-5.4-7.9-8.2-8.8c-3.4,4.2-8.5,8.2-16.5,11.2c-0.4,0.1-0.8,0.2-1.1,0.2
		c-1.4,0-2.7-0.8-3.3-2.2c-0.8-1.7-0.1-3.7,1.6-4.3c8.2-3.1,12.8-7.4,15.6-11.7h-7.7c-1.6,0-3.1-1.3-3.2-3c-0.1-1.6,1.1-3,2.7-3
		h11.1c0.6-1.7,1-3.4,1.4-4.9c0.1-0.5,0.3-1,0.4-1.4c0.5-1.7,2.3-2.6,4.1-2c1.8,0.6,2.9,2.5,2.4,4.3c-0.1,0.4-0.2,0.9-0.4,1.3
		c-0.2,0.8-0.4,1.7-0.7,2.6h13.6c1.6,0,3.1,1.3,3.2,3c0.1,1.6-1.1,3-2.7,3H311z M202.6,89.5c-1.1-0.9-1.4-2.4-0.4-3.5
		c0.5-0.6,0.9-0.9,1.1-1.2c0.1-0.1,0-0.3-0.1-0.3h-1.9c-0.1,0-0.2,0.1-0.2,0.2l-1.9,6.9c0.8-0.1,1.7,0.2,2.4,0.8
		c0.2,0.1,1.2,0.4,1.8-0.1c0.6-0.5,0.5-1.1,0.3-1.7C203.3,90.3,202.8,89.7,202.6,89.5z M304.4,93h-0.7c-1.9,0-5.9,0.8-6.4,2.5
		c-0.2,0.8,0,1.6,0.7,1.6c1,0.1,1.3-0.5,2.6-0.5c1.3,0,2,0.5,1.8,1.8c-3.2-0.4-6.4,0.2-7.3,3.3c-0.5,1.8,0.1,3.3,2.3,3.3
		c1.7,0,2.6-0.4,3.8-1.6c0,1.1,0.9,1.7,2.3,1.7h0.2c1.8,0,3.8-0.9,4.3-2.6c0.4-1.6,0.9-3.2,1.3-4.8C310.4,94.5,307.7,93,304.4,93z
		 M302.3,101.4c-0.3,1-0.8,1.4-1.7,1.4c-0.2,0-0.7-0.7-0.6-1.1c0-0.1,0-0.2,0.1-0.2c0.1-0.5,0.9-1.1,1.4-1.1
		C302,100.2,302.4,100.8,302.3,101.4z M267.7,93.5h-0.4c-1.8,0-3.2,1-3.7,2.8L262,102c-0.5,1.8,0.4,2.8,2.2,2.8h0.4
		c1.6,0,3.3-1,3.7-2.6l1.6-6C270.5,94.5,269.5,93.5,267.7,93.5z M253.5,92c4.4,0,7.5-1.8,8.3-5.5c0.8-3.8-1-5.9-4.9-5.9
		c-1.3,0-3.3,0.2-5.1,0.4c-0.4,0.1-0.9,0.4-1,0.9l-2.4,8.7c-0.1,0.4,0.1,0.9,0.6,1C250.4,91.8,252.1,92,253.5,92z M254.7,84.6
		c0.1,0,0.7,0,0.9,0c1.3,0,1.5,0.9,1.2,1.9c-0.3,1.1-1,1.8-2.2,1.8c-0.1,0-0.8,0-0.9,0L254.7,84.6z M271.7,80.2
		c-4.3,0-7.8,2.3-8.9,6.3c-0.9,3.4,1.5,5.8,5.2,5.8c3.9,0,7.5-2.4,8.5-6C277.5,82.9,275.6,80.2,271.7,80.2z M271.4,86.3
		c-0.3,1.1-1,1.8-2.2,1.8c-1.2,0-1.6-0.7-1.3-1.8c0.3-1,1.2-1.9,2.3-1.9C271.5,84.4,271.7,85.3,271.4,86.3z M304.4,86.3
		c0.9-3.4-0.9-6.1-4.8-6.1c-4.3,0-7.8,2.3-8.9,6.3c-0.9,3.4,1.5,5.8,5.2,5.8C299.9,92.3,303.4,89.9,304.4,86.3z M295.9,86.4
		c0.3-1,1.2-1.9,2.3-1.9c1.3,0,1.5,0.9,1.2,1.9c-0.3,1.1-1,1.8-2.2,1.8C296,88.1,295.6,87.4,295.9,86.4z M258.5,92.9
		c-2.4,0-3.6,0.9-4.8,1.8c0-0.9-1-1.8-2.1-1.8c-2.2-0.1-3.9,0.6-4.5,2.9l-2.9,10.6c-0.6,2,0.4,2.9,2.3,2.9c3.7,0,4.2-2.1,5.1-5.4
		c1.1,0.7,2,0.9,3.3,0.9c3.4,0,5.8-2.6,6.8-6.1C262.5,96.2,261.8,92.9,258.5,92.9z M253.5,101c-1.4,0-1.4-1-1.2-2
		c0.3-1.1,0.8-1.8,2.1-1.8C256.5,97.2,255.5,101,253.5,101z M292.5,101H290c0.9-1.4,5.4-5,5.8-6.2c0.4-1-0.4-1.3-1.5-1.3h-7.5
		c-1.2,0-2.2,0.8-2.6,1.9c-0.6,1.7,2.1,1.7,3.9,1.7c-1,1.1-5.6,5.5-5.9,6.4l-0.2,0.4c-0.2,0.7,0.3,0.9,1,0.9h8.1
		c1.3,0,2.6-0.6,3-1.9l0.1-0.2C294.8,101.4,293.8,101,292.5,101z M277,91.5c1.3,0.3,3,0.4,4.4,0.4c4.4,0,7.5-1.8,8.3-5.5
		c0.8-3.8-1-5.9-4.9-5.9c-1.3,0-3.3,0.2-5.1,0.4c-0.4,0.1-0.9,0.4-1,0.9l-2.4,8.7C276.3,91,276.5,91.4,277,91.5z M282.6,84.6
		c0.1,0,0.7,0,0.9,0c1.3,0,1.5,0.9,1.2,1.9c-0.3,1.1-1,1.8-2.2,1.8c-0.1,0-0.8,0-0.9,0L282.6,84.6z M279.6,101H277
		c0.9-1.2,5.4-5,5.8-6.2c0.4-1-0.4-1.3-1.5-1.3h-7.5c-1.2,0-2.4,0.7-2.6,1.9c-0.4,2,2.1,1.7,3.9,1.7c-1,1.1-5.6,5.5-5.9,6.4
		l-0.2,0.4c-0.2,0.7,0.3,0.9,1,0.9h8.1c1.3,0,2.6-0.6,3-1.9C281.8,101.5,280.9,101,279.6,101z"/>
</g>
</svg>
