<svg xmlns="http://www.w3.org/2000/svg" width="148.086" height="61.877" viewBox="0 0 148.086 61.877"><path fill="#E5E5E5" d="M32.446 13.338c-.82-.4-4.048-.652-4.362-2.057-.144-.64-3.18-1.523-4.984-1.663h.003s-4.525 4.147.512 7.84c0 0-1.428-.378-1.72 1.484s2.925 3.866 2.925 3.866l1.978 3.614c1.323.756 2.97 7.343 2.97 7.343l8.46-5.352c-3.022-.76-4.087-3.925-4.76-5.533-.18-.433-.086-.93.233-1.272l1.06-1.125c.81-.87.29-1.904-.677-2.798-.26-.24-.304-.675-.46-1.12-.105-.296-.852.34-.852.34s.716-1.373.35-1.398c-.24-.016-.49-.183-.55-.555-.095-.59.49-1.31-.123-1.613"/><path d="M23.102 9.617s-3.776-.828-6.554 2.64c-.768.96-1.27 1.937-1.58 2.903-.285-.58-.774-1.078-1.51-1.34-.833-.293-1.798-.145-2.494.397-1.41 1.1-1.367 3.132-.065 4.19 1.13.92 2.777.76 3.714-.344.175 2.64 1.642 4.887 3.17 5.926 3.508 2.38 9.01 2.427 9.01 2.427l-1.16-4.005c-.097-.34-.35-.61-.682-.727-1.045-.363-3.28-1.315-3.058-2.747.16-1.033 1.065-1.392 1.838-1.505.382-.056.506-.532.225-.797-3.672-3.47-.856-7.02-.856-7.02m39.79 32.267V57.81c4.727 1.846 8.6 3.643 12.435 3.715 7.22.137 10.928-3.137 12.873-6.316 1.915-3.133 15.235-22.91 15.235-22.91s.51 3.54 7.833 9.05c2.497 1.88 6.346 4.653 12.333 8.71l4.5-2.75-15.17-19.48c-8.25-9.09-12-13.674-22-3.353-10 10.322-19.5 16.87-19.5 16.87l-8.54.535m0 15.928l5.43-15.328c-4.67-2.724-11.428-7.135-11.428-7.135s.086-2.51-1.19-4.36c-1.275-1.85-2.972-3.245-7.164-2.764-2.064.236-12.315-.036-12.88-.038-2.088-.006-4.11 1.096-5.432 2.918-2.296 3.166-.84 6.81 1.574 9.888 4.642 5.918 21.258 12.03 31.09 16.82" fill="#666"/><path fill="#E5E5E5" d="M89.208.004c-.863-.093-3.43 1.533-3.43 1.533L76.43 6.244l-21.32 13.75c-.45.362-15.45 8.12-17.107 8.83-1.21.52-2.205 1.043-3.02 1.577-1.247.323-2.392 1.063-3.206 2.186-1.86 2.56-1.287 6.143 1.275 8 2.56 1.857 6.143 1.29 8-1.273.05-.07.093-.144.14-.215 3.98-2.394 15.935-12.207 18.625-14.57C62.52 22.155 77.083 9.604 78.383 8.95c1.26-.632 4.2-1.4 5.494-2.798 1.29-1.4 6.192-6.055 5.33-6.148zm38.894 47.304l4.503 5.222-5.672 3.1-3.334-5.572z"/><path d="M144.233 61.532c6.14-.688 3.77-4.168.943-4.023-.875.04-5.12-.316-8.168-2.703-1.48-1.16-3.22-3.87-5.06-3.87-1.84 0-.786 2.03-3.368 2.03-2.027 0-2.77-1.443-3.916-1.438-1.652.007-2.287 7.14.565 10h4.827s2.13-1.452 6.97 0h7.205z" fill="#666"/></svg>