<svg xmlns="http://www.w3.org/2000/svg" width="148.086" height="61.877" viewBox="0 0 148.086 61.877"><path fill="#E5E5E5" d="M19.323 37.954c-.913-.01-3.936 1.146-4.823.013-.403-.517-3.524-.015-5.216.634h.003s-2.31 5.69 3.824 6.863c0 0-1.45.27-.913 2.078.536 1.808 4.3 2.237 4.3 2.237l3.335 2.418c1.522.115 5.835 5.358 5.835 5.358l5.347-8.464c-3.06.607-5.376-1.796-6.673-2.96-.35-.31-.48-.803-.336-1.25l.47-1.47c.36-1.132-.554-1.843-1.81-2.235-.337-.104-.563-.48-.896-.814-.222-.222-.623.674-.623.674s.057-1.546-.284-1.412c-.223.09-.52.046-.734-.266-.336-.487-.117-1.393-.802-1.4"/><path d="M9.287 38.6s-3.767.874-4.788 5.195c-.283 1.196-.318 2.295-.183 3.3-.507-.4-1.163-.642-1.94-.56-.877.09-1.686.64-2.082 1.427-.8 1.6.11 3.415 1.74 3.814 1.414.346 2.835-.506 3.207-1.905 1.29 2.31 3.58 3.71 5.406 3.993 4.19.647 9.18-1.67 9.18-1.67l-2.765-3.12c-.234-.263-.578-.4-.93-.363-1.1.12-3.527.218-3.94-1.17-.296-1.004.367-1.714 1.016-2.148.32-.214.23-.697-.14-.815-4.805-1.56-3.784-5.976-3.784-5.976m52.694 3.63v15.925c4.727 1.845 8.6 3.642 12.435 3.715 7.22.136 10.927-3.137 12.873-6.317 1.916-3.13 15.233-22.907 15.233-22.907s.513 3.54 7.837 9.047c2.496 1.88 6.346 4.654 12.332 8.71l4.503-2.75-15.17-19.476c-8.25-9.09-12-13.675-22-3.354-10 10.322-19.5 16.87-19.5 16.87l-8.54.536M48.54 58.994c5.28-1.38 8.5-1.396 13.44-.84V42.23c-5.378.536-14.027.124-14.027.124s-1.403-2.082-3.522-2.832c-2.12-.748-4.31-.88-7.422 1.972-1.53 1.4-9.99 7.2-10.447 7.53-1.693 1.22-2.683 3.302-2.683 5.552 0 3.91 3.19 6.663 7.08 7.08 3.75.402 9.084-.442 17.584-2.66" fill="#666"/><path fill="#E5E5E5" d="M74.945 8.637c-.864.085-3.043 2.202-3.043 2.202l-8.187 6.52-18.057 17.82c-.365.446-13.46 11.11-14.937 12.146-3.372 2.36-4.79 4.378-4.56 6.23-.1.42-.157.856-.157 1.308 0 3.164 2.563 5.73 5.73 5.73 3.045 0 5.528-2.377 5.71-5.38 4.157-4.44 11.864-14.044 13.752-16.56 2.16-2.873 13.847-18.138 14.985-19.042 1.104-.878 3.826-2.23 4.805-3.865.98-1.633 4.824-7.194 3.96-7.108zm52.247 39.016l4.502 5.222-5.673 3.103-3.33-5.575z"/><path d="M143.323 61.877c6.14-.687 3.77-4.168.943-4.022-.875.043-5.12-.314-8.168-2.7-1.48-1.16-3.22-3.872-5.06-3.872-1.84 0-.786 2.03-3.368 2.03-2.027 0-2.77-1.442-3.916-1.437-1.652.008-2.287 7.14.565 10.002h4.827s2.13-1.452 6.97 0h7.205z" fill="#666"/></svg>