<svg xmlns="http://www.w3.org/2000/svg" width="119.755" height="211.526" viewBox="0 0 119.755 211.526"><path fill="#E5E5E5" d="M93.242 13.524c-.17-.34-1.14-1.528-1.007-3.513.034-.526.038-.99.027-1.423C92.172 4.364 90.2 4.35 90.2 4.35l-.818.076c-.01.32-.025.6-.048.858-.222 2.7-1.062 2.073-2.403 3.076-1.477 1.105-1.367 2.74-1.367 2.74h-.83s-.488-1.84-2.02-1.84c-.58 0-1 .335-1.276.772-.26.41-.392.91-.392 1.312 0 .488-.572 1.566-1.022 2.34-.11.188-.21.357-.298.497-.14.233-.235.38-.235.38l-.36.93-.414 1.07-.57.024c.074.417.176 1.202.176 2.458l-2.568 7.852c-1.464 2.805-3.362 6.576-4.066 11.06 1.103-4.76 3.602-11.818 8.75-12.243 2.417-.2 4.21.96 5.613 2.74.004 0 .005.003.006.005.46.582.878 1.23 1.26 1.918 1.95 3.086 3.68 6.316 3.687 6.334L86.93 27.63l-.036-.916.3-6.013s1.98-.24 3.09-.39c1.112-.15 1.282-.317 1.302-1.59.02-1.274-.335-1.076.082-1.627.417-.552.02-.823.02-.823.44.103.52-.925.52-.925s-.803-.624.38-.642c1.18-.017.82-.84.654-1.18"/><path fill="#E5E5E5" d="M84.92 104.66h-8.3c.12 1.203.25 2.423.396 3.662.07.61.225 1.175.43 1.692-2.27 4.87-4.805 11.444-4.336 18.327.64 9.385 2.706 20.607 2.405 26.57 1.955.02 1.182 2.1 3.205 2.1 2.672 0 2.375-2.102 4.276-2.102.02 0 .035.004.053.006.044-5.978.23-22.04.92-24.29.344-1.107.743-5.32 1.1-9.977 1.434-3.655 2.445-10.207 2.94-15.053.14-.303.28-.614.422-.934H84.92zm2.22-23.123c-.314-1.366-1.346-5.725-2.758-10.814-.15-.542-.306-1.092-.463-1.65-1.398-4.89-3.094-10.192-4.814-14.05.645-1.113 1.506-3.165 2.353-5.574 5.512-.285 6.446-5.25 6.446-11.355 0-2.39-.45-4.603-1.216-6.433-.232-1.192-.86-2.31-2.07-3.233-1.062-1.08-2.31-1.717-3.652-1.717-2.03 0-3.854 1.444-5.123 3.73-1.658 2.063-2.804 4.823-2.583 7.56.01.088.035.158.045.243-.824 1.838-1.506 4.184-1.64 7.12-.114 2.477.16 5.37 1.066 8.73.068.255.168.493.28.722-.36 2.34-.374 5.25.667 8.34.308.91.647 1.867 1.013 2.847.572 1.546 1.207 3.148 1.854 4.717.148.355.295.708.444 1.06 1.62 3.825 3.283 7.298 4.397 9.072h-.005s-.384 3.28 0 6.586c.19 1.642.487 2.867.74 3.688.065.217.127.406.185.564l-1.164 2.648c-.18.42.01.91.43 1.094.107.048.22.07.332.07.155 0 .31-.045.438-.127-.04.35.14.7.478.85.11.047.225.07.338.07.293 0 .567-.162.717-.43 0 .306.16.602.455.747.12.058.244.087.367.087.307 0 .6-.17.746-.462l.098-.2c-.13.382.02.81.388 1 .123.064.253.095.383.095.3 0 .59-.163.74-.447l1.716-2.85.056-.27.596-2.982-.594-2.364-1.68-6.685z"/><path d="M77.71 16.602l.433-.02.57-.023.415-1.073.36-.93s.095-.147.235-.378c.085-.14.188-.31.296-.498.45-.773 1.022-1.852 1.022-2.34 0-.403.13-.902.39-1.312.276-.436.7-.772 1.28-.772 1.528 0 2.017 1.84 2.017 1.84h.83s-.11-1.634 1.37-2.74c1.34-1.002 2.18-.374 2.402-3.075.02-.257.037-.536.047-.858l.82-.076s1.973.013 2.062 4.235l.174-1.308C93.426 4.947 90.796 0 86.103 0H83.36c-5.113 0-8.688 3.613-8.38 9.156-.005.01-.02.032-.02.032 0 2.476 2.75 5.842 2.75 7.414M119.755 125.834l-5.858-.976-6.396 41.006H70.93v4.685l-1.953 40.976h4.884l.53-11.135h35.14l.463 11.136h4.882l-1.82-43.662 6.7-42.03zm-45.235 71.8l1.228-25.73h32.59l1.073 25.73H74.52zM94.344 86.512c-.24-5.943-.98-15.79-.98-15.79h-8.98c1.41 5.09 2.44 9.45 2.757 10.815l1.68 6.683.596 2.364-.597 2.982c.004.092-.01.184-.056.27l-1.718 2.85c-.15.285-.44.448-.737.448-.13 0-.26-.03-.385-.094-.367-.192-.516-.62-.386-1l-.1.2c-.146.293-.44.462-.746.462-.124 0-.25-.028-.367-.086-.293-.146-.454-.44-.454-.747-.15.266-.425.43-.72.43-.11 0-.225-.025-.335-.073-.34-.15-.516-.5-.478-.85-.13.082-.283.128-.44.128-.11 0-.223-.024-.332-.07-.42-.185-.61-.675-.428-1.095l1.164-2.647c-.057-.16-.12-.348-.186-.565-.252-.82-.548-2.046-.738-3.687-.385-3.303 0-6.585 0-6.585h.005c-1.113-1.772-2.776-5.246-4.394-9.07-.147-.353-.296-.705-.442-1.06h-3.4s-2.887 4.18-1.768 11.795c1.12 7.615 1.407 16.526 1.407 22.14h20.096s.318-3.296.61-6.834c.346-4.15 1.005-7.447.852-11.314M74.693 66.005c-.417 1.73-.99 3.222-1.544 4.718h3.397c-.65-1.57-1.283-3.17-1.855-4.718m-1.43-28.003c-.222-2.735.925-5.495 2.582-7.56 1.27-2.285 3.092-3.728 5.123-3.728 1.342 0 2.59.635 3.65 1.715 1.212.92 1.84 2.04 2.073 3.232.766 1.83 1.216 4.044 1.216 6.432 0 6.103-.934 11.07-6.447 11.354-.85 2.408-1.71 4.46-2.355 5.57 1.72 3.86 3.416 9.16 4.812 14.054.158.557.313 1.106.464 1.65h8.984l.06-28.606L91 36.708l-.002-.003c-.008-.018-1.736-3.248-3.686-6.334-.385-.687-.8-1.334-1.26-1.916l-.005-.005c-1.403-1.78-3.196-2.94-5.614-2.74-5.147.424-7.646 7.48-8.75 12.24-.18 1.13-.282 2.3-.282 3.517 0 1.482.105 2.752.266 3.9.135-2.937.816-5.282 1.642-7.12-.01-.086-.036-.155-.045-.244m22.437 123.7c-.905.046-4.32-.325-7.47-2.792-1.516-1.186-3.296-3.943-5.18-3.996-.017-.002-.035-.006-.053-.006-1.9 0-1.604 2.102-4.276 2.102-2.02 0-1.25-2.078-3.204-2.1-.07-.003-.134-.008-.21-.003-1.708.103-3.182 7.995-.23 10.957h5.97c-.535 0 1.88-.887 2.77-.887.89 0 1.557.887 2.42.887h8.487c6.35-.712 3.903-4.31.98-4.16" fill="#666"/></svg>