<svg xmlns="http://www.w3.org/2000/svg" width="119.755" height="211.526" viewBox="0 0 119.755 211.526"><path fill="#E5E5E5" d="M26.99 160.554v.01c-4.186 2.814-9.462 6.902-12.157 12.758-3.43 7.446-6.474 16.84-10.32 23.396.427-.244.805-.34 1.073-.215 2.027.942.165 2.476 2.01 3.472 1.796.97 2.65.038 3.7-.052 3.733-6.47 10.602-18.2 12.025-19.506.794-.725 3.017-3.912 5.398-7.478 3.58-5.358 8.468-12.417 8.468-12.417 1.188-1.133 3.478-4.85 5.51-10.11l-15.35-1.314c-.168 3.745-.29 7.61-.354 11.453m55.7-48.52c-2.127-.805-9.627-1.36-18.474.38l-1.485 18.402c3.032-1.44 6.41-3.177 10.024-5.198-.24 2.5-.31 5.34-.086 8.582.53 7.786 2.04 15.29 2.368 20.71 2.005-.007 1.21 2.1 3.245 2.1 2.67 0 2.374-2.104 4.276-2.104.03 0 .057.008.087.01.085-6.36.31-16.553.89-18.436.34-1.105 1.097-5.305 1.097-9.975 0-2.938.314-10.43.314-10.43.28-1.716-.448-3.36-2.255-4.043m-28.35-55.617c.08-.52.12-.98.15-1.413.27-4.218-1.696-4.4-1.696-4.4l-.82.005c-.035.315-.075.59-.118.84-.453 2.684-1.24 1.984-2.66 2.87-1.57.975-1.6 2.613-1.6 2.613l-.826-.07s-.33-1.876-1.854-2.006c-.576-.05-1.026.25-1.34.662-.293.387-.465.87-.5 1.273-.04.485-.703 1.51-1.218 2.24-.126.18-.24.34-.338.47-.16.218-.268.357-.268.357l-.438.897-.505 1.03-.57-.024c.04.424.072 1.215-.035 2.467l-3.227 7.6c-1.694 2.67-3.91 6.268-4.994 10.674 1.506-4.646 4.597-11.464 9.762-11.45 4.257.014 6.25 4.02 7.558 8.19l3.986 9.27-5.233-14.99.04-.916.81-5.965s1.995-.075 3.113-.13c1.12-.056 1.304-.205 1.434-1.47.127-1.27-.243-1.1.22-1.615.46-.515.09-.82.09-.82.43.143.596-.876.596-.876s-.746-.69.433-.606c1.178.082.893-.767.753-1.12-.14-.354-1.006-1.62-.707-3.588M40.245 94.79c5.516.188 6.87-4.682 7.392-10.762.204-2.38-.056-4.625-.663-6.514-.13-1.207-.66-2.375-1.787-3.396-.966-1.168-2.155-1.907-3.492-2.022-2.025-.172-3.964 1.11-5.424 3.278-1.824 1.916-3.2 4.567-3.215 7.312 0 .097.008.185.014.278-.976 1.76-1.85 4.024-2.23 6.926-.326 2.46-.3 5.363.317 8.787.047.26.125.505.217.742-.558 2.3-.82 5.197-.045 8.366.23.933.485 1.915.763 2.92.44 1.59.935 3.24 1.447 4.86l.162.508c.2.626.405 1.244.608 1.852 1.157 3.443 2.33 6.486 3.187 8.147h-.005s-.662 3.237-.562 6.562c.056 1.794.274 3.096.467 3.93.03.137.062.275.092.386l-1.387 2.54c-.22.403-.07.907.332 1.127.104.056.216.09.325.1.156.012.313-.02.45-.09-.07.345.078.71.403.886.104.06.216.09.327.1.293.025.58-.113.754-.367-.027.305.107.613.388.783.113.07.235.106.36.117.304.024.61-.12.78-.4l.114-.188c-.16.37-.05.806.3 1.03.118.072.246.113.375.125.3.025.6-.112.774-.383l1.956-2.692.926-3.186-.448-2.76-.5-3.09-.55-3.387c-.083-.574-.24-1.643-.46-3.054-.264-1.668-.615-3.808-1.044-6.185-.098-.543-.253-1.383-.363-1.975-1.01-5.365-2.35-11.48-3.873-15.863.738-1.052 1.77-3.022 2.82-5.35"/><path fill="#9CD68E" d="M42.55 116.076l-1.268-.16.018.09.013.07h1.237z"/><path d="M49.088 45.918l-2.733-.233c-5.096-.436-8.964 2.858-9.13 8.408l-.023.03c-.21 2.468 2.24 6.054 2.107 7.62l.434.018.57.027.503-1.03.44-.898.266-.357c.097-.13.212-.29.337-.47.517-.732 1.18-1.756 1.22-2.243.034-.403.208-.888.5-1.274.313-.413.764-.71 1.342-.662 1.522.13 1.853 2.005 1.853 2.005l.827.07s.03-1.638 1.6-2.614c1.42-.885 2.206-.186 2.657-2.87.04-.25.08-.525.12-.84l.817-.006s1.967.185 1.695 4.402l.285-1.29c1.184-2.24-1.014-7.393-5.69-7.794M113.895 124.858l-6.396 41.006H70.93v4.685l-1.953 40.976h4.883l.53-11.135h35.136l.465 11.136h4.884l-1.822-43.662 6.706-42.03-5.86-.977zM74.52 197.633l1.227-25.73h32.59l1.073 25.73H74.52zm-25.544-81.557h-.354l-7.322-.07c.112.59.263 1.404.364 1.974.43 2.377.78 4.518 1.043 6.185.222 1.41.378 2.48.46 3.054h.002l.547 3.385.5 3.09.447 2.76-.927 3.186-1.955 2.694c-.173.27-.474.408-.772.383-.128-.01-.257-.053-.372-.127-.35-.22-.463-.66-.302-1.028l-.114.19c-.17.278-.477.424-.78.397-.125-.013-.247-.05-.36-.12-.28-.17-.416-.477-.39-.782-.17.253-.46.392-.752.367-.11-.01-.222-.042-.327-.1-.325-.18-.472-.542-.403-.888-.138.07-.294.1-.448.088-.11-.01-.223-.042-.326-.098-.402-.22-.55-.724-.332-1.126l1.385-2.54c-.03-.11-.064-.25-.094-.385-.193-.834-.41-2.135-.467-3.93-.1-3.324.56-6.563.56-6.563h.007c-.855-1.66-2.028-4.703-3.187-8.146-.203-.608-.406-1.227-.607-1.853l-.163-.507-3.386-.29s-.315.215-.802.797c-.362.434-.82 1.078-1.322 2-.76 1.4-1.616 3.433-2.375 6.366-2.284 8.84.787 17.024-1.673 24.37l3.364.287 15.352 1.314 1.308.11s1.57-3.173 2.163-6.673c.293-1.748.986-3.304 1.697-4.815l14.593-4.828.275-3.392 1.484-18.404.02-.23-13.83 3.53-1.435.366zm-2.196-41.55l-.015-.035.002.016c-1.263-2.025-2.99-3.45-5.52-3.457-5.164-.016-8.256 6.802-9.763 11.45-.273 1.11-.477 2.27-.58 3.48-.126 1.48-.132 2.752-.068 3.91.382-2.9 1.257-5.168 2.23-6.926-.006-.093-.013-.182-.013-.278.012-2.745 1.39-5.396 3.217-7.312 1.458-2.168 3.397-3.45 5.423-3.277 1.337.115 2.527.854 3.492 2.023 1.126 1.02 1.657 2.187 1.787 3.394.607 1.89.868 4.134.664 6.514-.52 6.08-1.876 10.95-7.393 10.762-1.05 2.327-2.082 4.297-2.82 5.35 1.53 4.404 2.877 10.552 3.89 15.935h7.662l1.433-.365 2.384-27.203-3.986-9.27c-.528-1.683-1.172-3.333-2.026-4.71m-16.628 40.75l3.386.29c-.514-1.62-1.006-3.27-1.447-4.857-.56 1.69-1.26 3.127-1.937 4.568m65.107 46.426c-.905.045-4.318-.326-7.47-2.793-1.506-1.18-3.273-3.91-5.144-3.994-.03 0-.06-.008-.087-.008-1.905 0-1.607 2.102-4.28 2.102-2.036 0-1.24-2.105-3.243-2.1-.058 0-.108-.006-.173-.003-1.706.103-3.18 7.995-.23 10.957h5.97c-.535 0 1.88-.887 2.77-.887s1.557.887 2.42.887h8.49c6.346-.712 3.9-4.31.976-4.16m-74.103 45.66c-.804.04-3.578-.25-6.393-2.035-.576-1.84-.966-4.398-2.408-5.176-.395-.212-.736-.26-1.06-.232-1.05.09-1.905 1.02-3.7.052-1.847-.996.017-2.528-2.012-3.472-.268-.125-.645-.03-1.07.215-2.043 1.17-5.32 6.004-4.334 9.32l5.253 2.834c-.472-.255 2.077.11 2.858.534.098.053.183.113.26.183.74.165 2.145 1.938 5.094 1.938h6.537c6.35-.714 3.9-4.312.978-4.163" fill="#666"/></svg>