<svg xmlns="http://www.w3.org/2000/svg" width="84.777" height="65.921" viewBox="0 0 84.777 65.921"><path fill="#E5E5E5" d="M24.933 4.728l-.037-.036-1.58 5.306-2.75 13.94c-.023.305-3.664 11.438-3.992 12.334-1.072 2.93 1.135.435 2.622 1.437 2.792 1.884 4.18 2.477 3.453.163-.855-2.72 1.302-12.203 1.37-14.103.064-1.9.993-12.774 1.046-13.542 0 0 .54-1.362 1.01-2.878l.02.037.04-.23c.377-1.238.687-2.544.605-3.277-.037-.344-.08-.58-.123-.74.092-1.56.04-2.806-.213-3.06-.454-.452-.483.992-1.47 4.648M16.386 58.807c-.044.067-1.394 7.116 3.628 6.91l-3.628-6.91zm.518-22.51c-.22.175-3.594 4.63-3.594 4.63l.77 1.652-1.48 1.064s.768 5.533.875 5.795c.105.26.964.79 2.64.82 1.677.028 6.06.458 6.06.458l3.265.3 6.07 2.312 1.514-5.806.002-.006 1.515-5.806-6.424-.95-2.995-1.333s-4.032-1.77-5.51-2.562c-1.48-.788-2.486-.747-2.706-.572"/><path fill="#666" d="M6.902 36.916c2.175.568 3.515 2.647 2.994 4.646-.522 2-2.707 3.16-4.882 2.593-2.176-.568-3.516-2.648-2.994-4.646.52-2 2.708-3.158 4.882-2.59m-5.037 1.007c.795.21 1.272 1.02 1.064 1.816-.21.797-1.022 1.273-1.817 1.065C.318 40.6-.16 39.788.05 38.992c.206-.796 1.02-1.274 1.815-1.065"/><g fill="#E5E5E5"><path d="M18.224 64.84l1.033.663c-.037-.32-.496-.466-1.033-.664zM21.427 62.902c0-.228-.123-.42-.3-.538.177-.118.3-.31.3-.538 0-.365-.295-.66-.66-.66l-.008.002c-.04-.003-.254-.008-1.313.002-.103 0-.172.008-.253.013l-.057-.062c-.364-3.533-1.38-13.694-1.22-14.663.52-3.074.876-4.38-.917-4.44-2.628-.09-3.954.47-4.035 2.894-.08 2.423 3.176 16.315 3.46 18.195.106.706.52 1.112 1 1.385.037.023.082.042.126.06.226.116.455.21.675.29l-.18-.115.04-.083c2 .015.827 1.076 1.662 1.076h1.022c.363 0 .658-.295.658-.66 0-.228-.123-.42-.3-.538.177-.118.3-.31.3-.538 0-.23-.123-.42-.3-.54.175-.12.3-.31.3-.54z"/></g><path fill="#E5E5E5" d="M14.382 42.658l-2.43-.634 2.43.634.317-2.513c-.458.397-2.23.058-3.59-.28-.3-.435-.68-.862-1.128-1.242.003-.01.01-.014.012-.024.157-.734-1.538-1.566-2.12-1.648-.582-.08-.17.412-.17.412v.002s.09.082.228.203c-2.45-.58-2.868.622-3.928 2.618-.963 1.816-.244 3.202 2.225 3.9l-.298.066s-.6.23-.053.442c.544.214 2.43.317 2.65-.4.006-.02.002-.032.004-.05.642-.14 1.243-.388 1.758-.674 1.56.445 3.567 1.12 3.775 1.697l.315-2.512z"/><path fill="#666" d="M25.12 39.437c-2.072.426-8.44-2.805-8.44-2.805l-1.012 1.103c2.734 1.046 3.347 4.277 2.894 6.017-.454 1.74-2.567 4.26-5.463 3.836l.345 1.457s7.133.293 8.73 1.676l3.266.3s6.456 3.418 9.99 3.033c5.203-.566-2.404-6.527-2.404-6.527l2.658-5.934-7.57-.82-2.994-1.335z"/><path fill="#E5E5E5" d="M74.914 62.572c.002 0 0 0 0 0 .48.086 1.24.246 1.656.38l.552-.306c-.376-.3-.587-.785-.503-1.294.07-.43.334-.774.687-.972l-.26-.344s-1.07.14-1.7-.095l-.433 2.632z"/><path fill="#666" d="M75.994 59.982l-.01.094c.432.094 1.066-.04 1.066-.04l.26.345c-.353.198-.62.542-.69.973-.083.508.128.994.504 1.295l-.553.306c-.414-.135-.457-.057-.91-.24 1.985.8 2.574 1.49 4.143 2.27 1.388.69 2.55.637 2.625.173l.188-1.13.455-2.766.07-.433c-.698-.973-5.41-1.05-7.146-.845M30.505 53.24s14.946 6.975 27.356 5.668l1.384-3.974S45.78 50.126 40.066 48.73l-8.585-1.417-.975 5.927zm25.363 5.064s5.134 2.96 8.515 3.182c3.38.223 10.532 1.086 10.532 1.086l.434-2.63s-12.44-4.415-16.106-5.01c-3.667-.593-3.376 3.372-3.376 3.372"/><path fill="#E5E5E5" d="M76.96 54.56s-.002 0 0 0c.457.163 1.196.404 1.624.495l.327.54c-.474.074-.9.39-1.08.87-.154.41-.095.842.112 1.188l-.395.17s-.86-.657-1.522-.77l.935-2.493z"/><path fill="#666" d="M76.603 57.34l.037-.085c.422.136.906.566.906.566l.395-.167c-.205-.347-.264-.78-.11-1.188.18-.482.605-.797 1.082-.87l-.326-.54c-.428-.092-.426-.182-.906-.247 2.116.293 2.973-.01 4.72.097 1.547.094 2.526.72 2.36 1.16l-.4 1.07-.985 2.626-.155.412c-1.09.497-5.214-1.788-6.617-2.83M32.46 41.494s13.63-.613 23.734 6.71l5.068 1.353-.894 4.08s-3.4-.65-5.485-1.11c-3.86-.854-11.273-2.258-15.034-3.35l-8.713.223 1.32-7.907h.003zm24.668 7.156s7.12.104 10.16 1.598 9.67 4.31 9.67 4.31l-.935 2.497s-12.984-2.377-16.457-3.69c-3.474-1.317-2.438-4.714-2.438-4.715"/></svg>