<svg xmlns="http://www.w3.org/2000/svg" width="84.775" height="65.721" viewBox="0 0 84.775 65.721"><path fill="#E5E5E5" d="M59.844 4.728l.037-.036L61.46 10l2.75 13.938c.024.306 3.666 11.438 3.994 12.334 1.07 2.93-1.136.435-2.622 1.438-2.79 1.885-4.18 2.478-3.452.164.853-2.72-1.304-12.203-1.37-14.104-.067-1.9-.995-12.773-1.048-13.542 0 0-.54-1.36-1.01-2.878l-.02.037-.04-.23c-.377-1.237-.687-2.544-.605-3.276.038-.343.08-.58.124-.74-.093-1.56-.04-2.805.213-3.06.453-.452.482.993 1.47 4.648M67.873 36.297c.22.175 3.594 4.63 3.594 4.63l-.77 1.652 1.48 1.063s-.77 5.534-.876 5.795c-.105.26-.963.79-2.64.82-1.677.03-6.06.46-6.06.46l-3.264.3-6.07 2.31-1.515-5.805v-.006l-1.516-5.806 6.427-.95 2.996-1.332s4.032-1.767 5.512-2.56c1.478-.79 2.484-.747 2.705-.57"/><path fill="#666" d="M77.875 36.916c-2.175.567-3.516 2.646-2.994 4.645.523 2 2.71 3.16 4.884 2.594s3.515-2.647 2.994-4.646c-.522-2-2.708-3.158-4.882-2.59m5.036 1.01c-.795.208-1.272 1.02-1.064 1.816.207.796 1.02 1.272 1.815 1.064.796-.208 1.272-1.02 1.064-1.816-.206-.796-1.02-1.273-1.815-1.064"/><path fill="#E5E5E5" d="M71.81 44.91c-.08-2.424-1.406-2.982-4.033-2.896-1.794.06-1.436 1.367-.92 4.442.164.975-.865 11.26-1.223 14.73h.043l-.046.025.004-.025c-.094-.007-.18-.015-.304-.016-1.044-.013-1.266-.008-1.31-.004l-.01-.002c-.366 0-.66.295-.66.66 0 .23.122.42.3.538-.178.118-.3.31-.3.538 0 .23.122.42.3.54-.178.117-.3.31-.3.538s.122.42.3.538c-.178.12-.3.31-.3.54 0 .364.294.66.66.66h1.02c.065 0 .115-.01.158-.022 1.416-.07 2.267-.76 2.758-1.693.197-.23.347-.52.404-.898.287-1.878 3.54-15.77 3.46-18.192zM80.773 40.187c-1.06-1.996-1.48-3.196-3.927-2.62.14-.12.228-.202.228-.202v-.002s.41-.492-.17-.41c-.58.08-2.277.912-2.12 1.645.002.01.01.015.012.023-.447.38-.83.81-1.13 1.244-1.357.34-3.13.678-3.587.28l.314 2.513 2.43-.634-2.43.635h-.002l.317 2.512c.207-.576 2.216-1.252 3.774-1.698.515.286 1.115.534 1.758.676.002.016-.003.03.003.048.22.72 2.106.614 2.652.4.547-.212-.053-.442-.053-.442s-.116-.027-.296-.065c2.47-.7 3.19-2.086 2.225-3.903z"/><path fill="#666" d="M59.658 39.437c2.07.426 8.438-2.804 8.438-2.804l1.013 1.102c-2.735 1.046-3.348 4.277-2.895 6.018.455 1.74 2.568 4.26 5.464 3.836l-.347 1.456S64.2 49.34 62.6 50.72l-3.263.3s-6.456 3.418-9.992 3.034c-5.202-.567 2.406-6.528 2.406-6.528l-2.657-5.933 7.57-.822 2.995-1.333z"/><path fill="#E5E5E5" d="M9.862 62.573c-.48.086-1.24.245-1.655.38l-.553-.307c.376-.3.588-.785.504-1.294-.07-.43-.337-.774-.69-.972l.26-.342s1.072.14 1.702-.096l.432 2.63z"/><path fill="#666" d="M8.783 59.982l.01.095c-.433.093-1.067-.04-1.067-.04l-.258.343c.352.197.618.542.69.972.083.508-.13.994-.505 1.295l.554.307c.415-.136.458-.058.91-.24-1.984.8-2.573 1.49-4.143 2.27-1.387.69-2.55.636-2.625.172l-.188-1.13-.454-2.766-.072-.434c.698-.972 5.41-1.05 7.147-.844M54.272 53.24s-14.945 6.975-27.355 5.668l-1.382-3.975S39 50.125 44.712 48.73l8.586-1.417.974 5.927zM28.91 58.304s-5.136 2.96-8.517 3.182c-3.38.223-10.532 1.087-10.532 1.087l-.432-2.63s12.438-4.416 16.104-5.01c3.666-.593 3.375 3.37 3.375 3.37"/><path fill="#E5E5E5" d="M7.817 54.56c-.458.163-1.196.405-1.625.495l-.326.54c.476.074.9.39 1.083.872.15.408.093.84-.114 1.186l.395.17s.86-.657 1.524-.77l-.937-2.493z"/><path fill="#666" d="M8.174 57.342l-.037-.086c-.422.135-.907.566-.907.566l-.394-.17c.207-.346.265-.778.113-1.186-.185-.483-.608-.798-1.085-.87l.326-.542c.43-.09.428-.18.908-.246-2.117.293-2.973-.01-4.72.097-1.546.095-2.526.723-2.36 1.163l.4 1.07.984 2.625.155.412c1.09.496 5.212-1.79 6.614-2.833M52.318 41.493s-13.63-.612-23.734 6.71l-5.068 1.353.894 4.08s3.4-.65 5.483-1.11c3.86-.854 11.274-2.258 15.035-3.35l8.712.223-1.322-7.907zm-24.67 7.157s-7.12.105-10.16 1.6c-3.04 1.492-9.67 4.31-9.67 4.31l.936 2.495s12.983-2.376 16.457-3.69c3.474-1.316 2.438-4.714 2.438-4.715"/></svg>