<svg xmlns="http://www.w3.org/2000/svg" width="84.775" height="65.721" viewBox="0 0 84.775 65.721"><g fill="#E5E5E5"><path d="M62.778 63.844zM68.107 60.676c-.6-3.34 1.453-6.166 1.613-9.166.16-3-5.57-3.676-5.09 1.704.384 4.342.56 7.374 1.574 8.38l-.07.133-.024-.038v-.002c-.8-.162-.025-.545-1.42-.56-.992-.01-1.214-.006-1.26-.002-.006 0-.01-.003-.014-.003-.354 0-.64.284-.64.637 0 .22.12.406.29.52-.17.115-.29.3-.29.52 0 .223.12.41.292.523-.17.114-.29.3-.29.52s.12.407.29.522c-.17.114-.29.3-.29.52 0 .353.284.637.637.638h.985c.043 0 .078-.004.11-.01 2.885-.015 3.64-1.775 3.68-3.495.044-.292.028-.72-.083-1.342zM62.778 64.884zM62.778 62.8zM9.44 63.883h-.002zM7.946 61.05l-.314.27c.292.26.47.64.448 1.06-.025.5-.324.913-.74 1.12l.458.4c.42-.042 1.17-.033 1.64-.017l.135-2.573c-.644.093-1.627-.26-1.627-.26z"/></g><path fill="#666" d="M8.956 61.216l-.01.09c-.428 0-1-.257-1-.257l-.314.27c.293.258.472.64.45 1.06-.026.498-.326.912-.743 1.118l.456.402c.42-.04.445.042.908-.035-2.036.346-2.736.875-4.378 1.286-1.452.366-2.537.074-2.515-.38l.06-1.103.143-2.706.022-.424c.86-.775 5.324.127 6.92.68M53.292 64.253s-15.55 3.497-26.996-.303l-.484-4.038s13.705-1.755 19.387-1.89l8.395.435-.303 5.796zm-24.99-.46s-5.46 1.73-8.696 1.243c-3.236-.49-10.167-1.152-10.167-1.152l.134-2.572s12.654-1.597 16.237-1.4c3.585.198 2.49 3.88 2.492 3.88"/><path fill="#E5E5E5" d="M69.846 51.464s.563 1.338-2.35 4.296c-1.59 1.616-4.925-3.38-4.925-3.38l7.276-.916zm-8.04-9.914c.263.067 4.985 2.687 4.985 2.687L66.758 46l1.725.362s1.484 5.193 1.49 5.465c.01.27-.542 1.073-2.012 1.756s-5.176 2.773-5.176 2.773l-2.77 1.54-4.463 4.413-3.605-4.54-.004-.005-3.605-4.54 5.308-3.35 2.128-2.348s2.876-3.14 3.873-4.417 1.902-1.633 2.166-1.563"/><path fill="#666" d="M70.888 38.188c-1.7 1.353-2.073 3.714-.832 5.276 1.242 1.562 3.627 1.734 5.328.383 1.7-1.352 2.073-3.713.83-5.276-1.24-1.56-3.625-1.732-5.326-.382m4.848-1.073c-.62.493-.726 1.4-.23 2.02.494.623 1.398.727 2.02.233.622-.494.727-1.4.23-2.02-.493-.623-1.398-.727-2.02-.233"/><path fill="#E5E5E5" d="M74.573 44.208s-.114.02-.29.06c1.912-1.585 2.01-3.09.444-4.32-1.718-1.353-2.552-2.26-4.492-.79.073-.158.118-.26.118-.26v-.002s.17-.596-.31-.298c-.483.298-1.658 1.696-1.23 2.283.004.007.01.008.014.013-.248.512-.413 1.045-.51 1.548-1.067.83-2.5 1.822-3.06 1.65l1.26 2.095 1.9-1.51-1.9 1.51 1.26 2.1c-.04-.592 1.472-1.974 2.676-2.977.566.05 1.193.035 1.816-.09.007.014.01.028.02.042.476.548 2.102-.28 2.502-.682.4-.402-.22-.37-.22-.37zM62.13 41.753s-1.48-1.282-4.716 1.316c-2.73 2.19 2.18 5.56 2.18 5.56l2.536-6.877z"/><path fill="#666" d="M55.77 47.533c1.997-.434 6.364-5.775 6.364-5.775l1.326.578c-2.008 1.992-1.287 5.088-.207 6.448 1.082 1.36 3.935 2.762 6.328 1.257l.266 1.424s-6.19 3.046-7.063 4.893l-2.767 1.54s-4.372 5.543-7.647 6.585c-4.82 1.532-.425-6.71-.425-6.71l-3.606-4.54 5.31-3.35 2.124-2.347-.004-.002z"/><path fill="#E5E5E5" d="M9.166 55.896c-.466.06-1.214.137-1.638.132l-.42.444c.435.167.77.552.84 1.046.06.417-.082.812-.35 1.097l.337.24s.948-.44 1.598-.41l-.367-2.55z"/><path fill="#666" d="M8.927 58.597l-.017-.09c-.427.04-.974.348-.974.348l-.336-.24c.268-.285.41-.68.35-1.098-.07-.494-.405-.88-.84-1.046l.42-.443c.423.005.44-.08.907-.045-2.06-.16-2.805-.623-4.477-.884-1.48-.23-2.534.158-2.47.608l.16 1.094.387 2.683.06.42c.926.694 5.29-.61 6.83-1.306M52.804 51.544s-11.67-2.18-22.72 2.645l-5.065.23v4.034s3.34.09 5.404.085c3.82-.008 11.11.2 14.885-.056l8.32-1.197-.826-5.743zM29.107 54.42s-6.74-1.376-9.92-.594c-3.18.78-10.02 2.07-10.02 2.07l.366 2.55s12.748.44 16.3-.082c3.55-.522 3.274-3.945 3.274-3.944m15.93 2.782c0 1.486 2.316 2.692 5.175 2.692 2.857 0 5.175-1.206 5.175-2.692 0-1.488-2.317-2.693-5.175-2.693-2.858 0-5.175 1.203-5.175 2.692"/><path fill="#E5E5E5" d="M58.026 42.61s-2.584 1.35-5.237 3.07c-.87.564-1.55 1.04-2.075 1.457-.036 0-.066-.012-.11.007-2.034.842-2.53 2.933-2.586 4.56-.065.06-.13.116-.19.182-.486.542-.717 1.902-.736 2.13l-.002.016-.198 2.138c-.014.145.092.272.238.285.145.012.272-.094.287-.238l.148-1.617c.062.054.135.11.217.164l-.21 2.266c-.014.146.095.272.236.285.148.016.275-.09.288-.237l.196-2.1c.074.02.15.026.23.028l-.213 2.268c-.01.145.095.272.24.287.145.013.273-.092.286-.24l.227-2.43c.08-.037.162-.082.244-.137l-.22 2.37c-.012.146.093.274.238.287.145.013.272-.093.287-.237l.312-3.36c.057-.075.294-.564.764-.015l.597.8c.088.117.253.14.37.054.116-.088.14-.253.054-.37l-.285-.382c-.574-.912-.822-1.295-1.04-1.635v.003c-.06-.094-.122-.16-.182-.24.222-.835.463-1.824.624-2.702 1.473-.096 4.08-1.03 6.91-3.243 3.967-3.104 1.337-3.667.29-3.474z"/></svg>