<svg xmlns="http://www.w3.org/2000/svg" width="84.777" height="65.921" viewBox="0 0 84.777 65.921"><path fill="#E5E5E5" d="M14.457 51.71c.16 3 2.214 5.824 1.614 9.166-.576 3.23 1.384 1.287 1.016 1.285 1.834.01 1.987-3.364 2.464-8.747.476-5.378-5.255-4.703-5.093-1.703m3.61 10.178c.8-.162.025-.545 1.42-.56 1.39-.015 1.275 0 1.275 0v4.393h-.986c-.813 0 .344-1.04-1.64-1.04-1.985 0-.068-2.79-.068-2.792m3.332.072c0 .353-.285.638-.638.638-.354 0-.64-.286-.64-.638 0-.353.286-.637.64-.637.353 0 .638.284.638.637m0 1.04c0 .354-.285.64-.638.64-.354 0-.64-.286-.64-.64 0-.352.286-.637.64-.637.353 0 .638.285.638.64m0 1.04c0 .35-.285.637-.638.637-.354 0-.64-.286-.64-.638 0-.354.286-.64.64-.64.353.002.638.287.638.64m0 1.04c0 .354-.285.64-.638.64-.354 0-.64-.285-.64-.64 0-.35.286-.636.64-.636.353 0 .638.286.638.637"/><path fill="#E5E5E5" d="M16.528 59.042c-.04.065-2.558 6.96 3.506 6.68l-3.506-6.678v-.002zm58.21 5.04c.47-.016 1.222-.023 1.642.02l.458-.403c-.417-.208-.716-.622-.74-1.12-.023-.42.155-.8.448-1.06l-.316-.27s-.983.354-1.626.263l.134 2.57z"/><path fill="#666" d="M75.222 61.416l.01.09c.427 0 1-.256 1-.256l.313.27c-.293.258-.472.64-.45 1.06.026.5.326.913.743 1.118l-.46.403c-.42-.04-.443.043-.906-.035 2.035.346 2.735.875 4.378 1.287 1.453.365 2.538.072 2.515-.38l-.058-1.104-.143-2.707-.02-.424c-.86-.776-5.326.127-6.922.68M30.885 64.453s15.55 3.498 26.996-.303l.486-4.038s-13.705-1.755-19.386-1.89l-8.398.436.303 5.795zm24.99-.46s5.46 1.732 8.696 1.243c3.24-.49 10.17-1.152 10.17-1.152l-.136-2.57s-12.655-1.598-16.238-1.4c-3.584.196-2.49 3.878-2.49 3.878"/><path fill="#E5E5E5" d="M14.332 51.664s-.562 1.338 2.35 4.297c1.59 1.616 4.925-3.38 4.925-3.38l-7.275-.916zm8.04-9.914c-.263.067-4.984 2.688-4.984 2.688l.034 1.762-1.725.363s-1.483 5.193-1.49 5.464c-.008.272.543 1.074 2.014 1.757 1.47.682 5.177 2.773 5.177 2.773l2.768 1.54 4.464 4.413 3.605-4.537.004-.006 3.606-4.54-5.31-3.35-2.126-2.347s-2.875-3.14-3.872-4.416c-.997-1.28-1.903-1.634-2.166-1.564"/><path fill="#666" d="M13.29 38.39c1.7 1.35 2.072 3.713.83 5.275-1.24 1.562-3.626 1.733-5.327.383-1.7-1.353-2.072-3.713-.83-5.276 1.24-1.562 3.625-1.733 5.327-.382m-4.85-1.075c.623.494.727 1.4.232 2.02-.494.624-1.4.728-2.02.233-.62-.494-.727-1.4-.23-2.02.494-.623 1.4-.727 2.018-.233"/><path fill="#E5E5E5" d="M17.66 46.384l1.26-2.096c-.56.172-1.99-.818-3.06-1.647-.21-1.098-.735-2.35-1.778-3.18-2.044-1.623-2.872-.697-4.632.687-1.6 1.26-1.476 2.806.568 4.43 1.09.867 2.533 1.037 3.707.93 1.204 1.004 2.715 2.386 2.675 2.977l1.26-2.097-1.902-1.51 1.902 1.507zM13.824 39.097s-.17-.596.31-.3c.483.3 1.658 1.696 1.23 2.284-.427.587-1.54-1.984-1.54-1.983M9.604 44.408s-.62-.03-.22.37c.4.402 2.025 1.23 2.502.683.474-.55-2.282-1.052-2.282-1.052M26.15 42.81s2.585 1.35 5.24 3.07c2.65 1.72 3.695 2.672 3.128 3.387-.568.715-4.113.117-8.08-2.984-3.967-3.104-1.334-3.666-.288-3.473"/><path fill="#E5E5E5" d="M22.047 41.955s1.48-1.283 4.718 1.316c2.73 2.192-2.18 5.563-2.18 5.563l-2.538-6.878z"/><path fill="#666" d="M28.406 47.733c-1.996-.433-6.363-5.774-6.363-5.774l-1.326.577c2.01 1.99 1.287 5.088.207 6.447-1.082 1.36-3.935 2.762-6.327 1.258l-.265 1.422s6.19 3.047 7.064 4.894l2.767 1.54s4.372 5.543 7.648 6.585c4.82 1.532.425-6.71.425-6.71l3.606-4.54-5.307-3.35-2.126-2.348v-.002z"/><path fill="#E5E5E5" d="M75.012 56.096c.466.06 1.214.136 1.637.132l.42.443c-.438.17-.773.554-.844 1.048-.06.416.084.812.352 1.096l-.34.24s-.947-.44-1.596-.408l.367-2.55h.002z"/><path fill="#666" d="M75.25 58.796l.018-.09c.426.04.973.35.973.35l.338-.24c-.267-.285-.41-.682-.35-1.098.07-.494.405-.88.84-1.047l-.42-.442c-.422.004-.44-.08-.907-.045 2.06-.16 2.806-.623 4.478-.885 1.48-.23 2.534.158 2.47.61L82.527 57l-.386 2.684c-.036.26-.06.42-.06.42-.925.692-5.29-.61-6.83-1.308M31.374 51.744s11.67-2.18 22.72 2.646l5.065.23v4.034s-3.345.09-5.408.086c-3.82-.008-11.11.2-14.885-.055l-8.322-1.198.83-5.743zM55.07 54.62s6.742-1.376 9.92-.594c3.18.78 10.02 2.07 10.02 2.07l-.365 2.55s-12.748.44-16.3-.082c-3.55-.52-3.274-3.945-3.274-3.945M39.14 57.4c0 1.487-2.316 2.693-5.175 2.693-2.857 0-5.175-1.206-5.175-2.693 0-1.488 2.318-2.693 5.176-2.693s5.176 1.204 5.176 2.69"/><path fill="#E5E5E5" d="M33.575 47.343c-1.294-.535.917 6.72.917 6.72h1.51s1.108-5.254-2.427-6.72m.218 5.12c-.218.342-.466.725-1.04 1.637l-.284.38c-.09.117-.065.282.052.37.117.086.282.063.37-.054l.596-.8c.47-.55.707-.06.764.015l.312 3.36c.015.146.143.25.288.237.145-.012.25-.14.237-.287l-.22-2.37c.08.055.163.1.243.14l.227 2.43c.015.145.143.25.288.24.145-.017.25-.144.238-.288l-.212-2.268c.08-.002.156-.01.23-.027l.195 2.098c.012.146.14.253.286.238.143-.014.25-.14.238-.285l-.21-2.266c.082-.055.154-.11.216-.164l.152 1.617c.013.145.14.25.285.237.146-.012.252-.14.238-.284l-.198-2.14s-.003-.007-.002-.015c-.02-.228-.25-1.588-.736-2.13-.646-.714-1.665-1.02-2.56.384"/></svg>