<svg xmlns="http://www.w3.org/2000/svg" width="140.263" height="214.097" preserveAspectRatio="xMidYMax" viewBox="0 0 140.263 164.097"><path fill="#E5E5E5" d="M18.424 149.288l1.187 9.512h4.55l.46-9.512z"/><path d="M37.035 164.097c6.14-.687 3.77-4.168.943-4.023-.875.044-5.12-.314-8.168-2.7-1.48-1.16-3.218-3.872-5.06-3.872-1.84 0-.785 2.033-3.367 2.033-2.028 0-1.98-2.04-3.127-2.033-1.654.01-3.076 7.732-.224 10.596h4.83s2.13-1.452 6.97 0h7.203z" fill="#666"/><path fill="#E5E5E5" d="M33.596 15.15c-.266-.872-2.28-3.405-1.47-4.594.37-.54-1.05-3.365-2.18-4.78l.003.003s-6.12-.487-5.39 5.716c0 0-.695-1.3-2.257-.244-1.56 1.056-.834 4.772-.834 4.772l-1.297 3.91c.35 1.485-3.348 7.182-3.348 7.182l9.684 2.54c-1.505-2.732.086-5.668.804-7.255.192-.43.622-.7 1.09-.697l1.544.006c1.186 0 1.588-1.086 1.583-2.404 0-.35.29-.68.507-1.1.144-.277-.83-.39-.83-.39s1.49-.413 1.26-.697c-.15-.19-.198-.485.032-.783.363-.467 1.293-.532 1.093-1.188"/><path d="M29.777 102.864s5.2-22.41 3.017-39.296H17.867c-1.845 4.727-4.155 7.642-4.715 11.435C12.17 81.69 15.4 85.627 15.4 85.627l2.877 17.418c.625 3.832-3.8 12.88-3.375 22.207s3.52 24.036 3.52 24.036h6.196s.903-19.65 5.16-46.424m-13.75-52.738c1.38 5.28 2.395 8.5 1.84 13.44h14.926c-.537-5.377-.125-14.026-.125-14.026s2.08-1.403 2.83-3.522c.747-2.12.88-4.312-1.97-7.423-1.404-1.532-7.203-9.99-7.53-10.448-1.224-1.694-3.304-2.684-5.554-2.684-3.91 0-6.664 3.19-7.08 7.08-.4 3.75.442 9.083 2.66 17.583" fill="#666"/><path fill="#E5E5E5" d="M25.89 33.318c0 3.164-2.565 5.73-5.73 5.73s-5.73-2.566-5.73-5.73 2.565-5.73 5.73-5.73 5.73 2.566 5.73 5.73"/><path d="M29.95 5.778s-1.972-3.326-6.4-2.994c-1.226.093-2.285.39-3.202.823.23-.604.26-1.302-.05-2.018-.354-.81-1.12-1.417-1.99-1.556-1.767-.28-3.223 1.135-3.11 2.81.098 1.454 1.338 2.55 2.784 2.483-1.81 1.927-2.455 4.532-2.173 6.358.646 4.19 4.365 8.248 4.365 8.248l2.138-3.58c.18-.3.21-.67.066-.994-.447-1.013-1.276-3.298-.076-4.11.866-.586 1.744-.17 2.354.318.3.24.733.007.735-.38.035-5.05 4.554-5.412 4.554-5.412" fill="#666"/><path fill="#E5E5E5" d="M19.775 39.085c4.97-3.174 5.916-5.812 3.73-8.403-3.21-3.798-5.006-4.206-8.508-1.25C11.963 31.995 2.68 41.322.265 46.077c-.49.964-.285 2.13.48 2.895 4 4.014 18.083 17.944 20.413 17.373l1.412-3.875L8.23 47.612c4.275-2.59 10.473-7.84 11.545-8.527m-.578 26.303c.868.523 1.06 1.285 2.16 1.435 2.057.278 3.53-1.84 5.837-1.855l2.007.51c.15.038.305.016.434-.045.143-.07.258-.187.304-.342.023-.072.027-.15.015-.222-.015-.1-.063-.197-.136-.276.103-.002.197-.032.298-.086.12-.068.217-.17.258-.308.023-.076.027-.153.016-.226-.03-.194-.175-.358-.38-.43.217-.03.41-.165.482-.372.03-.084.038-.168.024-.25-.03-.2-.184-.376-.406-.442l-.152-.047c.285.05.573-.09.672-.35.033-.085.04-.176.026-.26-.03-.197-.176-.37-.395-.44l-2.21-.854-.2-.012-2.183-.105-4.264 1.62c-.47-.39-1.192-.93-2.29-1.62"/></svg>