<svg xmlns="http://www.w3.org/2000/svg" width="140.263" height="214.097" preserveAspectRatio="xMidYMax" viewBox="0 0 140.263 164.097"><path fill="#E5E5E5" d="M39.548 143.095l-8.736 3.947 1.344 4.344 9.223-2.374z"/><path d="M80.635 127.27c-3.477 1.73-10.383 2.19-19.168 5.355-8.785 3.164-21.92 10.47-21.92 10.47l1.832 5.92s14.55-.29 40.57-7.907c4.564-1.336 4.717-5.847 5.89-11.76m-50.543 24.797c.778-1.464 1.323-3.044.99-4.062-.572-1.748-2.177.09-3.21-2.276-.81-1.857 1.077-2.63.613-3.678-.67-1.514-8.316.27-9.802 4.03l1.93 4.426s1.94 1.407 2.787 6.388c.29 1.697 1.182 5.122 2.38 5.122h5.2c2.75-.23 2.816-1.065 2.904-1.914.107-1.05-1.47-1.166-2.853-2.082 0 0-1.72-4.49-.94-5.955" fill="#666"/><path fill="#E5E5E5" d="M91.66 41.632c-.266-.873-2.28-3.405-1.47-4.594.37-.54-1.05-3.365-2.18-4.78l.003.003s-6.12-.483-5.387 5.72c0 0-.696-1.302-2.258-.244-1.56 1.056-.834 4.772-.834 4.772l-1.296 3.91c.35 1.485-3.348 7.182-3.348 7.182l9.684 2.54c-1.504-2.733.087-5.67.805-7.257.19-.428.62-.698 1.09-.697l1.542.006c1.187 0 1.59-1.085 1.584-2.403 0-.353.288-.68.506-1.1.145-.28-.828-.393-.828-.393s1.49-.412 1.26-.696c-.15-.187-.2-.483.03-.78.366-.468 1.295-.53 1.095-1.19"/><path d="M87.842 129.346s5.2-22.41 3.017-39.296H75.93c-1.845 4.727-4.155 7.642-4.715 11.435-.983 6.687 2.248 10.625 2.248 10.625l1.877 17.418M74.092 76.61c1.38 5.28 2.396 8.5 1.84 13.44H90.86c-.538-5.378-.126-14.027-.126-14.027s2.082-1.403 2.83-3.522c.75-2.12.883-4.31-1.97-7.42-1.402-1.533-7.2-9.99-7.53-10.45-1.222-1.693-3.302-2.684-5.552-2.684-3.91 0-6.664 3.19-7.08 7.08-.402 3.75.44 9.084 2.66 17.584" fill="#666"/><path fill="#E5E5E5" d="M83.953 59.8c0 3.164-2.564 5.73-5.73 5.73s-5.728-2.566-5.728-5.73c0-3.165 2.564-5.73 5.73-5.73s5.728 2.565 5.728 5.73"/><path d="M88.014 32.26s-1.97-3.327-6.4-2.995c-1.225.094-2.284.392-3.2.824.23-.606.26-1.304-.052-2.02-.353-.81-1.118-1.415-1.99-1.555-1.766-.28-3.222 1.136-3.11 2.81.1 1.454 1.34 2.552 2.785 2.484-1.81 1.926-2.455 4.53-2.173 6.357.648 4.19 4.367 8.248 4.367 8.248l2.14-3.58c.18-.302.21-.67.066-.994-.446-1.01-1.275-3.296-.075-4.107.867-.587 1.745-.17 2.355.317.302.242.734.01.736-.378.035-5.05 4.555-5.412 4.555-5.412" fill="#666"/><path fill="#E5E5E5" d="M77.84 65.568c4.97-3.175 5.916-5.812 3.73-8.403-3.21-3.798-5.006-4.206-8.508-1.25-3.034 2.562-12.316 11.89-14.732 16.645-.49.963-.285 2.128.48 2.895 4 4.014 18.083 17.943 20.413 17.373l1.412-3.875-14.34-14.86c4.274-2.59 10.473-7.84 11.545-8.525m-.578 26.302c.868.524 1.06 1.286 2.16 1.436 2.057.277 3.53-1.84 5.837-1.855l2.005.51c.15.04.303.018.432-.044.143-.068.258-.186.304-.34.024-.076.028-.152.016-.225-.015-.1-.063-.196-.136-.275.104-.003.198-.034.3-.087.12-.07.216-.17.257-.308.023-.077.027-.154.016-.228-.03-.193-.174-.357-.38-.43.218-.03.412-.164.483-.37.03-.085.037-.17.023-.25-.033-.2-.186-.377-.408-.444l-.152-.047c.286.05.574-.086.673-.347.033-.085.04-.176.027-.26-.03-.197-.177-.37-.396-.44l-2.208-.854-.2-.013-2.186-.106-4.264 1.62c-.47-.39-1.192-.93-2.29-1.62"/><path fill="#E5E5E5" d="M117.797 149.288l1.187 9.512h4.547l.46-9.512z"/><path d="M136.408 164.097c6.14-.687 3.77-4.168.943-4.023-.873.044-5.12-.314-8.166-2.7-1.48-1.16-3.218-3.872-5.06-3.872-1.84 0-.785 2.033-3.367 2.033-2.028 0-1.98-2.04-3.127-2.033-1.655.01-3.077 7.732-.225 10.596h4.83s2.13-1.452 6.97 0h7.203zM88.725 93.652s41.163.514 39.426 11.212c-4.343 26.76-4.156 44.425-4.156 44.425H117.8s-3.096-14.71-3.52-24.038c-.428-9.328 3-17.375 2.373-21.207l2.237 7.05s-26.62 3.75-34.936-.25c-8.316-4.002 4.77-17.194 4.77-17.194" fill="#666"/></svg>