<svg xmlns="http://www.w3.org/2000/svg" width="210.792" height="96.644" viewBox="0 0 210.792 96.644"><path d="M200.12 6.787c-2.484-6.056-8.5-8.533-14.913-5.475l-.048-.01c-2.933 1.204-5.584 6.093-7.445 6.855l.233.506.305.664 1.472-.03L181 9.274s.22.04.562.096c.205.032.455.07.732.108 1.134.16 2.69.314 3.27.077.477-.196 1.13-.284 1.74-.177.653.115 1.256.453 1.537 1.14.746 1.812-1.195 3.284-1.195 3.284l.4.982s1.884-.926 3.91.29c1.838 1.102 1.505 2.402 4.81 1.354.316-.1.655-.216 1.04-.36l.487.93s.942 2.344-4.015 4.503l1.635-.43c3.243.04 7.82-5.476 5.542-11.034l-1.333-3.248zM113.943 35.23l-2.536-6.185s-6.354-1.388-14.827 3.637c-8.475 5.024-18.888 9.695-25.54 12.422l1.863 4.538 1.65 4.026 1.563 3.806.818 1.998 1.545 3.767.16.39L80.8 68.9s4.06-1.226 8.39-2.598c5.082-1.608 9.304-2.43 13.81-4.49 6.926-3.17 18.225-8.828 18.225-8.828l-1.57-3.825-5.715-13.932z" fill="#666"/><path fill="#E5E5E5" d="M197.803 16.068c-.384.144-.723.26-1.038.36-3.306 1.05-2.973-.252-4.81-1.354-2.027-1.216-3.91-.29-3.91-.29l-.402-.982s1.942-1.473 1.198-3.284c-.28-.688-.882-1.024-1.534-1.14-.61-.107-1.265-.02-1.742.176-.58.237-2.134.082-3.27-.076-.276-.04-.527-.077-.732-.11-.34-.054-.56-.095-.56-.095l-1.275.025-1.47.03-.306-.664c-.46.293-1.34.793-2.83 1.402l-10.54.77c-4.032-.37-9.42-.784-15.072.558 6.17-1.005 15.742-1.474 18.75 4.416.218.43.375.86.508 1.286-.66-.738-1.455-1.262-2.306-1.588-2.737-3.33-9.397-3.97-15.987-1.265-7.442 3.052-11.967 9.207-10.107 13.745 2.464 6.002 7.545 5.94 13.585 3.91.024.008.046.02.067.028-.2 1.086-.36 2.215-.467 3.384-.13 1.444-.177 2.947-.12 4.5v.05c.093 2.358.432 4.83 1.1 7.38-1.564 2.077-2.896 4.782-3.265 8.23-.46 4.3-.433 8.756-.305 12.91.05 7.21-3.283 16.233-1.106 22.326.85 2.372 2.837 5.938 6.644 5.938h15.82c1.755 0 .505-2.03-1.216-2.188-1.718-.156-9.374-1.875-9.374-1.875l-5.78-3.59.9-4.7s4.675-17.952 5.966-30.557c.623-.296 1.176-.786 1.593-1.52 3.843-6.755 6.118-20.346 6.03-28.35l7.03-2.48s1.25 2.227 1.966 3.467c.72 1.243.997 1.363 2.515.77 1.518-.597 1.11-.92 1.966-.693.856.224.986-.378.986-.378.09.574 1.344.164 1.344.164s.35-1.25.945.138c.594 1.39 1.392.567 1.714.204.32-.364 1.256-2.09 3.67-2.9.642-.215 1.193-.436 1.7-.656 4.957-2.16 4.017-4.502 4.017-4.502l-.49-.93zM76.935 59.472l-.818-1.998-1.563-3.806-1.65-4.026c-1.366.725-2.747 1.472-4.145 2.247-.69.38-1.28.836-1.797 1.33-6.87-.32-15.885-.133-23.81 3.77-10.694 5.26-22.83 13.044-30.065 15.664 1.162 2.325-1.73 2.586-.58 4.938 1.502 3.07 3.75 1.548 4.82 3.734.033.063.044.122.07.185l40.676-14.093c5.026-.08 13.274-2.062 19.255-3.834.427.02.864.035 1.31.047l-.16-.39-1.546-3.768z"/><path d="M149.507 11.393c-1.424.337-2.863.783-4.3 1.374-11.238 4.608-11.075 9.944-20.905 13.977-5.26 2.157-9.07 2.17-12.896 2.302l2.536 6.184 5.715 13.933 1.57 3.826 32.202-13.13-.003-.05c-.056-1.553-.01-3.055.12-4.498.107-1.17.268-2.3.467-3.386-.022-.007-.043-.02-.065-.027-6.04 2.027-11.12 2.09-13.586-3.91-1.86-4.54 2.665-10.694 10.107-13.747 6.59-2.703 13.25-2.064 15.987 1.265.85.326 1.646.85 2.306 1.587-.133-.426-.29-.854-.51-1.284-3.004-5.892-12.576-5.423-18.747-4.42M22.743 91.318c-.832-.137-3.544-3.614-4.984-7.772 0-.002-.005.005-.005.004.025-.61-.034-1.298-.354-2.038-.026-.063-.037-.122-.07-.187-1.07-2.186-3.317-.663-4.82-3.733-1.15-2.353 1.74-2.613.58-4.937-.03-.06-.05-.114-.086-.176-1.078-1.907-10.983.84-12.73 5.9-1.234 2.065 1.89 5.88 5.223 8.035 3.335 2.155 6.323 5.268 7.365 7.747.568 1.282 1.986 2.48 4.722 2.48h4.252c5.887-.912 4.91-4.67.906-5.326" fill="#666"/></svg>