<svg xmlns="http://www.w3.org/2000/svg" width="210.792" height="96.644" viewBox="0 0 210.792 96.644"><path d="M200.794 51.293c-.01-.007-.033-.028-.033-.028-3.125-.52-7.946 2.252-9.932 1.926l-.068.554-.09.723 1.27.747 1.1.648s.166.154.425.377c.157.14.354.303.568.48.882.73 2.127 1.68 2.743 1.78.507.083 1.112.353 1.576.767.493.438.827 1.042.707 1.772-.32 1.935-2.746 2.166-2.746 2.166l-.175 1.05s2.09.2 3.175 2.297c.988 1.906.02 2.84 3.396 3.683.318.078.665.154 1.063.236l-.072 1.046s-.43 2.488-5.773 1.727l1.608.487c2.74 1.74 9.53-.557 10.51-6.483l.57-3.463c1.065-6.46-2.754-11.728-9.822-12.492" fill="#666"/><path d="M123.96 74.37l-2.136-14.905-.948-6.614s-5.82-2.9-15.264-.1c-9.448 2.8-20.686 4.784-27.8 5.804l.693 4.854.62 4.31.467 3.28.115.792.203 1.42.13.916.193 1.342.416 2.907.806 5.643s4.235-.2 8.77-.468c5.322-.318 9.616-.084 14.488-.98 7.49-1.377 19.83-4.103 19.83-4.103l-.586-4.097z" fill="#666"/><path fill="#E5E5E5" d="M202.713 70.232c-3.376-.845-2.41-1.776-3.397-3.682-1.086-2.098-3.176-2.298-3.176-2.298l.175-1.05s2.424-.23 2.744-2.165c.12-.73-.215-1.335-.71-1.774-.463-.412-1.068-.682-1.575-.767-.616-.1-1.86-1.05-2.743-1.78-.214-.176-.41-.34-.567-.478-.26-.224-.427-.376-.427-.376l-1.1-.648-1.27-.748.09-.723c-.543.01-1.554-.03-3.142-.29l-4.007-2.12v-.07c-4.403-2.406-11.508-6.08-21.475-6.217 6.23.533 15.626 2.42 17.1 8.865.92 4.025-1.398 7.087-4.67 9.57-3.563 3.038-7.35 5.815-7.35 5.815L160.8 73.35l16.07-10.16 6.804 1.127s-.105 2.55-.148 3.982c-.042 1.432.13 1.682 1.736 1.974 1.606.29 1.43-.2 2.036.44.612.642 1.038.198 1.038.198-.227.536 1.056.845 1.056.845s.953-.88.733.615c-.225 1.497.89 1.215 1.354 1.073.46-.14 2.165-1.12 4.646-.54.662.155 1.248.256 1.8.335 5.342.762 5.773-1.726 5.773-1.726l.07-1.048c-.395-.08-.74-.156-1.06-.234M80.235 75.466l-.194-1.342-.127-.916-.203-1.422-.116-.792-.467-3.28-.62-4.31c-1.5.37-3.023.758-4.567 1.166-.762.205-1.446.5-2.067.854-6.583-1.99-15.37-4.013-24.007-2.165-9.27 1.976-19.828 5.283-27.613 6.942-.576 1.472-2.575.98-2.62 3.23-.07 3.418 2.628 3.093 2.577 5.524-.013.596-.27 1.155-.664 1.7 15.672-.99 55.03-3.402 57.963-2.942.29.048.107-.12-.317-.416 1.064.36 2.217.724 3.46 1.072l-.42-2.906zm91.13 18.278c-1.716-.183-9.34-2.024-9.34-2.024l-5.727-3.683c.055.063-.657-.77-1.564-2.294-.258-2.253-.787-6.45-1.62-11.308-.626-3.666-1.426-7.707-2.412-11.563 2.59 3.633 7.98 3.646 14.194 2.755 7.964-1.14 13.857-6 13.165-10.854-.55-3.827-5.027-6.498-10.797-6.906-1.987-.985-4.387-2.002-7.09-2.777-6.058-1.736-13.62-2.254-21.372 1.52-2.17 1.062-3.437 4.22-2.876 6.807.02.093.04.182.065.274-.05 1.48.066 3.215.45 5.307.795 4.307 2.393 8.438 4.203 12.205-.125-.037-.242-.073-.37-.12.288.8 1.277 2.6 2.53 4.812 2.54 4.49 6.188 10.698 7.376 13.768.91 2.348 2.74 5.98 6.55 6.04l15.816.252c1.753.027.536-2.027-1.18-2.208"/><path d="M140.643 71.2c-1.81-3.767-3.408-7.898-4.202-12.205-.383-2.092-.5-3.826-.45-5.305-.024-.092-.045-.182-.066-.274-.622.133-1.274.25-1.976.35-5.63.81-9.328-.108-13.07-.916l.948 6.614 2.135 14.906.588 4.096 18.256-2.576c-1.252-2.21-2.24-4.01-2.528-4.81.127.045.243.082.368.12m38.594-17.29c-1.475-6.445-10.87-8.33-17.1-8.864-.646-.01-1.303.01-1.965.042 2.703.776 5.102 1.793 7.09 2.778 5.77.408 10.247 3.08 10.798 6.906.694 4.854-5.2 9.713-13.163 10.854-6.213.89-11.605.88-14.194-2.755.986 3.86 1.786 7.9 2.413 11.565l7.688-1.086 6.413-4.056s3.787-2.778 7.352-5.814c3.27-2.484 5.587-5.547 4.67-9.57M20.25 70.204c.11-.28.174-.628.155-1.087-.086-2.19-10.147-4.278-14.017-.578l-.152 7.636c.014-.687 1.084 2.43 1.062 3.568-.02 1.137-.96 1.994-1.197 3.074-.693 3.19-.117 5.79-.117 5.79-.034 1.695 2.396 5.112 2.396 5.112 4.5 5.24 9.534 1.728 6.612-1.29-.807-.836-.044-6.878-.044-6.878.8-1.704 3.367-3.21 4.593-4.896.395-.544.653-1.104.666-1.7.047-2.432-2.65-2.107-2.58-5.525.045-2.25 2.043-1.76 2.62-3.23" fill="#666"/></svg>