<svg xmlns="http://www.w3.org/2000/svg" width="73.618" height="70.093" viewBox="0 0 73.618 70.093"><path fill="#E5E5E5" d="M50.625 40.162c-.705 1.883-3.88 7.64-3.524 12.81.418 6.106-.02 11.44-.393 12.927h3.76s.84-6.128 1.22-8.614c.54-3.554 2.185-9.705 1.8-15.814-.105-1.617-1.73-1.62-1.73-1.62l-1.132.31z"/><path fill="#666" d="M46.747 64.818c-.822.05-1.53 3.85-.11 5.273h2.872c-.26 0 .905-.427 1.333-.427s.748.428 1.164.428h4.084c3.06-.34 1.882-2.07.475-2-.438.02-2.08-.156-3.6-1.345-.734-.578-1.603-1.93-2.52-1.93-.913 0-.77 1.016-2.056 1.016-1.01.003-.57-1.075-1.643-1.012m-37.403 3.27c-.312-.05-1.333-1.358-1.874-2.92-.02-.063-.137 1.478-.18 1.423l-1.66 2.57c.213.48.746.933 1.774.933h1.598c2.215-.342 1.847-1.756.342-2.004"/><path fill="#E5E5E5" d="M62.79 51.04c-.12-.66-.282-1.453-.45-2.417-.395-2.28-1.137-4.39-1.494-5.33l1.554-.053.428-4.393c-1.05-.006-3.744-2.3-7.443-2.9 2.287.543 5.678 1.764 5.867 4.242h.002c.07.93-.286 1.657-.865 2.26-.743-.83-2.326-1.74-2.31 1.485-2.287 1.004-4.94 1.482-4.76 2.463l4.77-2.106c.007.2.015.4.033.63.268 3.207 1.646 5.787 2.828 7.194.31.024.552.068.748.126l-.167.49c-.183-.168-.378-.377-.58-.616-.12-.01-.246-.02-.393-.02-.913-.014-1.184-.013-1.262-.01-.012 0-.02-.007-.032-.007-.358 0-.648.29-.65.645 0 .224.12.41.292.528-.173.115-.294.303-.295.525v.002c-.002.223.117.41.29.528-.174.115-.295.303-.296.526 0 .223.12.41.293.527-.175.116-.297.304-.3.528 0 .357.287.648.645.65.007 0 .013-.004.02-.004l.978.006v.002c5.476.285 3.552-3.826 2.55-5.5z"/><path fill="#666" d="M55.93 45.246s2.304-1.213 3.988-2.36l-5.494 1.745-3.194.595 1.02 1.145 1.072.033 2.61-1.154-.002-.004z"/><path fill="#E5E5E5" d="M65.833 39.07s-.39.125-1.365.12l-3.856-1.287 1.89 4.347s3.168-.308 2.898-.203c-.27.104 3.585-2.78.436-2.976"/><path fill="#666" d="M68.42 45.785c-1.303-.008-1.828-.764-1.82-2.068l.018-2.854c.008-1.306 1.07-2.823 2.377-2.815l.227-.435c2.68-.146 4.414 1.593 4.4 4.06l-.008 1.318c-.014 2.26-2.4 3.513-3.52 3.027l-1.674-.232z"/><path fill="#E5E5E5" d="M66.938 45.814c-1.107-.006-2.652-.914-2.645-2.023l.012-2.09c.008-1.473 3.723-2.93 2.672-2.934l2.27-.457c.32.79 2 1.38 1.996 2.486l-.02 3.033c-.01 1.105-.77 1.126-1.49 1.587l-2.795.397zm1.838.096c-.955-.068-1.53.396-1.693.48-.162.084-.56.25-.563-.32-.01-.566-.312-.186-.312-.186s-.492-.04-.44-.254c0 0-.134.19-.396-.01-.264-.2-.17-.03-.783-.043-.61-.015-.69-.098-.76-.63-.07-.536-.184-1.49-.184-1.49l-2.896-.16.854-1.56 6.6-.902 2.888-.59.414 4.703s-.006 1.157-2.73.963"/><path fill="#666" d="M71.508 44.555c-1.825-.06-1.396-.48-1.922-1.19-.528-.717-1.315-.666-1.315-.666l.004-.4s.89-.23.895-.968c.003-.54-.602-.81-1-.81-.39-.003-1.544-.758-1.544-.758l-.96-.378-.02-.484c.755.006 2.382-1.31 3.57-1.303 0 0 3.155 1.985 3.142 4.65-.014 2.662-.85 2.304-.85 2.305"/><path fill="#E5E5E5" d="M35.493 40.615c-1.885.48-5.326 2.832-12.11 8.557-1.537 1.297-1.383 3.45.276 3.83 1.66.383 9.49-.36 15.747-4.95 6.258-4.586-3.35-7.58-3.914-7.437"/><path fill="#9CD68E" d="M30.645 43.623c-1.827 2.957 6.284 6.017 6.284 6.017l5.89-3.874-4.896-7.648c-1.215.282-2.95.057-4.36 1.094-2.184 1.6-1.94 2.826-2.92 4.41"/><path fill="#E5E5E5" d="M26.154 49.312c-1.96.447-7.728.457-11.848 3.6-4.12 3.146-8.712 7.68-11.008 8.49l2.073 3.14s9.563-6.268 10.9-6.66c.537-.155 2.335-1.11 4.3-2.206 2.953-1.64 6.283-3.586 6.283-3.586l-.7-2.778z"/><path fill="#666" d="M5.63 69.16s1.28-1.137 1.302-1.09l.832-2.174c-.297-.245-.706-1.458-1.216-2.128-.553-.73-1.272-.005-2.05-1.026-.61-.806.512-1.104-.19-1.923-.535-.627-3.99 1.103-4.266 3.102-.306.853 1.124 2.03 2.51 2.584 1.386.552 2.512 1.814 3.078 2.654"/><path fill="#666" d="M61.252 40.19c-.19-2.48-3.58-3.7-5.87-4.244-.54-.09-1.105-.142-1.69-.146-4.564-.025-5.266.13-9.093 1.273-1.766.524-2.23.522-3.996.826v.002-.002s-4.937-1.267-8.355 2.16c-2.617 2.624-6.265 4.95-8.52 6.44l5.33 8.07s1.41-.748 2.906-1.57c1.76-.96 5.894-2.604 7.408-3.69.002 0 .002-.002.004-.003l-.002.005 15.096-.85c.343-1.32.23-2.318-.2-3.065 2.16-1.02 7.235-1.87 6.98-5.208z"/><path fill="#E5E5E5" d="M62.372 69.27c-.646-.06-3.523-.705-3.523-.705l-2.177-1.35-.092-1.933c.274-1.154 1.942-8.14 1.68-12.457 1.35-2.845 2.106-7.886 1.97-10.604.152-.273.27-.562.325-.87.136-.288.214-.59.216-.905.01-1.844-2.437-3.354-5.46-3.37-3.023-.016-5.486 1.466-5.496 3.31-.016 2.44 1.76 3.154 4.146 3.324.16.14.336.267.52.382-.61 1.988-.963 4.572-.217 7.425-.59.78-1.09 1.8-1.23 3.097-.19 1.793.3 3.635.825 5.333-.015 2.624-.245 5.757.524 7.916.32.894 1.068 2.234 2.498 2.234h5.95c.658 0 .188-.765-.458-.824v-.003z"/></svg>