<svg xmlns="http://www.w3.org/2000/svg" width="99.898" height="194.098" preserveAspectRatio="xMidYMax" viewBox="0 0 99.898 164.098"><path fill="#E5E5E5" d="M51.564 63.315c-.22-.886-2.096-3.523-1.22-4.666.397-.523-.87-3.42-1.923-4.893l.004.003s-6.082-.812-5.685 5.42c0 0-.627-1.335-2.24-.364-1.617.972-1.09 4.723-1.09 4.723l-1.505 3.832c.27 1.5-6.725 6.83-6.725 6.83l12.526 3.217c-1.354-2.81.393-5.655 1.193-7.2.214-.418.656-.667 1.124-.64l1.54.09c1.186.06 1.647-1 1.712-2.316.017-.35.323-.664.562-1.07.16-.27-.807-.435-.807-.435s1.51-.333 1.297-.63c-.142-.193-.175-.493.072-.777.395-.45 1.326-.463 1.16-1.13"/><path d="M48.426 53.76s-1.787-3.427-6.23-3.333c-1.228.026-2.3.268-3.24.65.263-.59.33-1.285.06-2.02-.31-.825-1.042-1.47-1.904-1.656-1.748-.374-3.28.96-3.257 2.64.02 1.458 1.2 2.62 2.646 2.63-1.91 1.828-2.69 4.395-2.51 6.23.424 4.223 3.918 8.474 3.918 8.474l2.328-3.46c.197-.292.244-.66.12-.99-.393-1.034-1.098-3.36.145-4.107.897-.54 1.75-.074 2.333.445.288.257.733.047.756-.338.305-5.043 4.837-5.16 4.837-5.16M16.75 83.07C7.168 92.498-.21 104.912.09 111.67l22.37-5.032c4.227-3.372 8.793-9.398 8.793-9.398s2.312.984 4.496.463c2.186-.522 4.1-1.602 5.16-5.686.526-2.01 4.48-11.473 4.686-12 .76-1.942.46-4.228-.762-6.117-2.125-3.282-8.29-4.067-11.78-2.305-3.367 1.7-10.042 5.314-16.304 11.475" fill="#666"/><path fill="#E5E5E5" d="M99.862 84.522c-.598-.63-3.606-1.055-3.606-1.055l-10.17-2.472-26.486-2.86c-.578-.013-15.69-4.31-17.412-4.842-1.153-.357-2.174-.594-3.083-.726-.457-.117-.932-.186-1.425-.186-.628 0-1.23.106-1.796.293-.02.006-.036.014-.055.02-2.258.77-3.88 2.9-3.88 5.417 0 3.163 2.562 5.728 5.73 5.728.744 0 1.455-.147 2.11-.407 5.726.67 17.27 1.26 20.457 1.21 3.594-.056 24.16-.663 25.572-.317 1.37.334 4.105 1.656 5.997 1.428 1.89-.227 8.64-.597 8.044-1.227z"/><path d="M59.82 110.266c.74-5.72-7.925-13.432-29.59-8.91C8.56 105.878.09 111.67.09 111.67c-.507 3.11.646 15.096 16.473 12.875 19-2.667 36.684-11.528 36.684-11.528" fill="#666"/><path fill="#E5E5E5" d="M37.366 147.756l-1.06 9.528 4.423 1.057 2.66-9.14z"/><path d="M55.15 164.098c6.14-.688 3.772-4.168.942-4.023-.875.043-5.12-.313-8.168-2.7-1.48-1.16-3.218-3.87-5.06-3.87-1.838 0-.785 2.03-3.367 2.03-2.027 0-1.98-2.038-3.127-2.03-1.654.007-3.076 7.73-.223 10.595h4.828s2.13-1.453 6.97 0l7.206-.002zm-5.193-61.116c-.284 3.872-7.666 13.407-9.423 22.58-1.756 9.17-3.17 22.194-3.17 22.194l6.025 1.44s10.17-23.106 16.43-38.932" fill="#666"/></svg>