<svg xmlns="http://www.w3.org/2000/svg" width="99.898" height="194.098" preserveAspectRatio="xMidYMax" viewBox="0 0 99.898 164.098"><path fill="#E5E5E5" d="M36.195 149.288l1.187 9.512h4.547l.46-9.512z"/><path d="M54.807 164.098c6.138-.688 3.77-4.168.94-4.023-.874.044-5.12-.313-8.167-2.7-1.48-1.16-3.218-3.87-5.06-3.87-1.838 0-.785 2.03-3.367 2.03-2.028 0-1.98-2.038-3.127-2.03-1.653.007-3.076 7.73-.223 10.595h4.828s2.133-1.453 6.973 0l7.205-.002z" fill="#666"/><path fill="#E5E5E5" d="M51.367 15.15c-.267-.873-2.28-3.405-1.47-4.594.37-.54-1.05-3.365-2.18-4.78v.002s-6.117-.484-5.385 5.72c0 0-.696-1.303-2.258-.245-1.562 1.056-.834 4.772-.834 4.772l-1.296 3.91c.35 1.485-3.348 7.182-3.348 7.182l9.684 2.54c-1.504-2.732.086-5.67.804-7.256.193-.426.62-.696 1.09-.695l1.544.005c1.188 0 1.59-1.085 1.585-2.403-.003-.35.286-.68.506-1.1.144-.277-.83-.39-.83-.39s1.49-.414 1.26-.697c-.15-.188-.2-.484.03-.782.366-.467 1.296-.53 1.096-1.188"/><path d="M47.55 102.865s5.198-22.41 3.016-39.296H35.64c-1.847 4.725-4.157 7.64-4.717 11.433C29.94 81.69 33.17 85.63 33.17 85.63l2.878 17.417c.625 3.832-3.8 12.88-3.375 22.207.427 9.328 3.52 24.036 3.52 24.036h6.196s.902-19.652 5.16-46.425M33.8 50.127c1.38 5.28 2.395 8.5 1.84 13.44h14.926c-.537-5.378-.125-14.026-.125-14.026s2.084-1.402 2.833-3.52c.748-2.12.882-4.31-1.97-7.424-1.403-1.532-7.2-9.99-7.53-10.448-1.223-1.693-3.303-2.684-5.553-2.684-3.91 0-6.664 3.19-7.08 7.08-.403 3.75.44 9.084 2.66 17.584m13.92-44.35s-1.972-3.326-6.4-2.994c-1.225.093-2.283.39-3.2.823.23-.604.26-1.302-.052-2.018C37.715.78 36.95.172 36.08.033c-1.767-.28-3.224 1.135-3.11 2.81.098 1.454 1.34 2.55 2.784 2.483-1.812 1.928-2.455 4.532-2.174 6.358.65 4.19 4.367 8.248 4.367 8.248l2.14-3.58c.18-.3.207-.67.064-.994-.444-1.013-1.272-3.298-.073-4.11.866-.586 1.744-.17 2.354.318.3.24.733.007.735-.38.036-5.05 4.556-5.412 4.556-5.412" fill="#666"/><path fill="#E5E5E5" d="M49.755 90.95l-.48-10.455L43.62 54.55c-.148-.557.69-16.55.718-18.352.078-4.838-1.042-7.214-3.306-7.693-.894-.578-1.958-.917-3.102-.917-3.166 0-5.73 2.563-5.73 5.73 0 1.64.695 3.118 1.802 4.163.85 5.93 2.653 16.6 3.558 19.52 1.062 3.435 8.38 22.72 8.444 24.174.063 1.408-.437 4.408.313 6.158s3 8.126 3.438 7.376c.437-.75 0-3.756 0-3.756z"/></svg>