<svg xmlns="http://www.w3.org/2000/svg" width="60.312" height="170.252" preserveAspectRatio="xMidYMax" viewBox="0 0 60.312 140.252"><path fill="#E5E5E5" d="M29.465 51.97c0 2.578-4.09 3.668-6.67 3.668-2.576 0-3.667-2.09-3.667-4.668s2.09-4.668 4.668-4.668c2.578 0 5.67 3.09 5.67 5.668"/><path fill="#E5E5E5" d="M37.846 125.444l1.186 9.512h4.548l.46-9.512z"/><path d="M56.457 140.252c6.138-.687 3.77-4.168.943-4.023-.875.042-5.12-.316-8.168-2.703-1.48-1.16-3.218-3.87-5.06-3.87-1.84 0-.785 2.032-3.367 2.032-2.028 0-1.98-2.04-3.127-2.034-1.654.01-3.076 7.732-.224 10.596h4.83s2.13-1.452 6.97 0h7.203z" fill="#666"/><path fill="#E5E5E5" d="M20.642 15.15c-.266-.873-2.28-3.405-1.47-4.594.37-.54-1.05-3.365-2.18-4.78l.002.002s-6.118-.485-5.386 5.718c0 0-.697-1.3-2.258-.244-1.56 1.056-.834 4.772-.834 4.772l-1.296 3.91c.35 1.485-3.35 7.18-3.35 7.18l9.686 2.54c-1.504-2.73.087-5.667.804-7.254.194-.428.622-.7 1.09-.698l1.544.006c1.188 0 1.59-1.085 1.584-2.403 0-.35.288-.68.507-1.1.146-.277-.828-.39-.828-.39s1.49-.414 1.26-.697c-.15-.188-.2-.484.03-.782.364-.465 1.295-.53 1.095-1.186"/><path d="M20.67 69.47l-.83-5.902H4.912C3.068 68.293.757 71.208.198 75c-.448 3.04-.213 6.92 1.488 9.664 2.002 3.23 5.796 3.565 9.28 3.91 8.212.814 16.67.015 24.842-.934-.783 3.873-1.72 8.622-1.484 13.767.426 9.327 3.522 24.036 3.522 24.036h6.193s-.188-17.664 4.157-44.425c1.322-8.126-16.187-10.935-27.53-11.548M3.073 50.126c1.38 5.28 2.396 8.5 1.84 13.44H19.84c-.538-5.377-.126-14.026-.126-14.026s2.082-1.404 2.83-3.522c.75-2.12.883-4.312-1.97-7.423-1.402-1.532-7.2-9.99-7.53-10.448-1.22-1.694-3.3-2.684-5.55-2.684-3.91 0-6.665 3.192-7.08 7.08-.403 3.75.44 9.083 2.66 17.583" fill="#666"/><path fill="#E5E5E5" d="M12.934 33.318c0 3.164-2.564 5.73-5.73 5.73-3.163 0-5.728-2.566-5.728-5.73 0-3.165 2.564-5.73 5.73-5.73 3.163 0 5.728 2.565 5.728 5.73"/><path d="M16.994 5.778s-1.97-3.326-6.4-2.994c-1.225.092-2.284.39-3.2.823.23-.603.26-1.302-.052-2.018C6.99.78 6.224.172 5.352.034c-1.764-.28-3.222 1.135-3.11 2.81.1 1.454 1.34 2.55 2.787 2.483-1.813 1.928-2.456 4.533-2.174 6.36.648 4.19 4.366 8.247 4.366 8.247l2.14-3.58c.18-.3.21-.67.065-.994-.445-1.01-1.275-3.295-.074-4.106.866-.586 1.744-.17 2.355.318.3.242.734.008.736-.377.036-5.054 4.554-5.415 4.554-5.415" fill="#666"/><path fill="#E5E5E5" d="M12.554 31.28s11.582 15.315 13.66 18.815c2.08 3.5-5 3.75-5 3.75l-18.47-16.93 9.81-5.636zm12.7 14.702c0 .56-.453 1.01-1.012 1.01s-1.012-.45-1.012-1.01.453-1.01 1.012-1.01 1.012.45 1.012 1.01m1.343 1.022c0 .56-.453 1.012-1.012 1.012s-1.012-.453-1.012-1.012c0-.56.453-1.01 1.012-1.01s1.012.452 1.012 1.01m1.375 1.012c0 .56-.453 1.01-1.012 1.01s-1.012-.45-1.012-1.01.453-1.012 1.012-1.012 1.012.453 1.012 1.012m1.01 1.374c0 .56-.452 1.012-1.01 1.012s-1.01-.452-1.01-1.01.45-1.012 1.01-1.012 1.012.452 1.012 1.01"/></svg>